<?xml version="1.0" encoding="UTF-8"?>
<!DOCTYPE svg PUBLIC "-//W3C//DTD SVG 1.1//EN" "http://www.w3.org/Graphics/SVG/1.1/DTD/svg11.dtd">
<!-- Creator: CorelDRAW 2019 (64-Bit) -->
<svg xmlns="http://www.w3.org/2000/svg" xml:space="preserve" width="388px" height="387px" version="1.1" style="shape-rendering:geometricPrecision; text-rendering:geometricPrecision; image-rendering:optimizeQuality; fill-rule:evenodd; clip-rule:evenodd"
viewBox="0 0 51.54 51.53"
 xmlns:xlink="http://www.w3.org/1999/xlink"
 xmlns:xodm="http://www.corel.com/coreldraw/odm/2003">
 <defs>
  <style type="text/css">
   <![CDATA[
    .fil0 {fill:#B3B3B3}
    .fil1 {fill:#6B9543;fill-rule:nonzero}
   ]]>
  </style>
 </defs>
 <rect class="fil0" x="125.91" y="-44" width="136.17" height="136.17"/>
 <g id="Слой_x0020_1">
  <metadata id="CorelCorpID_0Corel-Layer"/>
  <path class="fil1" d="M46.5 14.15l-0.56 0.32 0.52 1.01 -0.54 0.31c-0.48,-0.15 -0.83,-0.43 -1.17,-1.03 -0.47,-0.82 -0.26,-1.67 0.54,-2.13 0.82,-0.47 1.64,-0.22 2.11,0.62 0.36,0.63 0.39,1.11 0.17,1.64l0.62 0.36c0.36,-0.75 0.33,-1.5 -0.15,-2.34 -0.67,-1.17 -1.92,-1.65 -3.14,-0.96 -1.2,0.69 -1.44,2 -0.77,3.19 0.35,0.61 0.74,0.93 1.23,1.13l-0.29 0.29 0.25 0.44 2.12 -1.2 -0.94 -1.65z"/>
  <polygon id="1" class="fil1" points="49.82,16.63 45.69,17.79 46.73,21.52 47.42,21.33 46.59,18.36 50.03,17.39 "/>
  <path id="2" class="fil1" d="M49.08 22.51c0.98,-0.08 1.61,0.57 1.69,1.47 0.07,0.9 -0.45,1.65 -1.43,1.73 -0.99,0.09 -1.62,-0.57 -1.7,-1.48 -0.07,-0.89 0.45,-1.64 1.44,-1.72zm0.32 3.99c1.35,-0.11 2.15,-1.25 2.05,-2.57 -0.11,-1.33 -1.09,-2.32 -2.44,-2.21 -1.35,0.11 -2.15,1.25 -2.05,2.57 0.11,1.32 1.09,2.32 2.44,2.21z"/>
  <path id="3" class="fil1" d="M51.38 28.2l-4.22 -0.77 -0.53 2.88c-0.15,0.83 0.33,1.51 1.04,1.63 0.51,0.1 0.93,-0.08 1.18,-0.46 0.13,0.28 0.37,0.44 0.71,0.5 0.66,0.12 1.19,-0.33 1.32,-1.09l0.5 -2.69zm-0.85 0.65l-0.34 1.87c-0.08,0.44 -0.34,0.53 -0.6,0.49 -0.24,-0.05 -0.45,-0.26 -0.4,-0.56l0.37 -1.98 0.97 0.18zm-1.65 -0.3l-0.4 2.15c-0.06,0.35 -0.32,0.55 -0.68,0.49 -0.32,-0.06 -0.54,-0.34 -0.46,-0.78l0.38 -2.08 1.16 0.22z"/>
  <path id="4" class="fil1" d="M48.64 35.67l-0.2 0.44 -2.39 -0.1 0.97 -2.1 1.62 1.76zm0.84 -0.14l-3.11 -3.5 -0.35 0.77 0.49 0.55 -1.23 2.65 -0.73 -0.01 -0.35 0.75 4.66 0.14 0.62 -1.35z"/>
  <polygon id="5" class="fil1" points="47.21,39.99 43.85,37.33 41.44,40.37 42,40.81 43.91,38.39 46.72,40.61 "/>
  <path id="6" class="fil1" d="M38.39 45.92l-0.34 -0.54 -0.98 0.56 -0.34 -0.53c0.13,-0.48 0.39,-0.84 0.98,-1.21 0.79,-0.5 1.66,-0.34 2.15,0.44 0.5,0.8 0.29,1.63 -0.52,2.14 -0.62,0.39 -1.09,0.43 -1.64,0.24l-0.33 0.64c0.77,0.32 1.52,0.26 2.34,-0.26 1.14,-0.72 1.56,-1.99 0.81,-3.17 -0.74,-1.18 -2.06,-1.36 -3.22,-0.63 -0.59,0.38 -0.89,0.78 -1.07,1.27l-0.31 -0.27 -0.43 0.27 1.3 2.06 1.6 -1.01z"/>
  <path id="7" class="fil1" d="M36.09 49.36l-1.35 -4.07 -0.75 0.25 0.31 0.94 -1.76 0.58 -0.83 -0.77 -0.81 0.27 1.01 0.92c-0.43,0.41 -0.61,1 -0.39,1.65 0.31,0.95 1.24,1.33 2.17,1.02l2.4 -0.79zm-0.98 -0.43l-1.61 0.53c-0.56,0.19 -1.06,-0.03 -1.24,-0.58 -0.18,-0.54 0.1,-1 0.65,-1.18l1.62 -0.53 0.58 1.76z"/>
  <path id="8" class="fil1" d="M29.5 49.07c0.08,0.98 -0.57,1.62 -1.47,1.69 -0.9,0.07 -1.65,-0.45 -1.73,-1.43 -0.09,-0.98 0.57,-1.62 1.48,-1.69 0.89,-0.08 1.64,0.45 1.72,1.43zm-3.99 0.32c0.11,1.36 1.25,2.16 2.57,2.05 1.33,-0.11 2.32,-1.08 2.21,-2.44 -0.11,-1.35 -1.25,-2.15 -2.57,-2.04 -1.32,0.11 -2.32,1.08 -2.21,2.43z"/>
  <path id="9" class="fil1" d="M23.85 51.49l0.39 -2.15c0.25,-1.39 -0.44,-2.32 -1.75,-2.56 -1.31,-0.24 -2.29,0.39 -2.54,1.78l-0.39 2.15 0.77 0.14 0.39 -2.16c0.17,-0.9 0.7,-1.4 1.64,-1.23 0.95,0.18 1.26,0.83 1.1,1.73l-0.39 2.16 0.78 0.14z"/>
  <path id="10" class="fil1" d="M18 50.3l1.55 -4 -0.74 -0.28 -0.36 0.92 -1.61 -0.62c-0.92,-0.36 -1.86,-0.04 -2.22,0.9 -0.36,0.93 0.11,1.82 1.03,2.17l2.35 0.91zm-0.47 -0.96l-1.59 -0.61c-0.55,-0.21 -0.8,-0.69 -0.59,-1.23 0.21,-0.54 0.71,-0.71 1.26,-0.5l1.58 0.61 -0.66 1.73z"/>
  <path id="11" class="fil1" d="M4.73 36.92l0.56 -0.32 -0.52 -1.01 0.54 -0.31c0.48,0.15 0.83,0.43 1.17,1.03 0.46,0.82 0.26,1.68 -0.54,2.13 -0.82,0.47 -1.64,0.22 -2.11,-0.61 -0.37,-0.64 -0.39,-1.12 -0.17,-1.65l-0.62 -0.36c-0.36,0.75 -0.33,1.5 0.15,2.34 0.67,1.18 1.92,1.65 3.13,0.96 1.21,-0.68 1.45,-2 0.77,-3.19 -0.35,-0.61 -0.73,-0.92 -1.22,-1.13l0.28 -0.29 -0.25 -0.44 -2.11 1.2 0.94 1.65z"/>
  <polygon id="12" class="fil1" points="1.54,34.39 5.67,33.23 4.62,29.5 3.94,29.69 4.77,32.66 1.33,33.63 "/>
  <path id="13" class="fil1" d="M2.32 28.39c-0.99,0.03 -1.59,-0.66 -1.62,-1.56 -0.03,-0.9 0.53,-1.63 1.51,-1.66 0.99,-0.03 1.59,0.66 1.62,1.56 0.03,0.9 -0.53,1.63 -1.51,1.66zm-0.13 -4c-1.36,0.04 -2.22,1.14 -2.17,2.47 0.04,1.32 0.97,2.36 2.32,2.32 1.36,-0.05 2.22,-1.14 2.17,-2.47 -0.04,-1.32 -0.97,-2.37 -2.32,-2.32z"/>
  <path id="14" class="fil1" d="M0.24 22.81l4.22 0.77 0.53 -2.89c0.15,-0.83 -0.34,-1.5 -1.05,-1.63 -0.5,-0.09 -0.92,0.08 -1.18,0.46 -0.12,-0.27 -0.36,-0.43 -0.7,-0.5 -0.67,-0.12 -1.19,0.33 -1.33,1.09l-0.49 2.7zm0.85 -0.65l0.34 -1.87c0.08,-0.44 0.34,-0.54 0.6,-0.49 0.24,0.04 0.45,0.25 0.39,0.55l-0.36 1.98 -0.97 -0.17zm1.65 0.3l0.39 -2.15c0.07,-0.35 0.32,-0.56 0.68,-0.49 0.33,0.06 0.55,0.33 0.47,0.77l-0.38 2.08 -1.16 -0.21z"/>
  <path id="15" class="fil1" d="M3.11 15.37l0.21 -0.44 2.38 0.11 -0.96 2.1 -1.63 -1.77zm-0.84 0.15l3.11 3.5 0.36 -0.77 -0.49 -0.55 1.22 -2.66 0.74 0.02 0.34 -0.76 -4.66 -0.14 -0.62 1.36z"/>
  <polygon id="16" class="fil1" points="4.66,11.13 8.03,13.79 10.43,10.75 9.87,10.31 7.96,12.73 5.16,10.51 "/>
  <path id="17" class="fil1" d="M13.61 5.34l0.34 0.55 0.99 -0.57 0.33 0.53c-0.12,0.48 -0.39,0.84 -0.98,1.21 -0.79,0.5 -1.66,0.34 -2.15,-0.44 -0.5,-0.8 -0.29,-1.63 0.52,-2.14 0.62,-0.39 1.1,-0.43 1.64,-0.24l0.33 -0.64c-0.76,-0.32 -1.51,-0.26 -2.33,0.26 -1.14,0.72 -1.57,1.99 -0.82,3.17 0.74,1.18 2.06,1.36 3.22,0.63 0.6,-0.38 0.89,-0.77 1.07,-1.27l0.31 0.27 0.43 -0.27 -1.3 -2.06 -1.6 1.01z"/>
  <path id="18" class="fil1" d="M15.98 2.02l1.34 4.08 0.75 -0.25 -0.31 -0.94 1.76 -0.59 0.83 0.78 0.82 -0.27 -1.01 -0.92c0.42,-0.41 0.6,-1 0.39,-1.65 -0.31,-0.95 -1.24,-1.34 -2.18,-1.03l-2.39 0.79zm0.98 0.44l1.61 -0.53c0.56,-0.19 1.05,0.02 1.23,0.58 0.19,0.54 -0.09,0.99 -0.65,1.18l-1.61 0.53 -0.58 -1.76z"/>
  <path id="19" class="fil1" d="M22.59 2.46c-0.08,-0.98 0.58,-1.62 1.47,-1.69 0.91,-0.07 1.66,0.45 1.74,1.43 0.08,0.98 -0.58,1.62 -1.48,1.69 -0.9,0.08 -1.65,-0.45 -1.73,-1.43zm3.99 -0.32c-0.11,-1.36 -1.25,-2.16 -2.57,-2.05 -1.32,0.11 -2.32,1.08 -2.21,2.44 0.11,1.35 1.25,2.15 2.57,2.04 1.32,-0.11 2.32,-1.08 2.21,-2.43z"/>
  <path id="20" class="fil1" d="M28.24 0.18l-0.39 2.15c-0.26,1.4 0.43,2.33 1.75,2.57 1.31,0.24 2.28,-0.39 2.54,-1.79l0.39 -2.15 -0.77 -0.14 -0.4 2.16c-0.16,0.9 -0.69,1.4 -1.64,1.23 -0.95,-0.17 -1.26,-0.83 -1.1,-1.73l0.4 -2.16 -0.78 -0.14z"/>
  <path id="21" class="fil1" d="M34.33 1.52l-1.79 3.89 0.71 0.34 0.42 -0.91 1.57 0.73c0.89,0.41 1.85,0.15 2.27,-0.76 0.42,-0.91 0,-1.82 -0.89,-2.24l-2.29 -1.05zm0.42 0.99l1.54 0.71c0.53,0.24 0.75,0.74 0.51,1.26 -0.24,0.52 -0.75,0.67 -1.29,0.42l-1.54 -0.71 0.78 -1.68z"/>
 </g>
</svg>
