<?xml version="1.0" encoding="UTF-8"?>
<!DOCTYPE svg PUBLIC "-//W3C//DTD SVG 1.1//EN" "http://www.w3.org/Graphics/SVG/1.1/DTD/svg11.dtd">
<!-- Creator: CorelDRAW 2019 (64-Bit) -->
<svg xmlns="http://www.w3.org/2000/svg" xml:space="preserve" width="256px" height="256px" version="1.1" style="shape-rendering:geometricPrecision; text-rendering:geometricPrecision; image-rendering:optimizeQuality; fill-rule:evenodd; clip-rule:evenodd"
viewBox="0 0 23.5 23.54"
 xmlns:xlink="http://www.w3.org/1999/xlink"
 xmlns:xodm="http://www.corel.com/coreldraw/odm/2003">
 <defs>
  <style type="text/css">
   <![CDATA[
    .fil0 {fill:#B3B3B3}
    .fil1 {fill:white;fill-rule:nonzero}
   ]]>
  </style>
 </defs>
 <rect class="fil0" x="80.95" y="-36.44" width="94.1" height="94.1"/>
 <g id="Слой_x0020_1">
  <metadata id="CorelCorpID_0Corel-Layer"/>
  <path class="fil1" d="M21.21 6.47l-0.26 0.14 0.24 0.46 -0.25 0.14c-0.22,-0.06 -0.38,-0.19 -0.53,-0.47 -0.21,-0.37 -0.12,-0.76 0.25,-0.97 0.37,-0.21 0.74,-0.1 0.96,0.28 0.16,0.29 0.17,0.51 0.08,0.75l0.28 0.17c0.16,-0.34 0.15,-0.69 -0.07,-1.07 -0.3,-0.54 -0.88,-0.76 -1.43,-0.44 -0.55,0.31 -0.66,0.91 -0.35,1.46 0.16,0.28 0.33,0.42 0.56,0.51l-0.13 0.14 0.11 0.2 0.96 -0.55 -0.42 -0.75z"/>
  <polygon id="1" class="fil1" points="22.73,7.6 20.85,8.13 21.32,9.83 21.64,9.74 21.26,8.39 22.83,7.94 "/>
  <path id="2" class="fil1" d="M22.38 10.28c0.45,-0.03 0.74,0.27 0.77,0.68 0.04,0.41 -0.2,0.75 -0.65,0.79 -0.45,0.03 -0.74,-0.27 -0.77,-0.68 -0.04,-0.41 0.2,-0.75 0.65,-0.79zm0.15 1.82c0.62,-0.05 0.98,-0.57 0.93,-1.17 -0.05,-0.6 -0.49,-1.06 -1.11,-1.01 -0.62,0.05 -0.98,0.57 -0.93,1.18 0.05,0.6 0.49,1.05 1.11,1z"/>
  <path id="3" class="fil1" d="M23.44 12.87l-1.93 -0.35 -0.24 1.32c-0.07,0.38 0.15,0.68 0.48,0.74 0.23,0.04 0.42,-0.04 0.54,-0.21 0.05,0.13 0.16,0.2 0.32,0.23 0.3,0.05 0.54,-0.15 0.6,-0.5l0.23 -1.23zm-0.39 0.3l-0.15 0.85c-0.04,0.2 -0.16,0.25 -0.28,0.22 -0.11,-0.02 -0.2,-0.11 -0.18,-0.25l0.17 -0.9 0.44 0.08zm-0.75 -0.14l-0.18 0.98c-0.03,0.16 -0.15,0.26 -0.31,0.23 -0.15,-0.03 -0.25,-0.16 -0.21,-0.36l0.17 -0.95 0.53 0.1z"/>
  <path id="4" class="fil1" d="M22.17 16.3l-0.09 0.2 -1.09 -0.05 0.44 -0.96 0.74 0.81zm0.39 -0.07l-1.42 -1.59 -0.17 0.35 0.23 0.25 -0.56 1.21 -0.34 -0.01 -0.15 0.35 2.12 0.06 0.29 -0.62z"/>
  <polygon id="5" class="fil1" points="21.52,18.27 19.99,17.05 18.89,18.44 19.14,18.64 20.02,17.54 21.3,18.55 "/>
  <path id="6" class="fil1" d="M17.49 20.99l-0.15 -0.25 -0.45 0.26 -0.15 -0.25c0.05,-0.22 0.18,-0.38 0.44,-0.55 0.36,-0.23 0.76,-0.15 0.98,0.2 0.23,0.37 0.14,0.74 -0.23,0.98 -0.29,0.18 -0.5,0.2 -0.75,0.11l-0.15 0.29c0.35,0.15 0.69,0.12 1.06,-0.12 0.52,-0.33 0.72,-0.91 0.38,-1.45 -0.34,-0.53 -0.95,-0.62 -1.47,-0.28 -0.28,0.17 -0.41,0.35 -0.49,0.58l-0.14 -0.13 -0.2 0.13 0.59 0.94 0.73 -0.46z"/>
  <path id="7" class="fil1" d="M16.44 22.54l-0.61 -1.86 -0.34 0.11 0.14 0.43 -0.8 0.27 -0.38 -0.35 -0.37 0.12 0.46 0.42c-0.2,0.19 -0.28,0.46 -0.18,0.75 0.14,0.43 0.57,0.61 0.99,0.47l1.09 -0.36zm-0.44 -0.2l-0.74 0.24c-0.25,0.09 -0.48,-0.01 -0.56,-0.26 -0.08,-0.25 0.04,-0.46 0.3,-0.54l0.73 -0.24 0.27 0.8z"/>
  <path id="8" class="fil1" d="M13.45 22.41c0.04,0.45 -0.26,0.74 -0.67,0.78 -0.41,0.03 -0.76,-0.21 -0.79,-0.66 -0.04,-0.44 0.26,-0.73 0.67,-0.77 0.41,-0.03 0.75,0.21 0.79,0.65zm-1.82 0.15c0.05,0.62 0.57,0.99 1.17,0.94 0.61,-0.05 1.06,-0.5 1.01,-1.11 -0.05,-0.62 -0.57,-0.99 -1.17,-0.94 -0.61,0.05 -1.06,0.5 -1.01,1.11z"/>
  <path id="9" class="fil1" d="M10.88 23.51l0.18 -0.98c0.12,-0.64 -0.2,-1.07 -0.8,-1.17 -0.59,-0.11 -1.04,0.17 -1.15,0.81l-0.18 0.98 0.35 0.07 0.18 -0.99c0.07,-0.41 0.32,-0.64 0.75,-0.56 0.43,0.08 0.57,0.38 0.5,0.79l-0.18 0.98 0.35 0.07z"/>
  <path id="10" class="fil1" d="M8.22 22.98l0.7 -1.82 -0.34 -0.13 -0.16 0.42 -0.74 -0.29c-0.41,-0.16 -0.84,-0.01 -1.01,0.41 -0.16,0.43 0.05,0.84 0.47,1l1.08 0.41zm-0.22 -0.44l-0.73 -0.27c-0.25,-0.1 -0.36,-0.32 -0.26,-0.57 0.09,-0.24 0.32,-0.32 0.57,-0.22l0.72 0.28 -0.3 0.78z"/>
  <path id="11" class="fil1" d="M2.14 16.86l0.25 -0.15 -0.24 -0.46 0.25 -0.14c0.22,0.07 0.38,0.2 0.54,0.47 0.21,0.38 0.11,0.77 -0.25,0.98 -0.37,0.21 -0.75,0.1 -0.96,-0.29 -0.17,-0.28 -0.18,-0.5 -0.08,-0.75l-0.28 -0.16c-0.17,0.34 -0.15,0.68 0.06,1.07 0.31,0.53 0.88,0.75 1.44,0.44 0.55,-0.32 0.66,-0.92 0.35,-1.46 -0.16,-0.28 -0.34,-0.42 -0.56,-0.52l0.13 -0.13 -0.12 -0.2 -0.96 0.55 0.43 0.75z"/>
  <polygon id="12" class="fil1" points="0.68,15.69 2.56,15.16 2.08,13.46 1.77,13.55 2.15,14.91 0.58,15.35 "/>
  <path id="13" class="fil1" d="M1.06 12.96c-0.45,0.01 -0.73,-0.3 -0.74,-0.71 -0.01,-0.41 0.24,-0.74 0.69,-0.76 0.45,-0.01 0.73,0.3 0.74,0.71 0.01,0.41 -0.24,0.74 -0.69,0.76zm-0.06 -1.83c-0.62,0.02 -1.01,0.52 -0.99,1.13 0.02,0.6 0.44,1.08 1.06,1.06 0.62,-0.02 1.01,-0.52 0.99,-1.13 -0.02,-0.6 -0.44,-1.08 -1.06,-1.06z"/>
  <path id="14" class="fil1" d="M0.09 10.42l1.93 0.35 0.24 -1.32c0.07,-0.38 -0.16,-0.68 -0.48,-0.74 -0.23,-0.04 -0.42,0.04 -0.54,0.21 -0.05,-0.13 -0.16,-0.2 -0.32,-0.23 -0.3,-0.05 -0.54,0.15 -0.61,0.5l-0.22 1.23zm0.39 -0.3l0.15 -0.85c0.04,-0.2 0.16,-0.25 0.28,-0.22 0.11,0.02 0.2,0.11 0.18,0.25l-0.17 0.9 -0.44 -0.08zm0.75 0.14l0.18 -0.98c0.03,-0.16 0.15,-0.26 0.31,-0.23 0.15,0.03 0.25,0.16 0.21,0.36l-0.17 0.95 -0.53 -0.1z"/>
  <path id="15" class="fil1" d="M1.41 7.03l0.1 -0.21 1.09 0.05 -0.45 0.96 -0.74 -0.8zm-0.38 0.06l1.42 1.6 0.16 -0.35 -0.22 -0.25 0.56 -1.21 0.33 0 0.16 -0.34 -2.13 -0.07 -0.28 0.62z"/>
  <polygon id="16" class="fil1" points="2.13,5.1 3.67,6.31 4.77,4.92 4.51,4.72 3.64,5.83 2.36,4.81 "/>
  <path id="17" class="fil1" d="M6.19 2.45l0.16 0.24 0.45 -0.25 0.15 0.24c-0.06,0.22 -0.18,0.38 -0.45,0.55 -0.36,0.23 -0.76,0.15 -0.98,-0.2 -0.23,-0.36 -0.13,-0.74 0.24,-0.98 0.28,-0.17 0.5,-0.19 0.74,-0.11l0.16 -0.29c-0.35,-0.14 -0.69,-0.12 -1.07,0.12 -0.52,0.33 -0.71,0.91 -0.37,1.45 0.34,0.54 0.94,0.62 1.47,0.29 0.27,-0.18 0.41,-0.36 0.49,-0.59l0.14 0.13 0.19 -0.13 -0.59 -0.93 -0.73 0.46z"/>
  <path id="18" class="fil1" d="M7.27 0.93l0.61 1.86 0.35 -0.12 -0.15 -0.43 0.81 -0.26 0.37 0.35 0.38 -0.12 -0.46 -0.42c0.19,-0.19 0.27,-0.46 0.17,-0.75 -0.14,-0.44 -0.56,-0.61 -0.99,-0.47l-1.09 0.36zm0.44 0.2l0.74 -0.25c0.26,-0.08 0.48,0.02 0.57,0.27 0.08,0.25 -0.05,0.45 -0.3,0.54l-0.74 0.24 -0.27 -0.8z"/>
  <path id="19" class="fil1" d="M10.28 1.12c-0.03,-0.44 0.27,-0.74 0.68,-0.77 0.41,-0.03 0.75,0.21 0.79,0.65 0.03,0.45 -0.27,0.74 -0.68,0.78 -0.41,0.03 -0.75,-0.21 -0.79,-0.66zm1.82 -0.14c-0.05,-0.62 -0.57,-0.99 -1.17,-0.94 -0.6,0.05 -1.06,0.5 -1.01,1.11 0.05,0.62 0.57,0.99 1.18,0.94 0.6,-0.05 1.05,-0.5 1,-1.11z"/>
  <path id="20" class="fil1" d="M12.89 0.1l-0.18 0.98c-0.11,0.64 0.2,1.06 0.8,1.17 0.6,0.11 1.05,-0.17 1.16,-0.81l0.18 -0.98 -0.35 -0.07 -0.18 0.99c-0.08,0.41 -0.32,0.64 -0.75,0.56 -0.43,-0.08 -0.58,-0.38 -0.5,-0.79l0.18 -0.98 -0.36 -0.07z"/>
  <path id="21" class="fil1" d="M15.66 0.69l-0.82 1.77 0.33 0.16 0.19 -0.42 0.72 0.33c0.41,0.19 0.84,0.07 1.03,-0.34 0.2,-0.42 0.01,-0.83 -0.4,-1.02l-1.05 -0.48zm0.19 0.45l0.71 0.32c0.24,0.11 0.34,0.34 0.23,0.58 -0.11,0.24 -0.34,0.3 -0.59,0.19l-0.7 -0.32 0.35 -0.77z"/>
 </g>
</svg>
