<?xml version="1.0" encoding="UTF-8"?>
<!DOCTYPE svg PUBLIC "-//W3C//DTD SVG 1.1//EN" "http://www.w3.org/Graphics/SVG/1.1/DTD/svg11.dtd">
<!-- Creator: CorelDRAW 2019 (64-Bit) -->
<svg xmlns="http://www.w3.org/2000/svg" xml:space="preserve" width="1250px" height="1458px" version="1.1" style="shape-rendering:geometricPrecision; text-rendering:geometricPrecision; image-rendering:optimizeQuality; fill-rule:evenodd; clip-rule:evenodd"
viewBox="0 0 462.2 539.23"
 xmlns:xlink="http://www.w3.org/1999/xlink"
 xmlns:xodm="http://www.corel.com/coreldraw/odm/2003">
 <defs>
  <style type="text/css">
   <![CDATA[
    .fil3 {fill:none}
    .fil2 {fill:url(#id0)}
    .fil1 {fill:url(#id1)}
    .fil4 {fill:url(#id2)}
    .fil0 {fill:url(#id3)}
   ]]>
  </style>
  <linearGradient id="id0" gradientUnits="userSpaceOnUse" x1="75.58" y1="262.72" x2="459.27" y2="262.72">
   <stop offset="0" style="stop-opacity:1; stop-color:#58B03C"/>
   <stop offset="0.380392" style="stop-opacity:1; stop-color:#169E46"/>
   <stop offset="1" style="stop-opacity:1; stop-color:#205D34"/>
  </linearGradient>
  <linearGradient id="id1" gradientUnits="userSpaceOnUse" xlink:href="#id0" x1="0.09" y1="263.02" x2="459.08" y2="263.02">
  </linearGradient>
  <linearGradient id="id2" gradientUnits="userSpaceOnUse" xlink:href="#id0" x1="86.45" y1="367.08" x2="394.31" y2="367.08">
  </linearGradient>
  <linearGradient id="id3" gradientUnits="userSpaceOnUse" xlink:href="#id0" x1="9.88" y1="370.14" x2="461.46" y2="370.14">
  </linearGradient>
 </defs>
 <g id="Слой_x0020_1">
  <metadata id="CorelCorpID_0Corel-Layer"/>
  <path class="fil0" d="M12.9 539.16l0 -0.01 -0.03 0c-0.21,-0.03 -0.4,-0.08 -0.59,-0.15l0 0 -0.01 0c-0.21,-0.08 -0.42,-0.18 -0.61,-0.31 -0.23,-0.16 -0.43,-0.36 -0.61,-0.61l0 -0.01 -0.01 0c-0.15,-0.22 -0.29,-0.47 -0.39,-0.77 -0.03,-0.07 -0.05,-0.14 -0.06,-0.2l0 -0.11 -0.03 0c-0.07,-0.32 -0.06,-0.63 0.02,-0.92l0.01 0 0 -0.04c0.24,-0.91 1.08,-1.69 2,-2.42l0 0 0 -0.01c0.7,-0.56 1.45,-1.09 2.02,-1.64l1.67 -1.59 0.01 0 0 -0.01 3.22 -3.07 0.01 0 0 -0.01 0.15 -0.15 0.01 0 0 0 2.9 -2.77 0.02 0 0 -0.02 0.14 -0.13 0.02 0 0 -0.01 0.15 -0.15 0 0 0 0 2.91 -2.77 0.02 0 0 -0.01 0.15 -0.14 0 0 0 -0.01 2.91 -2.77 0.02 0 0 -0.01 0.15 -0.14 0 0 0 -0.01 3.08 -2.92 0 0 0 0 3.08 -2.93 0.01 0 0 0c10.37,-9.85 20.74,-19.72 30.99,-29.69 0.24,-0.23 0.48,-0.45 0.72,-0.66l0.02 0 0 -0.02 0.16 -0.13 0 0 0 0c0.4,-0.34 0.8,-0.64 1.21,-0.93l0.02 0 0 -0.01c0.15,-0.1 0.29,-0.2 0.44,-0.29l0.02 0 0 -0.02c0.35,-0.21 0.7,-0.41 1.05,-0.6l0.03 0 0 -0.02 0.27 -0.13 0.04 0 0 -0.02 0.28 -0.14 0.03 0 0 -0.01c0.5,-0.23 1.01,-0.43 1.52,-0.6l0.02 0 0 -0.01c0.54,-0.18 1.08,-0.33 1.63,-0.46l0.06 0 0 -0.01c0.54,-0.12 1.08,-0.22 1.63,-0.29l0.07 0 0 -0.01c1.68,-0.24 3.43,-0.29 5.25,-0.29l212.51 0.03c58.07,0 104.67,-41.93 111.29,-97.29 3.28,-27.45 2.52,-55.04 2.03,-82.63l0 -0.23 0 0c-0.06,-3.17 -0.11,-6.34 -0.15,-9.51l0 -1.58 -0.02 0c-0.09,-7.19 -0.12,-14.38 -0.01,-21.57l0.03 0 0 -1.86 0.03 -1.54c0.12,-5.49 -3.39,-6.21 -7.84,-6.2 -19.56,0.06 -39.12,0.02 -58.68,0.01 -18.5,0 -37.04,-0.74 -55.49,0.26 -1.88,0.1 -3.68,0.09 -5.43,-0.03l0 -0.04 -0.52 0c-0.44,-0.03 -0.89,-0.07 -1.33,-0.12l0 -0.03 -0.24 0c-0.38,-0.04 -0.77,-0.1 -1.15,-0.15l0 0 -0.01 0c-0.25,-0.04 -0.51,-0.08 -0.76,-0.12l0 -0.04 -0.2 0c-0.19,-0.03 -0.38,-0.06 -0.57,-0.1l0 -0.05 -0.26 0c-0.22,-0.05 -0.44,-0.09 -0.66,-0.14l0 -0.02 -0.09 0c-0.44,-0.09 -0.87,-0.19 -1.3,-0.3l0 0 0 0c-0.36,-0.1 -0.72,-0.19 -1.08,-0.29l0 -0.02 -0.06 0 -0.4 -0.12 0 -0.04 -0.12 0 -0.34 -0.1 0 -0.05 -0.15 0 -0.47 -0.15 0 0 0 0c-0.57,-0.19 -1.13,-0.4 -1.69,-0.61l0 -0.01 -0.03 0 -0.28 -0.11 0 -0.04 -0.11 0 -0.35 -0.15 0 -0.01 -0.03 0 -0.28 -0.12 0 -0.03 -0.08 0c-0.23,-0.1 -0.46,-0.2 -0.69,-0.3l0 -0.01 -0.02 0c-0.83,-0.37 -1.64,-0.76 -2.45,-1.19l0 -0.04 -0.08 0 -0.22 -0.12 0 -0.04 -0.07 0 -0.24 -0.13 0 -0.02 -0.04 0 -0.27 -0.15 0 -0.01 -0.01 0c-0.51,-0.28 -1.02,-0.58 -1.53,-0.89l0 -0.03 -0.05 0c-0.24,-0.15 -0.48,-0.3 -0.72,-0.45l0 -0.01 -0.02 0 -0.44 -0.29 0 -0.02 -0.04 0 -0.43 -0.28 0 -0.03 -0.04 0c-0.65,-0.44 -1.31,-0.89 -1.96,-1.37l0 -0.01 -0.02 0c-0.2,-0.15 -0.4,-0.3 -0.6,-0.45l0 -0.02 -0.02 0c-0.2,-0.14 -0.4,-0.3 -0.59,-0.45l0 -0.01 -0.02 0c-0.32,-0.24 -0.63,-0.49 -0.95,-0.75 -13.27,-10.63 -26.84,-20.91 -40.32,-31.29l0 -0.01 -0.01 0 -1.99 -1.53 0 -0.01 -0.01 0 -2 -1.53 0 -0.01 0 0 -1.38 -1.07 0 0 -0.01 0 -2.68 -2.08c-1.22,-0.94 -3.21,-1.63 -4.09,-2.85l0 0 -0.01 0c-0.05,-0.08 -0.1,-0.16 -0.15,-0.24l0 -0.07 -0.04 0c-0.26,-0.51 -0.34,-1.11 -0.13,-1.85l0.02 0 0 -0.06c0.04,-0.13 0.09,-0.26 0.15,-0.4l0 0 0 -0.01 0.04 -0.09 0 0c0.04,-0.08 0.07,-0.15 0.11,-0.21l0.01 0 0 -0.02c0.09,-0.16 0.18,-0.31 0.29,-0.44l0.02 0 0 -0.03c0.13,-0.17 0.27,-0.31 0.43,-0.44l0.03 0 0 -0.02c0.13,-0.11 0.28,-0.2 0.43,-0.28l0.03 0 0 -0.02c0.1,-0.05 0.2,-0.1 0.3,-0.14l0.01 0 0 0c0.45,-0.18 0.95,-0.27 1.47,-0.31l0.22 0 0 -0.01 0.26 -0.01 0.33 0 0.03 0 0.31 0.01 0 0.01 0.26 0c0.33,0.02 0.66,0.04 0.98,0.07 0.59,0.04 1.17,0.09 1.7,0.08 20.95,-0.05 41.91,-0.05 62.86,-0.04 5.48,0 10.96,0 16.44,0 54.19,-0.01 108.37,-0.02 162.56,-0.01 1.55,0.01 2.88,0.01 4.01,0.05l0 0.01 0.12 0c0.77,0.03 1.44,0.08 2.04,0.15l0 0 0.01 0c0.58,0.07 1.09,0.17 1.53,0.31l0 0 0 0c0.28,0.08 0.54,0.18 0.77,0.3l0 0.01 0.01 0c1.17,0.59 1.73,1.61 1.99,3.36l0 0.03 0.01 0c0.22,1.48 0.24,3.48 0.24,6.19 0.01,33.78 0.11,67.56 0.11,101.35l-0.05 0 0 32.43c-0.02,7.73 -0.05,15.45 -0.09,23.18l-0.06 0 0 10.11 -0.05 6.48c0,0.84 -0.02,1.68 -0.05,2.52l-0.06 0 0 1.59c-0.03,0.65 -0.06,1.3 -0.1,1.95l-0.05 0 0 0.76c-0.04,0.62 -0.09,1.24 -0.14,1.86l-0.01 0 0 0.13c-0.04,0.42 -0.08,0.84 -0.12,1.26l-0.04 0 0 0.39c-0.03,0.33 -0.07,0.66 -0.1,0.99l-0.05 0 0 0.46 -0.09 0.78 -0.07 0 0 0.52 -0.11 0.86 -0.04 0 0 0.32c-0.05,0.36 -0.1,0.71 -0.15,1.07l0 0 0 0.04c-0.05,0.35 -0.11,0.69 -0.16,1.04l0 0 0 0 -0.12 0.77 -0.03 0 0 0.22 -0.12 0.7 -0.04 0 0 0.23 -0.12 0.7 -0.03 0 0 0.19 -0.1 0.58 -0.05 0 0 0.28 -0.12 0.64 -0.04 0 0 0.18 -0.11 0.59 -0.04 0 0 0.21 -0.15 0.72 -0.01 0 0 0.05 -0.15 0.72 0 0 0 0.02c-0.1,0.45 -0.19,0.91 -0.29,1.36l-0.02 0 0 0.08 -0.12 0.54 -0.03 0 0 0.14 -0.11 0.47 -0.05 0 0 0.2 -0.13 0.58 -0.02 0 0 0.08 -0.13 0.53 -0.03 0 0 0.11 -0.12 0.51 -0.03 0 0 0.12 -0.12 0.49 -0.03 0 0 0.12 -0.13 0.5 -0.03 0 0 0.11 -0.13 0.51 -0.02 0 0 0.08 -0.14 0.53 -0.02 0 0 0.06 -0.15 0.56 0 0 0 0c-0.1,0.36 -0.2,0.72 -0.3,1.08l-0.01 0 0 0.04c-0.09,0.35 -0.19,0.69 -0.29,1.04l-0.02 0 0 0.05 -0.12 0.41 -0.03 0 0 0.12 -0.15 0.49 0 0 0 0.03 -0.13 0.44 -0.03 0 0 0.07 -0.11 0.39 -0.04 0 0 0.13 -0.11 0.33 -0.05 0 0 0.17 -0.14 0.45 -0.01 0 0 0.04 -0.13 0.42 -0.02 0 0 0.07 -0.13 0.39 -0.03 0 0 0.1c-0.38,1.2 -0.78,2.4 -1.2,3.6l-0.03 0 0 0.1 -0.13 0.36 -0.03 0 0 0.08 -0.13 0.38 -0.02 0 0 0.06 -0.15 0.41 0 0 0 0.02 -0.27 0.75 -0.04 0 0 0.11 -0.13 0.35 -0.03 0 0 0.07 -0.14 0.39 -0.01 0 0 0.03 -0.28 0.74 -0.03 0 0 0.09 -0.14 0.37 -0.01 0 0 0.04c-0.25,0.65 -0.5,1.31 -0.76,1.97l-0.01 0 0 0.03 -0.29 0.74 -0.02 0 0 0.04 -0.29 0.73 -0.02 0 0 0.04 -0.29 0.73 -0.02 0 0 0.03 -0.11 0.28 -0.04 0 0 0.09 -0.15 0.37 0 0 0 0.01 -0.13 0.3 -0.03 0 0 0.07 -0.29 0.7 -0.02 0 0 0.04 -0.3 0.73 0 0 0 0 -0.14 0.3 -0.02 0 0 0.06 -0.31 0.71 0 0 0 0.01c-0.2,0.46 -0.4,0.92 -0.6,1.38l-0.01 0 0 0.03c-0.2,0.45 -0.41,0.9 -0.61,1.36l-0.01 0 0 0.02 -0.13 0.29 -0.02 0 0 0.05 -0.12 0.25 -0.04 0 0 0.09 -0.45 0.99 -0.01 0 0 0.02 -0.14 0.29 -0.01 0 0 0.04 -0.13 0.27 -0.03 0 0 0.06c-0.25,0.55 -0.51,1.09 -0.77,1.63l0 0 0 0.01 -0.14 0.3 -0.01 0 0 0.02 -0.46 0.95c-1.09,2.27 -2.22,4.51 -3.39,6.74l0 0 0 0c-0.3,0.57 -0.6,1.13 -0.9,1.69l-0.03 0 0 0.05 -0.14 0.26 -0.01 0 0 0.02 -0.15 0.29 -0.01 0 0 0c-0.19,0.36 -0.39,0.72 -0.58,1.07l-0.03 0 0 0.06 -0.14 0.25 -0.02 0 0 0.03c-0.25,0.45 -0.5,0.91 -0.76,1.36l-0.01 0 0 0.02c-0.4,0.71 -0.81,1.43 -1.22,2.14l-0.01 0 0 0.01 -0.44 0.76 -0.02 0 0 0.03 -0.44 0.74 -0.02 0 0 0.04 -0.44 0.73 -0.03 0 0 0.04 -0.44 0.73 -0.02 0 0 0.03 -0.45 0.74 -0.01 0 0 0.02c-0.51,0.82 -1.02,1.63 -1.54,2.44l0 0 0 0.01 -0.3 0.45 -0.01 0 0 0.03 -0.29 0.44 -0.02 0 0 0.03 -0.28 0.43 -0.03 0 0 0.04 -0.27 0.42 -0.03 0 0 0.05 -0.28 0.41 -0.03 0 0 0.05 -0.28 0.42 -0.03 0 0 0.05 -0.28 0.41 -0.03 0 0 0.04 -0.28 0.42 -0.03 0 0 0.04 -0.29 0.42 -0.01 0 0 0.03 -0.31 0.43 0 0 0 0.01c-0.36,0.52 -0.72,1.03 -1.08,1.54l0 0 0 0 -0.44 0.61 -0.02 0 0 0.04 -0.31 0.42 0 0 0 0 -0.11 0.16 -0.05 0 0 0.06 -0.29 0.4 -0.01 0 0 0.02 -0.1 0.13 -0.06 0 0 0.08 -0.28 0.39 -0.03 0 0 0.02 -0.43 0.59 -0.03 0 0 0.03 -0.44 0.59 -0.02 0 0 0.03 -0.45 0.59 -0.01 0 0 0.01c-0.35,0.46 -0.71,0.92 -1.06,1.37l-0.02 0 0 0.02 -0.6 0.75 -0.02 0 0 0.03 -0.1 0.13 -0.05 0 0 0.06 -0.45 0.55 -0.01 0 0 0.02 -0.11 0.14 -0.05 0 0 0.05 -0.46 0.56 0 0 0 0.01 -0.12 0.15 -0.03 0 0 0.04 -0.1 0.11 -0.06 0 0 0.07 -0.45 0.55 -0.01 0 0 0.01 -0.12 0.14 -0.03 0 0 0.04c-0.25,0.3 -0.5,0.59 -0.76,0.89l-0.01 0 0 0.01c-0.31,0.36 -0.61,0.71 -0.92,1.06l-0.01 0 0 0.01 -0.13 0.15 -0.02 0 0 0.03c-0.36,0.4 -0.72,0.8 -1.08,1.2l0 0 0 0.01 -0.13 0.14 -0.03 0 0 0.03 -0.11 0.13 -0.04 0 0 0.04 -0.11 0.11 -0.04 0 0 0.06 -0.1 0.1 -0.06 0 0 0.06c-0.4,0.45 -0.81,0.89 -1.22,1.32l-0.01 0 0 0.01 -0.14 0.15 -0.01 0 0 0.01 -0.13 0.14 -0.03 0 0 0.03 -0.12 0.13 -0.03 0 0 0.03 -0.12 0.12 -0.04 0 0 0.04c-0.93,0.98 -1.88,1.94 -2.85,2.89l-0.07 0 0 0.07 -0.09 0.08 -0.07 0 0 0.07 -0.09 0.09 -0.06 0 0 0.06 -0.1 0.09 -0.06 0 0 0.06 -0.1 0.09 -0.05 0 0 0.06 -0.11 0.1 -0.04 0 0 0.04 -0.12 0.11 -0.04 0 0 0.04 -0.12 0.12 -0.03 0 0 0.03 -0.13 0.12 -0.03 0 0 0.03 -0.13 0.12 -0.02 0 0 0.02 -0.15 0.14 0 0 0 0.01c-0.55,0.52 -1.11,1.03 -1.67,1.54l-0.33 0.3 -0.01 0 0 0c-0.4,0.36 -0.8,0.72 -1.2,1.07l-0.03 0 0 0.03 -0.14 0.13 -0.01 0 0 0.01c-0.35,0.31 -0.69,0.61 -1.04,0.91l-0.04 0 0 0.04 -0.14 0.12 -0.02 0 0 0.01c-0.41,0.36 -0.82,0.71 -1.23,1.07l0 0 0 0c-0.6,0.51 -1.21,1.03 -1.82,1.54l-0.03 0 0 0.02c-0.3,0.25 -0.6,0.5 -0.9,0.75l-0.02 0 0 0.02 -0.73 0.59 -0.04 0 0 0.04 -0.15 0.12 -0.01 0 0 0 -0.75 0.61 -0.02 0 0 0.02 -0.75 0.6 -0.02 0 0 0.01c-0.71,0.57 -1.43,1.13 -2.15,1.68l0 0 0 0.01 -0.6 0.46 -0.02 0 0 0.01 -0.58 0.45 -0.04 0 0 0.02 -0.58 0.44 -0.03 0 0 0.03c-1.17,0.88 -2.35,1.74 -3.54,2.59l-0.01 0 0 0 -0.42 0.31 -0.04 0 0 0.02c-0.35,0.25 -0.7,0.5 -1.06,0.75l-0.02 0 0 0.01 -0.42 0.3 -0.04 0 0 0.02c-0.66,0.46 -1.32,0.92 -1.99,1.36l-0.01 0 0 0.01 -0.45 0.3 -0.01 0 0 0.01 -0.45 0.3 -0.02 0 0 0.01 -0.44 0.3 -0.02 0 0 0.01 -0.45 0.3 -0.01 0 0 0 -0.46 0.3 0 0 0 0c-0.4,0.26 -0.8,0.52 -1.2,0.77l-0.04 0 0 0.03 -0.44 0.28 -0.02 0 0 0.01c-0.81,0.52 -1.63,1.03 -2.45,1.53l-0.01 0 0 0.01 -0.75 0.46 -0.02 0 0 0.01 -0.75 0.45 -0.02 0 0 0.01 -0.76 0.45 -0.01 0 0 0.01c-0.97,0.57 -1.94,1.13 -2.92,1.68l-0.01 0 0 0.01 -0.27 0.15 -0.04 0 0 0.02c-0.35,0.2 -0.71,0.4 -1.06,0.6l-0.02 0 0 0 -0.26 0.15 -0.05 0 0 0.02c-0.45,0.25 -0.91,0.5 -1.37,0.75l-0.01 0 0 0.01 -0.28 0.14 -0.03 0 0 0.02c-0.77,0.41 -1.54,0.82 -2.31,1.22l0 0 0 0 -0.3 0.15 -0.01 0 0 0 -0.29 0.15 -0.02 0 0 0.01 -0.29 0.15 -0.02 0 0 0.01 -0.28 0.14 -0.02 0 0 0.02 -0.28 0.14 -0.03 0 0 0.01 -0.28 0.14 -0.03 0 0 0.01 -0.28 0.14 -0.03 0 0 0.02 -0.28 0.14 -0.03 0 0 0.01 -0.28 0.14 -0.02 0 0 0.01 -0.29 0.15 -0.02 0 0 0.01 -0.3 0.14 -0.01 0 0 0.01 -0.31 0.14 0 0 0 0.01c-0.75,0.36 -1.5,0.72 -2.26,1.07l-0.05 0 0 0.03 -0.28 0.13 -0.03 0 0 0.01 -0.31 0.14 0 0 0 0c-0.44,0.21 -0.89,0.41 -1.34,0.62l-0.04 0 0 0.01 -0.31 0.14 0 0 0 0c-0.46,0.21 -0.92,0.42 -1.39,0.62l0 0 0 0c-0.35,0.15 -0.71,0.31 -1.06,0.46l-0.02 0 0 0.01c-0.35,0.15 -0.71,0.3 -1.06,0.45l-0.01 0 0 0.01 -0.73 0.3 -0.04 0 0 0.02 -0.7 0.29 -0.08 0 0 0.03 -0.3 0.12 0 0 0 0 -0.76 0.31 -0.01 0 0 0.01 -0.76 0.3 -0.01 0 0 0 -0.77 0.31 0 0 0 0c-0.4,0.15 -0.8,0.31 -1.2,0.46l-0.04 0 0 0.01c-0.39,0.16 -0.78,0.3 -1.18,0.45l-0.05 0 0 0.02c-0.4,0.15 -0.8,0.3 -1.2,0.44l-0.03 0 0 0.02 -0.39 0.14 -0.07 0 0 0.02c-0.41,0.15 -0.82,0.3 -1.22,0.44l-0.02 0 0 0c-1.34,0.48 -2.7,0.94 -4.07,1.39l-0.09 0 0 0.03 -0.38 0.12 -0.08 0 0 0.02 -0.4 0.13 -0.06 0 0 0.02 -0.42 0.14 -0.04 0 0 0.01 -0.46 0.14 -0.01 0 0 0.01c-1.01,0.31 -2.02,0.62 -3.04,0.92l-0.04 0 0 0.01c-0.34,0.1 -0.68,0.2 -1.02,0.3l-0.05 0 0 0.01 -1.04 0.29 -0.04 0 0 0.02 -1.08 0.29 0 0 0 0c-0.97,0.27 -1.94,0.52 -2.92,0.77l-0.01 0 0 0 -0.6 0.16 -0.02 0 0 0 -0.6 0.15 -0.01 0 0 0c-1.07,0.27 -2.15,0.52 -3.23,0.77l-0.01 0 0 0c-0.45,0.11 -0.91,0.21 -1.37,0.31l-0.01 0 0 0 -0.7 0.15 -0.07 0 0 0.02 -0.65 0.14 -0.12 0 0 0.02c-0.46,0.1 -0.92,0.19 -1.37,0.28l-0.02 0 0 0.01 -0.75 0.15 -0.02 0 0 0 -0.77 0.15 0 0 0 0c-0.54,0.11 -1.09,0.21 -1.63,0.31l-0.07 0 0 0.01c-0.54,0.1 -1.09,0.2 -1.64,0.3l-0.05 0 0 0.01 -0.85 0.14 -0.08 0 0 0.02 -0.83 0.14 -0.09 0 0 0.01c-0.29,0.05 -0.57,0.09 -0.86,0.14l-0.06 0 0 0.01 -0.92 0.15c-2.13,0.33 -16.75,0.58 -38.49,0.77l-0.03 0 0 0c-15,0.13 -33.38,0.23 -53.42,0.3l-0.05 0c-17.26,0.07 -35.74,0.12 -54.34,0.16l-0.2 0 0 0c-77.73,0.15 -157.32,0.08 -157.32,0.08 -0.99,0.11 -2.01,0.23 -2.9,0.08z"/>
  <path class="fil1" d="M2.27 525.76l0 -0.01 -0.06 0c-0.12,-0.03 -0.23,-0.06 -0.35,-0.11 -0.13,-0.05 -0.25,-0.1 -0.36,-0.16l0 -0.04 -0.08 0c-0.08,-0.05 -0.16,-0.09 -0.23,-0.14l0 -0.01 -0.02 0c-0.24,-0.17 -0.44,-0.37 -0.6,-0.59l0 -0.03 -0.02 0c-0.12,-0.16 -0.21,-0.34 -0.29,-0.53l0 -0.09 -0.03 0c-0.56,-1.54 0.09,-3.7 0.09,-5.37 -0.06,-78.35 -0.04,-156.7 -0.04,-235.05 0,-26.99 0.33,-53.97 -0.07,-80.95 -0.04,-2.85 -0.02,-5.67 0.05,-8.48l0 0 0 -0.37c0.03,-1.11 0.07,-2.22 0.12,-3.33l0.04 0 0 -0.92c0.03,-0.77 0.07,-1.54 0.12,-2.31l0.03 0 0 -0.59c0.08,-1.35 0.18,-2.69 0.28,-4.04l0.03 0 0 -0.3c0.04,-0.47 0.08,-0.93 0.12,-1.39l0.03 0 0 -0.41c0.04,-0.43 0.08,-0.86 0.13,-1.29l0.03 0 0 -0.32c0.04,-0.46 0.09,-0.91 0.14,-1.37l0.01 0 0 -0.13c0.1,-0.88 0.2,-1.76 0.3,-2.64l0.01 0 0 -0.08c0.04,-0.34 0.08,-0.67 0.12,-1l0.03 0 0 -0.26c0.04,-0.33 0.09,-0.65 0.13,-0.97l0.03 0 0 -0.21 0.11 -0.87 0.04 0 0 -0.27 0.12 -0.81 0.04 0 0 -0.28 0.14 -0.95 0.01 0 0 -0.09 0.15 -0.99 0 0 0 -0.02c0.1,-0.61 0.2,-1.22 0.3,-1.83l0.01 0 0 -0.09c0.05,-0.28 0.09,-0.56 0.14,-0.84l0.02 0 0 -0.09 0.11 -0.68 0.04 0 0 -0.2 0.13 -0.72 0.02 0 0 -0.16 0.12 -0.61 0.04 0 0 -0.22 0.13 -0.71 0.02 0 0 -0.12c0.04,-0.21 0.08,-0.43 0.12,-0.65l0.04 0 0 -0.16c0.05,-0.26 0.1,-0.51 0.15,-0.76l0 0 0 -0.02 0.15 -0.75 0 0 0 -0.02 0.16 -0.75 0 0 0 -0.01c0.09,-0.46 0.19,-0.92 0.29,-1.38l0.02 0 0 -0.08 0.15 -0.69 0 0 0 -0.02 0.13 -0.59 0.03 0 0 -0.11 0.11 -0.51 0.04 0 0 -0.18 0.13 -0.59 0.02 0 0 -0.08 0.13 -0.54 0.03 0 0 -0.12 0.11 -0.49 0.04 0 0 -0.17 0.14 -0.6 0.02 0 0 -0.05 0.14 -0.57 0.01 0 0 -0.05c0.2,-0.81 0.4,-1.61 0.61,-2.41l0.01 0 0 -0.03 0.15 -0.59 0 0 0 -0.01 0.12 -0.45 0.03 0 0 -0.13 0.14 -0.49 0.02 0 0 -0.08 0.14 -0.54 0.01 0 0 -0.03 0.12 -0.43 0.04 0 0 -0.14 0.13 -0.47 0.02 0 0 -0.08 0.11 -0.39 0.04 0 0 -0.15 0.13 -0.46 0.03 0 0 -0.09 0.15 -0.53 0 0 0 -0.01 0.13 -0.45 0.03 0 0 -0.07c0.25,-0.85 0.5,-1.7 0.76,-2.55l0.01 0 0 -0.02 0.13 -0.44 0.02 0 0 -0.06 0.13 -0.4 0.02 0 0 -0.1 0.12 -0.37 0.04 0 0 -0.11 0.11 -0.35 0.04 0 0 -0.13c0.1,-0.32 0.2,-0.63 0.31,-0.95l0 0 0 -0.01 0.15 -0.45 0 0 0 -0.02 0.15 -0.44 0.01 0 0 -0.02 0.15 -0.44 0 0 0 -0.02 0.15 -0.45 0.01 0 0 -0.02 0.15 -0.44 0 0 0 -0.01c0.3,-0.87 0.6,-1.74 0.91,-2.61l0.02 0 0 -0.03 0.15 -0.43 0 0 0 0c0.09,-0.26 0.18,-0.52 0.27,-0.77l0.04 0 0 -0.09 0.14 -0.37 0.01 0 0 -0.04 0.27 -0.73 0.04 0 0 -0.1 0.13 -0.36 0.02 0 0 -0.06 0.16 -0.41 0 0 0.12 -0.31 0.03 0 0 -0.09 0.14 -0.37 0.02 0 0 -0.03 0.28 -0.74 0.02 0 0 -0.06c0.16,-0.39 0.31,-0.78 0.47,-1.17l0 0 0 0 0.3 -0.77 0 0 0 -0.01c0.25,-0.61 0.5,-1.23 0.76,-1.84l0.02 0 0 -0.04 0.3 -0.73 0 0 0 -0.01 0.13 -0.3 0.03 0 0 -0.06 0.3 -0.71 0.01 0 0 -0.02 0.12 -0.29 0.03 0 0 -0.07 0.3 -0.7 0.01 0 0 -0.01 0.13 -0.29 0.02 0 0 -0.06 0.11 -0.25 0.05 0 0 -0.1c0.09,-0.23 0.19,-0.45 0.29,-0.67l0.01 0 0 -0.04 0.13 -0.27 0.03 0 0 -0.07c0.15,-0.34 0.3,-0.67 0.45,-1.01l0.01 0 0 -0.01c0.3,-0.67 0.61,-1.33 0.92,-1.99l0 0 0 -0.02 0.14 -0.29 0.02 0 0 -0.04 0.12 -0.27 0.03 0 0 -0.06 0.12 -0.25 0.04 0 0 -0.07 0.11 -0.24 0.04 0 0 -0.08c0.41,-0.85 0.81,-1.69 1.23,-2.53l0 0 0 -0.01 0.15 -0.3 0.01 0 0 -0.01 0.15 -0.3 0 0 0 -0.01 0.15 -0.3 0.01 0 0 -0.01 0.15 -0.3 0 0 0 0c0.49,-0.98 0.99,-1.95 1.5,-2.92l0.04 0 0 -0.07 0.13 -0.24 0.02 0 0 -0.05 0.14 -0.26 0.02 0 0 -0.03 0.15 -0.28 0 0 0 -0.01c0.19,-0.36 0.38,-0.71 0.57,-1.07l0.05 0 0 -0.08 0.12 -0.23 0.03 0 0 -0.06 0.14 -0.24 0.02 0 0 -0.04 0.15 -0.27 0 0 0 -0.01 0.42 -0.76 0.04 0 0 -0.08 0.13 -0.23 0.03 0 0 -0.05 0.14 -0.26 0.01 0 0 -0.01c0.6,-1.08 1.22,-2.15 1.84,-3.22l0.01 0 0 -0.02 0.44 -0.75 0.02 0 0 -0.04 0.44 -0.73 0.02 0 0 -0.05 0.44 -0.72 0.03 0 0 -0.05 0.44 -0.72 0.02 0 0 -0.04c0.15,-0.25 0.3,-0.49 0.45,-0.74l0.01 0 0 -0.02 0.46 -0.75 0 0 0 0c0.61,-0.97 1.22,-1.95 1.85,-2.92l0 0 0 0 0.3 -0.46 0.01 0 0 -0.02 0.29 -0.45 0.02 0 0 -0.02 0.28 -0.44 0.03 0 0 -0.03 0.28 -0.43 0.02 0 0 -0.05 0.28 -0.41 0.03 0 0 -0.05 0.28 -0.42 0.03 0 0 -0.04 0.28 -0.42 0.03 0 0 -0.04 0.28 -0.42 0.03 0 0 -0.04 0.28 -0.42 0.03 0 0 -0.04 0.29 -0.42 0.01 0 0 -0.03 0.3 -0.44 0.01 0 0 -0.01c0.35,-0.51 0.71,-1.02 1.06,-1.53l0.02 0 0 -0.02 0.31 -0.44 0 0 0 0 0.43 -0.62 0.03 0 0 -0.04 0.3 -0.42 0.01 0 0 -0.01 0.1 -0.14 0.05 0 0 -0.07 0.28 -0.39 0.03 0 0 -0.04 0.3 -0.43 0.01 0 0 0 0.11 -0.15 0.04 0 0 -0.07 0.29 -0.39 0.02 0 0 -0.03 0.43 -0.59 0.03 0 0 -0.04 0.42 -0.58 0.05 0 0 -0.05 0.3 -0.41 0 0 0 0 0.46 -0.61 0.01 0 0 -0.01c0.3,-0.41 0.61,-0.82 0.92,-1.23l0 0 0 0 0.59 -0.77 0.03 0 0 -0.04 0.44 -0.57 0.02 0 0 -0.03 0.46 -0.59 0 0 0 0 0.12 -0.15 0.03 0 0 -0.05 0.45 -0.57 0.02 0 0 -0.02 0.1 -0.13 0.05 0 0 -0.07 0.44 -0.55 0.02 0 0 -0.03 0.59 -0.74 0.03 0 0 -0.03 0.59 -0.74 0.03 0 0 -0.03 0.6 -0.74 0.01 0 0 -0.02c0.18,-0.22 0.36,-0.44 0.54,-0.66 0.28,-0.34 0.56,-0.68 0.84,-1.02l0.01 0 0 0 0.12 -0.15 0.03 0 0 -0.04c0.21,-0.24 0.41,-0.49 0.61,-0.73l0.01 0 0 -0.01 0.12 -0.14 0.03 0 0 -0.04 0.1 -0.12 0.06 0 0 -0.06 0.6 -0.71 0.01 0 0 -0.02 0.12 -0.13 0.04 0 0 -0.05 0.09 -0.11 0.06 0 0 -0.07c0.2,-0.23 0.4,-0.47 0.6,-0.7l0.02 0 0 -0.02 0.11 -0.13 0.04 0 0 -0.05 0.1 -0.1 0.06 0 0 -0.07 0.61 -0.71 0 0 0 0 0.13 -0.15 0.03 0 0 -0.03 0.11 -0.12 0.04 0 0 -0.05c0.3,-0.35 0.61,-0.69 0.91,-1.03l0.01 0 0 -0.02 0.13 -0.14 0.03 0 0 -0.03c0.36,-0.4 0.72,-0.8 1.08,-1.2l0 0 0 0c0.56,-0.62 1.12,-1.24 1.69,-1.85l0 0 0 0 0.15 -0.15 0.01 0 0 -0.01 0.13 -0.15 0.02 0 0 -0.02 0.12 -0.13 0.03 0 0 -0.03 0.12 -0.12 0.04 0 0 -0.05 0.1 -0.11 0.05 0 0 -0.05 0.1 -0.1 0.06 0 0 -0.06 0.08 -0.1 0.07 0 0 -0.07 0.08 -0.08 0.07 0 0 -0.08c0.52,-0.54 1.03,-1.08 1.54,-1.61l0.01 0 0 -0.01 0.14 -0.15 0.01 0 0 -0.01 0.14 -0.14 0.01 0 0 -0.02 0.14 -0.14 0.02 0 0 -0.02 0.13 -0.13 0.02 0 0 -0.02 0.13 -0.13 0.03 0 0 -0.03 0.12 -0.13 0.03 0 0 -0.03 0.12 -0.12 0.03 0 0 -0.03 0.12 -0.13 0.04 0 0 -0.03c0.7,-0.71 1.4,-1.42 2.11,-2.12l0.04 0 0 -0.04 0.12 -0.12 0.04 0 0 -0.04 0.11 -0.11 0.04 0 0 -0.04 0.12 -0.12 0.04 0 0 -0.03 0.12 -0.12 0.03 0 0 -0.03 0.12 -0.12 0.04 0 0 -0.03 0.12 -0.13 0.03 0 0 -0.02 0.13 -0.13 0.02 0 0 -0.02 0.14 -0.14 0.02 0 0 -0.01 0.14 -0.14 0.01 0 0 -0.01 0.15 -0.14 0.01 0 0 -0.01 0.15 -0.15 0 0 0 0c0.59,-0.57 1.18,-1.13 1.78,-1.69l0.07 0 0 -0.07 0.09 -0.09 0.06 0 0 -0.06 0.1 -0.09 0.06 0 0 -0.05 0.11 -0.11 0.04 0 0 -0.04 0.12 -0.11 0.03 0 0 -0.03 0.14 -0.12 0.02 0 0 -0.02 0.14 -0.14 0.01 0 0 -0.01c0.61,-0.56 1.23,-1.12 1.84,-1.68l0.01 0 0 -0.01c0.4,-0.36 0.79,-0.72 1.19,-1.07l0.04 0 0 -0.04 0.13 -0.12 0.03 0 0 -0.02 0.15 -0.13 0 0 0 0c0.23,-0.21 0.47,-0.41 0.7,-0.62l0.07 0 0 -0.06 0.1 -0.09 0.06 0 0 -0.05 0.12 -0.1 0.03 0 0 -0.03 0.15 -0.13 0 0 0 -0.01 0.7 -0.6 0.08 0 0 -0.06 0.1 -0.1 0.05 0 0 -0.04 0.13 -0.11 0.02 0 0 -0.02 0.7 -0.6 0.07 0 0 -0.06 0.11 -0.09 0.05 0 0 -0.04 0.13 -0.12 0.02 0 0 -0.01c0.3,-0.25 0.6,-0.5 0.9,-0.76l0.03 0 0 -0.01c0.61,-0.52 1.22,-1.02 1.84,-1.53l0 0 0 0 0.57 -0.46 0.05 0 0 -0.04 0.14 -0.11 0.01 0 0 -0.02 0.56 -0.45 0.06 0 0 -0.04 0.14 -0.11 0.02 0 0 -0.01 0.56 -0.45 0.05 0 0 -0.04 0.14 -0.12 0.02 0 0 -0.01 0.37 -0.29 0.09 0 0 -0.07 0.11 -0.09 0.04 0 0 -0.03 0.15 -0.12 0.01 0 0 0 0.39 -0.31 0.07 0 0 -0.05 0.13 -0.1 0.02 0 0 -0.02 0.38 -0.29 0.08 0 0 -0.07 0.12 -0.09 0.04 0 0 -0.03c0.19,-0.14 0.37,-0.29 0.56,-0.43l0.05 0 0 -0.04 0.15 -0.11 0.01 0 0 -0.01 0.61 -0.46 0 0 0 0 0.61 -0.46 0.01 0 0 0c0.55,-0.42 1.1,-0.82 1.66,-1.23l0.04 0 0 -0.03 0.59 -0.43 0.02 0 0 -0.02 0.41 -0.29 0.05 0 0 -0.04 0.38 -0.27 0.09 0 0 -0.06 0.12 -0.09 0.03 0 0 -0.02 0.41 -0.29 0.05 0 0 -0.04 0.38 -0.27 0.09 0 0 -0.06 0.12 -0.09 0.03 0 0 -0.02 0.42 -0.29 0.04 0 0 -0.03 0.4 -0.28 0.06 0 0 -0.04 0.38 -0.27 0.09 0 0 -0.05 0.14 -0.1 0.01 0 0 -0.01 0.43 -0.3 0.03 0 0 -0.02 0.43 -0.29 0.03 0 0 -0.02c0.91,-0.62 1.82,-1.23 2.73,-1.83l0.05 0 0 -0.02 0.42 -0.28 0.04 0 0 -0.03 0.44 -0.28 0.02 0 0 -0.02 0.46 -0.29 0 0 0 0 0.24 -0.15 0.07 0 0 -0.05 0.41 -0.26 0.05 0 0 -0.04 0.43 -0.27 0.04 0 0 -0.02 0.21 -0.14 0.09 0 0 -0.06 0.15 -0.09 0.01 0 0 0 0.24 -0.15 0.07 0 0 -0.04 0.43 -0.27 0.03 0 0 -0.02 0.46 -0.29 0 0 0 0 0.25 -0.15 0.06 0 0 -0.04 0.44 -0.27 0.02 0 0 -0.01 0.75 -0.45 0.02 0 0 -0.02c0.51,-0.3 1.01,-0.61 1.52,-0.91l0.02 0 0 -0.01 0.77 -0.45 0 0 0 0 0.26 -0.15 0.05 0 0 -0.04 0.74 -0.43 0.03 0 0 -0.01 0.24 -0.14 0.07 0 0 -0.04 0.2 -0.12 0.11 0 0 -0.05 0.43 -0.25 0.03 0 0 -0.02 0.24 -0.14 0.07 0 0 -0.04 0.2 -0.11 0.11 0 0 -0.06 0.44 -0.25 0.02 0 0 -0.01 0.26 -0.14 0.05 0 0 -0.03 0.23 -0.13 0.07 0 0 -0.04c0.26,-0.14 0.51,-0.28 0.76,-0.42l0.01 0 0 -0.01 0.27 -0.14 0.04 0 0 -0.03 0.25 -0.13 0.06 0 0 -0.03c0.36,-0.2 0.72,-0.39 1.08,-0.58l0 0c1.17,-0.63 2.35,-1.25 3.54,-1.85l0 0 0 0 0.3 -0.16 0.01 0 0 0 0.3 -0.15 0.01 0 0 -0.01 0.29 -0.14 0.02 0 0 -0.01 0.28 -0.15 0.03 0 0 -0.01 0.28 -0.14 0.02 0 0 -0.01 0.3 -0.15 0.01 0 0 0 0.3 -0.15 0.01 0 0 -0.01 0.3 -0.15 0.01 0 0 0 0.31 -0.15 0 0c1.06,-0.52 2.14,-1.04 3.22,-1.54l0.01 0 0 -0.01c0.44,-0.2 0.88,-0.4 1.32,-0.61l0.07 0 0 -0.03 0.26 -0.12 0.05 0 0 -0.02 0.29 -0.13 0.01 0 0 -0.01 0.68 -0.3 0.1 0 0 -0.04 0.25 -0.12 0.05 0 0 -0.02 0.29 -0.13 0.02 0 0 -0.01 0.33 -0.14 0.13 0 0 -0.07 0.21 -0.09 0.1 0 0 -0.04 0.26 -0.11 0.05 0 0 -0.02 0.31 -0.14 0 0 0 0 0.35 -0.15 0.11 0 0 -0.05 0.25 -0.1 0.06 0 0 -0.03 0.29 -0.13 0.02 0 0 0 0.71 -0.31 0.06 0 0 -0.02c0.34,-0.15 0.69,-0.29 1.04,-0.44l0.04 0 0 -0.01c0.61,-0.26 1.22,-0.51 1.84,-0.76l0 0 0 0 0.76 -0.31 0.01 0 0 0 0.38 -0.15 0.09 0 0 -0.04 0.3 -0.12 0 0 0 0 0.4 -0.15 0.07 0 0 -0.03 0.32 -0.12 0.14 0 0 -0.06 0.25 -0.1 0.06 0 0 -0.02 0.34 -0.13 0.12 0 0 -0.05 0.28 -0.11 0.03 0 0 -0.01 0.38 -0.14 0.08 0 0 -0.03 0.33 -0.12 0.13 0 0 -0.06 0.27 -0.1 0.04 0 0 -0.01 0.37 -0.14 0.09 0 0 -0.04 0.75 -0.27 0.02 0 0 -0.01 0.4 -0.14 0.06 0 0 -0.03c1.28,-0.46 2.56,-0.92 3.85,-1.36l0.01 0 0 0 0.45 -0.16 0.01 0 0 0 0.44 -0.15 0.02 0 0 -0.01 0.44 -0.14 0.02 0 0 -0.01 0.44 -0.15 0.02 0 0 -0.01 0.44 -0.14 0.03 0 0 -0.01 0.44 -0.15 0.02 0 0 0 0.46 -0.15 0.16 0 0 -0.05 0.31 -0.1 0.15 0 0 -0.05 0.33 -0.11 0.13 0 0 -0.04 0.35 -0.11 0.11 0 0 -0.04 0.39 -0.12 0.07 0 0 -0.02 0.42 -0.13 0.05 0 0 -0.01 0.44 -0.14 0.02 0 0 -0.01c0.5,-0.15 1,-0.31 1.5,-0.46l0.04 0 0 -0.01 0.99 -0.29 0.09 0 0 -0.03 0.43 -0.13 0.03 0 0 -0.01 0.51 -0.14 0.11 0 0 -0.03 0.42 -0.13 0.04 0 0 -0.01 0.5 -0.14 0.11 0 0 -0.03 0.43 -0.12 0.19 0 0 -0.06 0.36 -0.1 0.1 0 0 -0.03 0.46 -0.12 0.16 0 0 -0.05 0.4 -0.11 0.06 0 0 -0.01 0.5 -0.14 0.12 0 0 -0.03 0.46 -0.13 0 0 0 0 0.59 -0.15 0.03 0 0 -0.01c1.19,-0.31 2.38,-0.62 3.58,-0.91l0.11 0 0 -0.03 0.52 -0.13 0.1 0 0 -0.02 0.54 -0.13 0.08 0 0 -0.02 0.57 -0.14 0.2 0 0 -0.04 0.44 -0.11 0.17 0 0 -0.04 0.5 -0.11 0.12 0 0 -0.03 0.56 -0.13 0.06 0 0 -0.01 0.61 -0.14 0.16 0 0 -0.04 0.53 -0.12 0.08 0 0 -0.01c0.45,-0.1 0.89,-0.2 1.34,-0.29l0.05 0 0 -0.01c0.97,-0.21 1.94,-0.41 2.91,-0.61l0.17 0 0 -0.04 0.6 -0.11 0.17 0 0 -0.04 0.62 -0.12 0.15 0 0 -0.03 0.65 -0.12 0.12 0 0 -0.03 0.69 -0.13 0.24 0 0 -0.04 0.6 -0.11 0.17 0 0 -0.03 0.67 -0.13 0.1 0 0 -0.01 0.76 -0.14 0.16 0 0 -0.03 0.74 -0.12 0.03 0 0 -0.01c0.6,-0.1 1.19,-0.2 1.79,-0.3l0.06 0 0 -0.01 0.89 -0.15 0.03 0 0 0c0.31,-0.05 0.62,-0.1 0.93,-0.15l0.15 0 0 -0.02c0.29,-0.05 0.58,-0.09 0.86,-0.13l0.22 0 0 -0.04 0.8 -0.12 0.28 0 0 -0.04 0.78 -0.11 0.3 0 0 -0.04 0.79 -0.12 0.29 0 0 -0.04 0.82 -0.11 0.1 0 0 -0.01c0.75,-0.1 1.5,-0.2 2.25,-0.3 0.43,-0.05 0.86,-0.1 1.29,-0.15l0.31 0 0 -0.04c0.36,-0.04 0.72,-0.08 1.09,-0.12l0.45 0 0 -0.04c0.36,-0.04 0.73,-0.08 1.09,-0.11l0.45 0 0 -0.04c0.43,-0.04 0.85,-0.08 1.27,-0.11l0.43 0 0 -0.04c1.32,-0.11 2.63,-0.2 3.95,-0.27l0.52 0 0 -0.03c0.84,-0.05 1.69,-0.09 2.54,-0.13l0.69 0 0 -0.03c1.3,-0.05 2.6,-0.09 3.9,-0.12l0.72 0 0 -0.02c4.84,-0.1 9.67,-0.1 14.5,-0.1 26.99,-0.02 53.98,-0.03 80.97,-0.03l29.44 0c41.71,0 83.41,0.02 125.12,0.05 0.61,0 1.24,-0.03 1.87,-0.07l0 0c0.6,-0.03 1.22,-0.06 1.85,-0.06l0.19 0c0.78,0 1.59,0.06 2.43,0.21l0 0.02 0.11 0c0.22,0.04 0.44,0.09 0.66,0.15l0 0 0.03 0c1.03,0.27 2.1,0.7 3.25,1.38l-1.57 1.09 -0.02 0 0 0.01c-0.81,0.56 -1.63,1.12 -2.45,1.68l-0.01 0 0 0.01c-0.98,0.67 -1.95,1.33 -2.93,2l0 0 0 0c-2.21,1.5 -4.42,2.98 -6.62,4.46l0 0 0 0.01 -0.46 0.3 0 0 0 0c-15.83,10.62 -31.44,20.83 -45.82,32.5l-0.4 0.32 0 0 0 0c-0.46,0.37 -0.92,0.73 -1.38,1.08l-0.01 0 0 0.01c-0.2,0.15 -0.4,0.3 -0.6,0.45l-0.02 0 0 0.01c-0.2,0.15 -0.41,0.3 -0.61,0.45l0 0 0 0c-0.51,0.37 -1.02,0.73 -1.53,1.08l-0.01 0 0 0.01 -0.44 0.3 -0.03 0 0 0.01 -0.43 0.3 -0.03 0 0 0.01 -0.44 0.29 -0.02 0 0 0.02c-0.65,0.42 -1.3,0.82 -1.95,1.22l-0.05 0 0 0.03c-0.25,0.14 -0.49,0.29 -0.73,0.43l-0.04 0 0 0.02c-0.26,0.15 -0.51,0.3 -0.77,0.44l0 0 0 0.01c-0.57,0.31 -1.13,0.62 -1.69,0.92l-0.01 0 0 0 -0.29 0.15 -0.02 0 0 0.01 -0.28 0.14 -0.03 0 0 0.02 -0.27 0.14 -0.03 0 0 0.02c-0.41,0.2 -0.81,0.4 -1.22,0.59l-0.02 0 0 0.01 -0.3 0.15 0 0 0 0c-0.45,0.21 -0.9,0.41 -1.34,0.61l-0.05 0 0 0.02 -0.3 0.14 -0.01 0 0 0c-0.6,0.27 -1.21,0.52 -1.82,0.77l-0.03 0 0 0.01c-0.25,0.1 -0.5,0.2 -0.75,0.3l-0.02 0 0 0c-0.4,0.16 -0.8,0.31 -1.2,0.46l-0.03 0 0 0.01c-1.73,0.63 -3.47,1.19 -5.24,1.68l0 0 0 0 -0.55 0.16 -0.06 0 0 0.01c-1.01,0.28 -2.02,0.53 -3.04,0.76l-0.05 0 0 0.01c-0.45,0.1 -0.91,0.2 -1.36,0.3l-0.02 0 0 0c-0.51,0.11 -1.02,0.21 -1.52,0.3l-0.02 0 0 0.01c-1.21,0.23 -2.42,0.43 -3.65,0.61l-0.05 0 0 0.01c-0.35,0.05 -0.69,0.1 -1.04,0.14l-0.04 0 0 0.01c-0.81,0.11 -1.62,0.21 -2.44,0.3l-0.02 0 0 0.01c-0.48,0.05 -0.96,0.1 -1.44,0.15l-0.11 0 0 0.01c-1.17,0.11 -2.36,0.21 -3.55,0.29l-0.14 0 0 0.01c-0.8,0.06 -1.59,0.11 -2.39,0.15l-0.08 0 0 0c-1.24,0.07 -2.49,0.12 -3.76,0.15l-0.24 0 0 0.01c-2.11,0.06 -4.24,0.08 -6.4,0.08l-150.52 0 -1.73 -0.11c-42.84,0.95 -77.15,19.59 -101.53,54.52 -16.09,23.04 -23.81,49.22 -25.06,76.75 -2.58,57.11 -2.21,114.25 -1.79,171.39l0 0.1 0 0c0.05,7.06 0.11,14.11 0.16,21.16l0 0.41 0 0c0.06,9.22 0.12,18.43 0.15,27.65l0 4.55 0.01 0c0.02,6.88 0.03,13.76 0.02,20.65l-0.03 0 0 11.51c-0.01,2.88 -0.03,5.76 -0.05,8.64 -0.01,0.91 -0.04,1.79 -0.09,2.65l-0.01 0 0 0.18c-0.04,0.51 -0.09,1.01 -0.14,1.51l-0.02 0 0 0.15c-0.04,0.37 -0.09,0.73 -0.14,1.09l-0.01 0 0 0.07c-0.05,0.29 -0.09,0.57 -0.14,0.85l-0.02 0 0 0.08c-0.04,0.23 -0.08,0.46 -0.13,0.69l-0.02 0 0 0.09c-0.05,0.23 -0.1,0.45 -0.15,0.68l0 0 0 0c-0.05,0.21 -0.1,0.41 -0.16,0.62l0 0 0 0c-0.14,0.52 -0.29,1.03 -0.46,1.54l0 0 0 0.01c-0.23,0.68 -0.48,1.34 -0.77,1.99l0 0 0 0.01 -0.13 0.3 -0.03 0 0 0.05 -0.12 0.26 -0.03 0 0 0.07 -0.11 0.23 -0.04 0 0 0.09c-0.2,0.38 -0.4,0.77 -0.62,1.15l0 0 0 0c-0.15,0.26 -0.3,0.51 -0.45,0.77l-0.01 0 0 0.01c-0.09,0.15 -0.19,0.3 -0.29,0.45l-0.02 0 0 0.04c-0.09,0.14 -0.19,0.28 -0.28,0.42l-0.03 0 0 0.04c-0.24,0.35 -0.49,0.69 -0.76,1.04l-0.01 0 0 0.02c-0.19,0.25 -0.39,0.5 -0.6,0.75l-0.01 0 0 0.02 -0.12 0.13 -0.04 0 0 0.05c-0.25,0.3 -0.5,0.59 -0.77,0.88l0 0 0 0 -0.14 0.15 -0.01 0 0 0.02 -0.13 0.14 -0.03 0 0 0.02 -0.12 0.13 -0.03 0 0 0.04 -0.12 0.12 -0.04 0 0 0.03 -0.11 0.12 -0.04 0 0 0.04 -0.11 0.11 -0.04 0 0 0.05 -0.11 0.11 -0.05 0 0 0.04 -0.11 0.11 -0.04 0 0 0.04 -0.12 0.12 -0.04 0 0 0.03 -0.12 0.12 -0.03 0 0 0.03 -0.13 0.12 -0.02 0 0 0.03 -0.15 0.13 -0.01 0 0 0.01 -0.31 0.29c-12.06,10.93 -23.8,22.21 -35.58,33.44l-0.01 0 0 0 -3.06 2.93 -0.02 0 0 0.01 -0.15 0.14 0 0 0 0 -2.92 2.77 -0.01 0 0 0.01 -0.15 0.15 0 0 0 0c-0.98,0.92 -1.95,1.85 -2.93,2.77l0 0 0 0 -1.5 1.42c-0.72,0.68 -1.43,1.64 -2.19,2.43l-0.01 0 0 0.01 -0.14 0.15 -0.01 0 0 0.01c-0.6,0.59 -1.22,1.07 -1.92,1.22l-0.08 0 0 0.02c-0.25,0.04 -0.51,0.04 -0.77,-0.01z"/>
  <path class="fil2" d="M365.91 72.1l-176.6 0c-30.95,0.61 -58.17,13.01 -79.15,35.9 -25.33,27.64 -34.6,61.75 -35.01,97.69 -0.93,80.41 -0.31,160.83 -0.25,241.24 0,2.44 -1.41,5.99 1.35,7.08 2.72,1.09 4.34,-2.34 6.05,-4.11 15.19,-15.84 30,-32.04 45.53,-47.54 5.24,-5.23 7.67,-10.29 7.64,-17.66 -0.27,-62.26 0.85,-124.54 -0.59,-186.77 -0.75,-32.16 24.4,-59.44 60.33,-59.44l264.06 0 -4.77 -6.01c-23.03,-17.78 -46.04,-35.59 -69.22,-53.19 -4.9,-3.73 -6.72,-7.07 -13.91,-7.05l-5.46 -0.14z"/>
  <path class="fil3" d="M76.68 454.15l0 -0.04 -0.15 0c-0.1,-0.03 -0.19,-0.06 -0.28,-0.1 -0.25,-0.1 -0.46,-0.22 -0.65,-0.35l0 -0.01 -0.02 0c-0.17,-0.13 -0.32,-0.28 -0.44,-0.44l0 -0.03 -0.02 0c-1.16,-1.53 -0.22,-4.26 -0.22,-6.25 -0.03,-34.51 -0.16,-69.03 -0.22,-103.55l0 -4.82 -0.01 0c-0.02,-13.2 -0.04,-26.4 -0.03,-39.6l0.04 0 0 -22.8c0.02,-9.04 0.05,-18.08 0.1,-27.11l0.05 0 0 -7.79c0.03,-4.39 0.06,-8.78 0.1,-13.17l0.05 0 0 -6.6c0.05,-4.83 0.1,-9.67 0.15,-14.5l0.01 0 0 -0.48 0.01 -0.82c0.02,-1.78 0.06,-3.56 0.13,-5.33l0.01 0 0 -0.41c0.04,-0.99 0.09,-1.99 0.14,-2.98l0.02 0 0 -0.31c0.04,-0.77 0.09,-1.54 0.14,-2.31l0.01 0 0 -0.22c0.05,-0.7 0.1,-1.39 0.16,-2.09l0 0c0.04,-0.57 0.09,-1.13 0.14,-1.69l0.01 0 0 -0.15c0.04,-0.46 0.08,-0.93 0.13,-1.39l0.02 0 0 -0.26c0.05,-0.48 0.1,-0.96 0.15,-1.44l0.01 0 0 -0.07c0.09,-0.91 0.2,-1.8 0.3,-2.7l0.01 0 0 -0.01c0.04,-0.36 0.08,-0.71 0.13,-1.07l0.02 0 0 -0.16 0.14 -1.07 0.01 0 0 -0.1 0.14 -0.98 0.02 0 0 -0.14c0.14,-0.98 0.29,-1.96 0.44,-2.94l0.02 0 0 -0.1 0.14 -0.83 0.01 0 0 -0.11c0.05,-0.27 0.09,-0.54 0.14,-0.81l0.02 0 0 -0.1c0.05,-0.28 0.09,-0.55 0.14,-0.83l0.01 0 0 -0.04 0.13 -0.73 0.03 0 0 -0.13 0.14 -0.79 0.01 0 0 -0.03c0.14,-0.76 0.29,-1.52 0.45,-2.28l0.01 0 0 -0.08 0.15 -0.69 0.01 0 0 -0.04 0.12 -0.58 0.03 0 0 -0.15 0.14 -0.62 0.01 0 0 -0.08 0.16 -0.69 0 0 0 -0.01 0.14 -0.61 0.01 0 0 -0.07c0.1,-0.44 0.2,-0.87 0.31,-1.31l0 0 0 -0.01 0.15 -0.61 0 0 0 -0.02 0.15 -0.59 0.01 0 0 -0.05 0.14 -0.57 0.01 0 0 -0.04 0.15 -0.58 0.01 0 0 -0.02 0.15 -0.59 0 0 0 -0.01 0.12 -0.46 0.04 0 0 -0.12 0.13 -0.49 0.02 0 0 -0.09 0.14 -0.53 0.01 0 0 -0.04c0.3,-1.07 0.6,-2.13 0.92,-3.19l0.01 0 0 -0.02 0.13 -0.45 0.02 0 0 -0.06 0.12 -0.4 0.04 0 0 -0.11c0.1,-0.32 0.2,-0.64 0.3,-0.97l0 0 0 -0.01 0.14 -0.45 0.02 0 0 -0.04 0.13 -0.42 0.02 0 0 -0.06c0.3,-0.91 0.6,-1.81 0.91,-2.71l0.02 0 0 -0.04 0.14 -0.43 0.01 0 0 -0.02c0.14,-0.4 0.29,-0.8 0.43,-1.21l0.03 0 0 -0.08 0.14 -0.38 0.02 0 0 -0.04c0.14,-0.4 0.29,-0.8 0.44,-1.19l0.02 0 0 -0.06c0.34,-0.91 0.7,-1.81 1.06,-2.72l0.02 0 0 -0.04 0.29 -0.73 0.02 0 0 -0.02 0.11 -0.28 0.04 0 0 -0.1 0.15 -0.37 0 0 0 0 0.13 -0.3 0.03 0 0 -0.07c0.1,-0.23 0.2,-0.47 0.3,-0.71l0.01 0 0 -0.01 0.12 -0.29 0.03 0 0 -0.07c0.1,-0.24 0.2,-0.47 0.31,-0.7l0 0 0 -0.01c0.25,-0.56 0.5,-1.13 0.76,-1.69l0.01 0 0 -0.03c0.3,-0.66 0.61,-1.32 0.92,-1.97l0 0 0 -0.01 0.14 -0.3 0.02 0 0 -0.03 0.13 -0.28 0.02 0 0 -0.03 0.14 -0.28 0.02 0 0 -0.04 0.13 -0.26 0.02 0 0 -0.05 0.13 -0.26 0.02 0 0 -0.06 0.13 -0.25 0.03 0 0 -0.06c0.35,-0.7 0.7,-1.4 1.07,-2.1l0.01 0 0 -0.01 0.15 -0.29 0 0 0 -0.01c0.24,-0.46 0.49,-0.92 0.74,-1.38l0.03 0 0 -0.07 0.13 -0.24 0.02 0 0 -0.04 0.15 -0.27 0.01 0 0 -0.01c0.19,-0.36 0.39,-0.71 0.59,-1.07l0.02 0 0 -0.04 0.15 -0.26 0.01 0 0 -0.02c0.49,-0.87 1,-1.74 1.51,-2.6l0.03 0 0 -0.05c0.14,-0.24 0.29,-0.48 0.44,-0.72l0.02 0 0 -0.05c0.15,-0.24 0.29,-0.48 0.44,-0.72l0.02 0 0 -0.04c0.09,-0.14 0.18,-0.28 0.27,-0.43l0.04 0 0 -0.06 0.16 -0.24 0.29 -0.47 0.01 0 0 -0.03c0.45,-0.71 0.92,-1.42 1.38,-2.12l0.01 0 0 -0.02 0.3 -0.45 0.01 0 0 -0.01 0.3 -0.45 0.01 0 0 -0.01 0.3 -0.45 0.01 0 0 0 0.41 -0.62 0.05 0 0 -0.06 0.28 -0.4 0.03 0 0 -0.04 0.29 -0.42 0.01 0 0 -0.02c0.14,-0.2 0.28,-0.4 0.42,-0.6l0.05 0 0 -0.06 0.29 -0.4 0.01 0 0 -0.02c0.41,-0.56 0.82,-1.12 1.23,-1.67l0.01 0 0 -0.01c0.15,-0.21 0.3,-0.41 0.45,-0.61l0.01 0 0 -0.02c0.15,-0.2 0.31,-0.4 0.46,-0.6l0 0 0 0 0.12 -0.15 0.03 0 0 -0.05 0.44 -0.57 0.03 0 0 -0.03c0.15,-0.2 0.3,-0.39 0.45,-0.58l0.01 0 0 -0.01 0.12 -0.15 0.03 0 0 -0.04c0.15,-0.19 0.3,-0.38 0.45,-0.57l0.02 0 0 -0.02c0.2,-0.25 0.4,-0.5 0.61,-0.75l0 0 0 -0.01c0.5,-0.62 1.01,-1.23 1.52,-1.84l0.02 0 0 -0.02 0.12 -0.14 0.04 0 0 -0.04c0.24,-0.3 0.5,-0.59 0.75,-0.88l0.02 0 0 -0.02 0.11 -0.14 0.04 0 0 -0.04c0.25,-0.3 0.51,-0.59 0.77,-0.88l0 0 0 0 0.14 -0.15 0.02 0 0 -0.03 0.11 -0.13 0.04 0 0 -0.04c0.35,-0.4 0.71,-0.8 1.07,-1.19l0.01 0 0 -0.01 0.2 -0.22c0.64,-0.7 1.3,-1.4 1.95,-2.08l0 0 0 0 0.15 -0.16 0.01 0 0 0 0.14 -0.15 0.01 0 0 -0.01 0.14 -0.14 0.02 0 0 -0.02 0.13 -0.14 0.02 0 0 -0.02 0.13 -0.13 0.03 0 0 -0.03 0.12 -0.13 0.03 0 0 -0.03 0.12 -0.12 0.03 0 0 -0.03c0.56,-0.56 1.11,-1.12 1.68,-1.66l0.02 0 0 -0.03 0.13 -0.13 0.02 0 0 -0.02 0.14 -0.13 0.02 0 0 -0.02 0.14 -0.14 0.01 0 0 -0.01 0.15 -0.14 0 0 0 0c0.71,-0.68 1.42,-1.35 2.14,-2l0.02 0 0 -0.02 0.15 -0.14 0.01 0 0 0c0.45,-0.42 0.9,-0.83 1.36,-1.23l0.02 0 0 -0.02 0.16 -0.13 0 0 0 0c0.29,-0.26 0.59,-0.52 0.88,-0.77l0.04 0 0 -0.04 0.14 -0.12 0.01 0 0 -0.01c0.3,-0.25 0.6,-0.51 0.9,-0.76l0.03 0 0 -0.02c0.8,-0.67 1.61,-1.34 2.43,-1.98l0.03 0 0 -0.03c0.25,-0.2 0.5,-0.39 0.76,-0.59l0.01 0 0 -0.01 0.59 -0.45 0.03 0 0 -0.03c0.81,-0.62 1.63,-1.22 2.45,-1.82l0.02 0 0 -0.01c0.35,-0.26 0.7,-0.51 1.06,-0.76l0.01 0 0 -0.01 0.43 -0.3 0.04 0 0 -0.02 0.4 -0.29 0.06 0 0 -0.03c0.36,-0.25 0.72,-0.49 1.08,-0.74l0 0 0 0 0.46 -0.3 0 0 0 0c0.55,-0.37 1.1,-0.73 1.65,-1.08l0.04 0 0 -0.03 0.45 -0.28 0.02 0 0 -0.01c0.24,-0.15 0.48,-0.3 0.72,-0.45l0.05 0 0 -0.03 0.46 -0.28 0 0 0 0c0.25,-0.16 0.5,-0.31 0.76,-0.46l0.01 0 0 -0.01 0.76 -0.46 0.01 0 0 0c0.35,-0.2 0.7,-0.41 1.06,-0.61l0.02 0 0 -0.01c0.35,-0.21 0.71,-0.41 1.07,-0.61l0.01 0 0 0 0.26 -0.15 0.04 0 0 -0.02 0.25 -0.14 0.06 0 0 -0.03c0.36,-0.2 0.71,-0.39 1.07,-0.58l0.01 0 0 -0.01 0.29 -0.15 0.02 0 0 -0.01c0.99,-0.52 1.99,-1.03 3,-1.53l0.08 0 0 -0.04 0.24 -0.11 0.07 0 0 -0.04 0.25 -0.12 0.06 0 0 -0.02 0.26 -0.13 0.04 0 0 -0.02 0.29 -0.13 0.02 0 0 -0.02 0.3 -0.14 0.01 0 0 0c0.56,-0.26 1.12,-0.52 1.68,-0.77l0.02 0 0 0c0.34,-0.16 0.69,-0.31 1.03,-0.46l0.04 0 0 -0.02c0.35,-0.15 0.7,-0.3 1.04,-0.44l0.04 0 0 -0.02 0.71 -0.29 0.06 0 0 -0.03c0.75,-0.31 1.51,-0.6 2.27,-0.89l0.04 0 0 -0.02 0.77 -0.29 0 0 0 0 0.42 -0.16 0.05 0 0 -0.02 0.36 -0.13 0.1 0 0 -0.04c0.25,-0.09 0.51,-0.18 0.76,-0.27l0.01 0 0 0 0.43 -0.15 0.03 0 0 -0.02 0.41 -0.14 0.05 0 0 -0.01c0.6,-0.21 1.2,-0.41 1.8,-0.6l0.05 0 0 -0.02 0.42 -0.14 0.04 0 0 -0.01 0.45 -0.14 0.02 0 0 0c0.33,-0.11 0.65,-0.21 0.98,-0.31l0.09 0 0 -0.03 0.43 -0.12 0.04 0 0 -0.01c0.34,-0.11 0.68,-0.2 1.02,-0.3l0.06 0 0 -0.02c1.12,-0.32 2.24,-0.62 3.38,-0.91l0.01 0 0 0c1.57,-0.39 3.16,-0.75 4.76,-1.07l0.01 0 0 -0.01m0.75 -0.15l0.18 0 0 -0.03 0.64 -0.12 0.13 0 0 -0.03 0.71 -0.13 0.06 0 0 -0.01c0.9,-0.16 1.8,-0.31 2.71,-0.45l0.06 0 0 -0.01c0.32,-0.05 0.65,-0.1 0.97,-0.14l0.11 0 0 -0.02c0.33,-0.05 0.67,-0.09 1.01,-0.14l0.07 0 0 -0.01c0.81,-0.11 1.63,-0.2 2.45,-0.3l0.01 0 0 0c0.49,-0.05 0.97,-0.1 1.46,-0.15l0.24 0 0 -0.02c0.48,-0.05 0.97,-0.09 1.46,-0.13l0.23 0 0 -0.02c0.61,-0.05 1.22,-0.1 1.84,-0.14l0.01 0 0 0c0.96,-0.06 1.93,-0.11 2.91,-0.15l0.63 0 0 -0.03c0.62,-0.02 1.24,-0.04 1.86,-0.05l176.6 0 5.46 0.14c0.56,0 1.08,0.02 1.58,0.06l0 0.03 0.4 0c0.34,0.04 0.67,0.08 0.99,0.13l0 0.03 0.15 0c0.21,0.03 0.41,0.07 0.62,0.12l0 0.03 0.13 0c0.68,0.16 1.29,0.36 1.87,0.6l0 0.02 0.04 0c0.41,0.17 0.81,0.37 1.19,0.58l0 0.03 0.06 0c0.08,0.05 0.16,0.1 0.25,0.15l0 0.01 0.01 0c1.08,0.64 2.05,1.43 3.07,2.3l0 0.01 0.01 0c1.06,0.91 2.19,1.91 3.54,2.95l2 1.51 0 0.01 0 0 2.62 1.98 0 0.02 0.01 0 0.6 0.45 0 0.01 0.01 0 0.61 0.46 0 0 0 0 1.38 1.06 0 0.02 0.03 0 0.59 0.45 0 0.01 0.02 0 0.6 0.46 0 0.01 0.01 0 0.76 0.58 0 0.03 0.04 0 0.57 0.44 0 0.02 0.04 0 0.58 0.45 0 0.02 0.02 0 0.6 0.45 0 0.01 0.01 0 0.6 0.46 0 0 0 0 0.16 0.12 0 0.03 0.05 0 0.56 0.44 0 0.03 0.04 0 0.58 0.44 0 0.02 0.03 0 0.59 0.45 0 0.01 0.01 0 0.6 0.46 0 0 0 0 0.16 0.12 0 0.04 0.05 0 0.56 0.43 0 0.03 0.04 0 0.58 0.44 0 0.02 0.02 0 0.59 0.45 0 0.01 0.02 0 0.6 0.47 0 0 0 0 0.15 0.11 0 0.04 0.05 0 0.57 0.44 0 0.02 0.04 0 0.58 0.45 0 0.02 0.02 0 0.59 0.45 0 0.01 0.01 0 0.76 0.58 0 0.03 0.05 0 0.57 0.44 0 0.03 0.03 0 0.59 0.45 0 0.01 0.01 0 0.6 0.46 0 0 0.01 0 0.15 0.12 0 0.03 0.05 0 0.56 0.44 0 0.03 0.04 0 0.58 0.44 0 0.02 0.02 0 0.6 0.45 0 0.01 0 0 0.77 0.59 0 0.03 0.04 0 0.57 0.44 0 0.02 0.03 0 0.59 0.45 0 0.01 0.01 0 1.38 1.06 0 0.02 0.02 0 0.59 0.45 0 0.01 0.02 0 0.6 0.46 1.38 1.07 0 0.01 0.02 0 0.6 0.46 0 0.01 0 0 2 1.53 0 0.01 0.01 0 2 1.54 0 0 0 0 7.39 5.69 0 0.01 0.01 0 1.99 1.54 0 0 0.01 0 3.38 2.61 0 0.01 0.01 0 2 1.54 0 0 0 0 3.39 2.61 0 0.01 0 0 3.39 2.61 0 0.01 0 0 2 1.54 0 0 0 0 3.39 2.61 0 0.01 0 0 8.06 6.22 4.77 6.01 -264.06 0c-35.93,0 -61.08,27.28 -60.33,59.44l0.04 1.7 0 0.89 0.02 0c0.04,2.15 0.09,4.31 0.13,6.46l0 4.32 0.08 0 0.07 4.41 0 6.53 0.1 0c0.02,1.5 0.04,3 0.06,4.51l0 6.27 0.07 0c0.03,3.37 0.06,6.73 0.08,10.1l0 0.69 0.01 0c0.16,24.49 0.08,48.99 0,73.49l-0.01 0 0 1.03c-0.08,22.12 -0.16,44.25 -0.06,66.37 0,0.77 -0.02,1.51 -0.08,2.23l-0.01 0 0 0.22c-0.04,0.45 -0.08,0.89 -0.14,1.33l-0.02 0 0 0.12c-0.04,0.32 -0.09,0.64 -0.15,0.95l0 0 0 0.02c-0.04,0.26 -0.09,0.51 -0.15,0.75l0 0 0 0.03c-0.05,0.2 -0.09,0.4 -0.14,0.59l-0.02 0 0 0.07c-0.04,0.19 -0.09,0.37 -0.14,0.55l-0.01 0 0 0.04c-0.17,0.61 -0.38,1.22 -0.6,1.81l-0.02 0 0 0.04c-0.09,0.24 -0.19,0.49 -0.3,0.73l-0.01 0 0 0.02c-0.27,0.62 -0.57,1.23 -0.9,1.82l-0.02 0 0 0.04 -0.15 0.27 0 0 0 0c-0.24,0.42 -0.5,0.83 -0.77,1.24l0 0 0 0c-0.38,0.57 -0.79,1.13 -1.23,1.69l-0.01 0 0 0.01c-0.6,0.77 -1.27,1.54 -2,2.3l0 0 0 0 -0.14 0.15 -0.01 0 0 0.02 -0.14 0.14 -0.02 0 0 0.01c-0.15,0.16 -0.3,0.32 -0.46,0.47 -12.28,12.26 -24.12,24.96 -36.05,37.57l0 0 0 0.01 -2.77 2.92 -0.01 0 0 0.01 -0.14 0.14 -0.01 0 0 0.02 -0.13 0.14 -0.02 0 0 0.02c-0.87,0.92 -1.75,1.84 -2.62,2.75l0 0 0 0.01 -0.14 0.15 -0.02 0 0 0.01 -0.13 0.14 -0.02 0 0 0.02c-0.97,1.02 -1.95,2.04 -2.93,3.06l0 0 0 0 -0.54 0.57c-0.68,0.71 -1.35,1.67 -2.07,2.51l-0.01 0 0 0.01c-0.29,0.33 -0.59,0.65 -0.9,0.92l-0.02 0 0 0.01c-0.2,0.17 -0.41,0.32 -0.62,0.45 -0.09,0.06 -0.19,0.11 -0.28,0.15l-0.03 0 0 0.01c-0.12,0.06 -0.24,0.11 -0.37,0.15l-0.09 0 0 0.02c-0.38,0.11 -0.79,0.12 -1.23,0.02"/>
  <path class="fil4" d="M89.16 466.13l0 -0.01 -0.06 0c-0.25,-0.03 -0.49,-0.07 -0.71,-0.14l0 -0.01 -0.01 0c-0.75,-0.24 -1.36,-0.73 -1.73,-1.66 -0.05,-0.14 -0.09,-0.27 -0.11,-0.4l0 -0.1 -0.02 0c-0.03,-0.21 -0.02,-0.42 0.02,-0.61l0 0 0 -0.02c0.33,-1.65 2.84,-2.75 4.02,-4.2l0.58 -0.71 0.02 0 0 -0.04c0.2,-0.24 0.41,-0.49 0.61,-0.73l0.01 0 0 -0.01 0.12 -0.15 0.03 0 0 -0.04 0.62 -0.73 0 0 0 0 0.13 -0.15 0.02 0 0 -0.03 0.11 -0.13 0.05 0 0 -0.05 0.61 -0.72 0 0 0 0 0.13 -0.15 0.03 0 0 -0.03 0.1 -0.12 0.05 0 0 -0.06c0.25,-0.29 0.5,-0.58 0.76,-0.87l0.01 0 0 -0.01 0.12 -0.14 0.04 0 0 -0.04c0.3,-0.35 0.61,-0.7 0.92,-1.04 0.51,-0.57 1.02,-1.13 1.53,-1.7l0.01 0 0 0 0.14 -0.15 0.01 0 0 -0.02 0.13 -0.13 0.03 0 0 -0.04 0.11 -0.12 0.04 0 0 -0.05c0.51,-0.55 1.02,-1.1 1.54,-1.64l0 0 0 -0.01 0.14 -0.15 0.02 0 0 -0.01 0.13 -0.14 0.02 0 0 -0.03 0.12 -0.12 0.04 0 0 -0.04c1.06,-1.13 2.14,-2.24 3.23,-3.35l0 0 0 -0.01 0.15 -0.15 0 0 0 0 0.15 -0.15 0.01 0 0 -0.01 0.14 -0.15 0.01 0 0 -0.01 0.14 -0.14 0.02 0 0 -0.01 0.13 -0.14 0.02 0 0 -0.02 0.14 -0.14 0.02 0 0 -0.02 0.13 -0.13 0.02 0 0 -0.02 0.13 -0.14 0.02 0 0 -0.02 0.13 -0.13 0.03 0 0 -0.02 0.13 -0.13 0.02 0 0 -0.03 0.13 -0.13 0.03 0 0 -0.03 0.12 -0.12 0.03 0 0 -0.03c1.27,-1.28 2.56,-2.56 3.84,-3.82l0.01 0 0 -0.01 0.15 -0.15 0.01 0 0 0 0.15 -0.15 0 0 0 -0.01 0.15 -0.15 0 0 0 0c8.84,-8.7 17.88,-17.21 25.71,-26.83 0.21,-0.25 0.42,-0.5 0.64,-0.74l0.14 -0.16 0.01 0 0 -0.02 0.13 -0.13 0.03 0 0 -0.03 0.11 -0.13 0.04 0 0 -0.04 0.11 -0.11 0.04 0 0 -0.05c0.3,-0.31 0.6,-0.6 0.91,-0.88l0.02 0 0 -0.02 0.15 -0.13 0 0 0 0c0.24,-0.22 0.48,-0.42 0.73,-0.62l0.04 0 0 -0.03 0.15 -0.12 0.01 0 0 -0.01c0.2,-0.15 0.4,-0.31 0.61,-0.45l0 0 0 -0.01c0.15,-0.1 0.29,-0.2 0.44,-0.3l0.03 0 0 -0.02c0.14,-0.1 0.29,-0.19 0.44,-0.29l0.02 0 0 -0.01c0.25,-0.15 0.51,-0.31 0.76,-0.45l0.01 0 0 0c0.19,-0.11 0.38,-0.21 0.57,-0.31l0.04 0 0 -0.02 0.26 -0.13 0.05 0 0 -0.03 0.27 -0.13 0.04 0 0 -0.01 0.3 -0.14 0.01 0 0 -0.01c1.16,-0.51 2.36,-0.91 3.63,-1.22l0.07 0 0 -0.02c0.2,-0.05 0.4,-0.09 0.6,-0.14l0.01 0 0 0c0.25,-0.05 0.5,-0.1 0.75,-0.15l0.02 0 0 -0.01c0.29,-0.05 0.57,-0.1 0.86,-0.15l0.07 0 0 -0.01c0.33,-0.05 0.67,-0.1 1.02,-0.14l0.06 0 0 -0.01c0.45,-0.05 0.91,-0.1 1.38,-0.14l0 0 0 0c0.78,-0.07 1.57,-0.12 2.39,-0.16l126.47 -0.21c6.05,-0.29 12.12,-0.6 18.15,-1.19 13.25,-1.29 24.01,-11.75 24.65,-25.33 0.58,-12.36 0.32,-24.75 0.28,-37.14l0 -5.53c0,-1.07 0.01,-2.15 0.02,-3.22 0.07,-6.82 -4.68,-6.33 -9.26,-6.33 -33.03,0 -66.06,0 -99.09,0 -2.64,0 -5.29,0.09 -7.93,-0.04 -0.4,-0.02 -0.83,0 -1.27,0.03 -0.88,0.05 -1.77,0.1 -2.49,-0.2l0 -0.03 -0.05 0c-0.09,-0.04 -0.17,-0.08 -0.25,-0.14l0 -0.01 -0.03 0c-0.16,-0.11 -0.31,-0.24 -0.44,-0.4l0 -0.06 -0.04 0c-0.1,-0.14 -0.19,-0.29 -0.27,-0.46l0 -0.01 0 0c-0.02,-0.05 -0.04,-0.1 -0.07,-0.16 -0.03,-0.09 -0.06,-0.18 -0.08,-0.26l0 -0.04 -0.01 0c-0.19,-0.78 0.04,-1.43 0.46,-2l0.01 0 0 -0.01c0.6,-0.79 1.56,-1.41 2.3,-2.01 3.06,-2.49 6.15,-4.94 9.26,-7.38l0 0 0 0c13.37,-10.5 26.99,-20.73 39.21,-32.39l0 0c0.26,-0.25 0.52,-0.49 0.78,-0.73l0.07 0 0 -0.06 0.1 -0.1 0.05 0 0 -0.04 0.12 -0.11 0.03 0 0 -0.03 0.14 -0.13 0.02 0 0 -0.01c0.17,-0.15 0.34,-0.3 0.51,-0.45l0.1 0 0 -0.09 0.08 -0.06 0.08 0 0 -0.07 0.1 -0.09 0.05 0 0 -0.04 0.13 -0.11 0.03 0 0 -0.02c0.17,-0.15 0.35,-0.3 0.53,-0.44l0.08 0 0 -0.07 0.11 -0.09 0.05 0 0 -0.03 0.15 -0.12 0 0 0 0c0.4,-0.32 0.8,-0.63 1.2,-0.92l0.03 0 0 -0.03 0.39 -0.28 0.08 0 0 -0.06 0.13 -0.1 0.02 0 0 -0.01 0.2 -0.14 0.11 0 0 -0.08 0.11 -0.07 0.04 0 0 -0.03 0.18 -0.13 0.13 0 0 -0.08 0.1 -0.07 0.05 0 0 -0.04 0.41 -0.27 0.06 0 0 -0.04 0.42 -0.27 0.04 0 0 -0.02c0.15,-0.1 0.3,-0.19 0.45,-0.29l0.01 0 0 0c0.61,-0.38 1.22,-0.74 1.83,-1.08l0.02 0 0 0 0.27 -0.15 0.04 0 0 -0.02 0.24 -0.13 0.06 0 0 -0.04 0.24 -0.12 0.07 0 0 -0.04 0.23 -0.11 0.08 0 0 -0.04 0.22 -0.12 0.09 0 0 -0.04 0.23 -0.11 0.08 0 0 -0.04 0.24 -0.11 0.07 0 0 -0.04 0.26 -0.12 0.04 0 0 -0.02 0.29 -0.13 0.02 0 0 -0.01c0.35,-0.16 0.69,-0.31 1.04,-0.45l0.04 0 0 -0.02 0.33 -0.14 0.13 0 0 -0.05 0.25 -0.1 0.06 0 0 -0.02 0.34 -0.14 0.12 0 0 -0.04 0.28 -0.11 0.18 0 0 -0.07 0.24 -0.08 0.07 0 0 -0.03 0.37 -0.13 0.1 0 0 -0.03 0.35 -0.12 0.11 0 0 -0.04c0.44,-0.15 0.89,-0.29 1.34,-0.43l0.04 0 0 -0.01 0.49 -0.14 0.13 0 0 -0.03 0.43 -0.12 0.19 0 0 -0.05 0.4 -0.11 0.21 0 0 -0.05 0.4 -0.1 0.22 0 0 -0.05 0.44 -0.11 0.02 0 0 0c0.48,-0.11 0.96,-0.21 1.44,-0.3l0.1 0 0 -0.02c0.24,-0.05 0.48,-0.09 0.72,-0.14l0.21 0 0 -0.03c0.23,-0.04 0.46,-0.08 0.69,-0.12l0.23 0 0 -0.04c0.26,-0.04 0.52,-0.08 0.78,-0.12l0.15 0 0 -0.02c0.33,-0.04 0.67,-0.09 1.01,-0.13l0.06 0 0 -0.01c0.43,-0.05 0.87,-0.1 1.3,-0.14l0.24 0 0 -0.03c0.5,-0.05 0.99,-0.09 1.49,-0.13l0.36 0 0 -0.02c0.73,-0.06 1.46,-0.1 2.2,-0.13l0.42 0 0 -0.02c1.33,-0.05 2.67,-0.08 4.04,-0.08 0.96,0 1.92,0.02 2.9,0.04 31.17,0.66 62.36,0.39 93.54,0.03 0.41,0 0.82,0 1.21,0.01l0 0.02 0.72 0c0.56,0.02 1.09,0.06 1.59,0.12l0 0.03 0.25 0c0.52,0.07 1,0.16 1.44,0.28l0 0.03 0.12 0c0.17,0.05 0.34,0.1 0.5,0.15l0 0 0 0c0.45,0.16 0.86,0.34 1.23,0.57l0 0.05 0.09 0c0.08,0.05 0.15,0.1 0.22,0.14l0 0.01 0.01 0c0.34,0.24 0.64,0.52 0.91,0.83l0 0.1 0.08 0 0.08 0.09 0 0.06 0.04 0 0.11 0.15 0 0.01 0 0c0.17,0.24 0.33,0.51 0.46,0.8l0 0.12 0.06 0c0.03,0.08 0.07,0.15 0.1,0.23l0 0.08 0.03 0c0.1,0.27 0.19,0.56 0.28,0.86l0 0.06 0.01 0c0.05,0.2 0.1,0.41 0.14,0.63l0 0.14 0.03 0c0.05,0.28 0.09,0.58 0.12,0.88l0 0.05 0.01 0c0.09,0.86 0.13,1.82 0.1,2.91 -0.44,22.02 0.19,44.09 -0.11,66.11l0 0 0 0.04c-0.02,1.68 -0.05,3.36 -0.08,5.04l-0.07 0 0 3.03c-0.02,0.69 -0.04,1.37 -0.06,2.06l-0.09 0 0 3.15c-0.03,0.65 -0.05,1.29 -0.07,1.93l-0.09 0 0 2.13c-0.04,0.93 -0.08,1.87 -0.12,2.8l-0.03 0 0 0.58 -0.05 0.97c-0.03,0.51 -0.06,1.02 -0.09,1.53l-0.02 0 0 0.2c-0.04,0.66 -0.08,1.31 -0.13,1.96l-0.02 0 0 0.21c-0.09,1.12 -0.19,2.23 -0.31,3.33l0 0 0 0.03c-0.05,0.45 -0.09,0.91 -0.14,1.36l-0.01 0 0 0.09c-0.05,0.38 -0.1,0.76 -0.14,1.14l-0.02 0 0 0.11c-0.13,1.1 -0.28,2.2 -0.45,3.28l-0.01 0 0 0.08c-0.04,0.28 -0.08,0.57 -0.13,0.85l-0.02 0 0 0.15c-0.23,1.45 -0.49,2.89 -0.77,4.32l0 0 0 0.01c-0.05,0.25 -0.1,0.51 -0.15,0.76l-0.01 0 0 0.04c-0.24,1.18 -0.5,2.34 -0.77,3.5l0 0 0 0.01 -0.14 0.61 -0.01 0 0 0.04c-0.05,0.19 -0.09,0.38 -0.14,0.57l-0.02 0 0 0.08 -0.13 0.54 -0.02 0 0 0.08c-0.05,0.18 -0.09,0.36 -0.14,0.53l-0.01 0 0 0.06 -0.15 0.56 -0.01 0 0 0.04c-0.05,0.19 -0.1,0.38 -0.15,0.58l0 0 0 0.01c-0.2,0.72 -0.4,1.43 -0.6,2.14l-0.02 0 0 0.06c-0.1,0.34 -0.19,0.68 -0.3,1.02l-0.01 0 0 0.04c-0.34,1.13 -0.69,2.24 -1.06,3.35l-0.02 0 0 0.04 -0.14 0.42 -0.01 0 0 0.04c-0.05,0.14 -0.09,0.28 -0.14,0.43l-0.01 0 0 0.03 -0.15 0.43 -0.01 0 0 0.01c-0.62,1.78 -1.28,3.51 -1.98,5.23l-0.02 0 0 0.05c-0.1,0.24 -0.2,0.48 -0.3,0.72l-0.01 0 0 0.03c-0.1,0.24 -0.2,0.49 -0.31,0.74l0 0 0 0c-0.2,0.46 -0.4,0.92 -0.61,1.38l0 0 0 0.02c-0.21,0.46 -0.41,0.92 -0.62,1.37l0 0 -0.14 0.31 -0.01 0 0 0.02 -0.14 0.29 -0.02 0 0 0.03c-0.73,1.56 -1.49,3.09 -2.29,4.59l-0.02 0 0 0.02 -0.15 0.29 0 0 0 0c-0.45,0.83 -0.9,1.65 -1.37,2.46l-0.02 0 0 0.04 -0.15 0.27 0 0 0 0c-0.15,0.26 -0.31,0.51 -0.46,0.77l-0.01 0 0 0.01c-0.14,0.26 -0.3,0.51 -0.45,0.76l-0.01 0 0 0.02c-0.5,0.82 -1,1.64 -1.52,2.45l-0.02 0 0 0.02 -0.28 0.44 -0.03 0 0 0.03c-0.09,0.15 -0.19,0.29 -0.28,0.43l-0.02 0 0 0.04c-0.41,0.61 -0.82,1.21 -1.23,1.81l-0.01 0 0 0c-0.25,0.36 -0.5,0.72 -0.75,1.08l-0.02 0 0 0.02c-0.14,0.2 -0.28,0.4 -0.43,0.59l-0.03 0 0 0.05c-0.25,0.35 -0.51,0.69 -0.77,1.03l0 0 0 0c-0.7,0.94 -1.42,1.87 -2.16,2.78l0 0 0 0 -0.12 0.15 -0.03 0 0 0.03c-0.2,0.25 -0.41,0.5 -0.61,0.74l-0.01 0 0 0.01c-0.25,0.31 -0.5,0.61 -0.76,0.91l-0.01 0 0 0.01c-0.35,0.41 -0.71,0.82 -1.06,1.23l-0.02 0 0 0.01 -0.12 0.14 -0.03 0 0 0.04c-0.4,0.45 -0.82,0.9 -1.23,1.35l0 0 0 0c-1.58,1.71 -3.22,3.35 -4.91,4.93l-0.02 0 0 0.02 -0.15 0.13 -0.01 0 0 0.01c-0.5,0.47 -1.01,0.92 -1.52,1.38l-0.02 0 0 0.01c-0.7,0.63 -1.41,1.24 -2.13,1.84l-0.02 0 0 0.02c-0.31,0.25 -0.61,0.5 -0.91,0.75l-0.02 0 0 0.01c-0.25,0.2 -0.5,0.4 -0.75,0.6l-0.02 0 0 0.01c-0.45,0.36 -0.91,0.72 -1.37,1.07l-0.02 0 0 0.01 -0.59 0.45 -0.02 0 0 0.02c-0.2,0.15 -0.39,0.3 -0.59,0.45l-0.03 0 0 0.01c-2.13,1.58 -4.34,3.06 -6.61,4.45l-0.01 0 0 0.01c-0.25,0.15 -0.5,0.3 -0.75,0.46l-0.02 0 0 0.01c-0.25,0.15 -0.5,0.3 -0.76,0.45l-0.01 0 0 0.01c-1.27,0.74 -2.55,1.46 -3.85,2.15l-0.01 0 0 0 -0.28 0.15 -0.02 0 0 0.01 -0.29 0.14 -0.02 0 0 0.02 -0.28 0.14 -0.03 0 0 0.01c-0.81,0.42 -1.62,0.82 -2.45,1.22l-0.01 0 0 0.01 -0.31 0.14 0 0 0 0.01c-0.55,0.26 -1.11,0.51 -1.66,0.76l-0.04 0 0 0.02 -0.3 0.14 -0.01 0 0 0c-0.7,0.31 -1.41,0.62 -2.12,0.92l-0.03 0 0 0.02c-0.36,0.15 -0.71,0.3 -1.07,0.45l-0.01 0 0 0c-0.91,0.37 -1.84,0.73 -2.77,1.07l0 0 0 0.01c-0.56,0.2 -1.12,0.41 -1.69,0.61l-0.01 0 0 0 -0.43 0.15 -0.03 0 0 0.02 -0.42 0.14 -0.04 0 0 0.01 -0.42 0.14 -0.05 0 0 0.02c-0.6,0.2 -1.21,0.4 -1.82,0.6l-0.02 0 0 0.01c-0.49,0.15 -0.98,0.3 -1.47,0.45l-0.08 0 0 0.02 -0.43 0.13 -0.03 0 0 0.01c-0.35,0.11 -0.7,0.2 -1.05,0.3l-0.03 0 0 0.01c-1.97,0.56 -3.97,1.08 -6,1.53l0 0 0 0c-2.39,0.54 -4.82,1 -7.29,1.39l-0.11 0 0 0.02 -0.89 0.13 -0.03 0 0 0.01c-0.36,0.05 -0.71,0.1 -1.06,0.15l-0.02 0 0 0c-0.78,0.11 -1.57,0.21 -2.36,0.31l-0.11 0 0 0.01c-0.39,0.05 -0.79,0.1 -1.18,0.14l-0.2 0 0 0.02c-0.46,0.05 -0.92,0.09 -1.37,0.13l-0.02 0 0 0.01c-0.56,0.05 -1.11,0.1 -1.67,0.15l-0.03 0 0 0c-0.67,0.06 -1.34,0.11 -2.02,0.15l-0.29 0 0 0.02c-2.7,0.18 -5.45,0.26 -8.24,0.27 -8.69,0.01 -17.39,0.02 -26.08,0.02l-21.74 0 -1.45 0c-14.5,0 -28.99,-0.01 -43.48,-0.01l0 -0.04c-34.09,0 -68.18,0.02 -102.27,-0.06 -0.59,0 -1.24,0.08 -1.9,0.16 -0.91,0.1 -1.84,0.2 -2.67,0.11z"/>
 </g>
</svg>
