<?xml version="1.0" encoding="UTF-8"?>
<!DOCTYPE svg PUBLIC "-//W3C//DTD SVG 1.1//EN" "http://www.w3.org/Graphics/SVG/1.1/DTD/svg11.dtd">
<!-- Creator: CorelDRAW 2019 (64-Bit) -->
<svg xmlns="http://www.w3.org/2000/svg" xml:space="preserve" width="3468px" height="1518px" version="1.1" style="shape-rendering:geometricPrecision; text-rendering:geometricPrecision; image-rendering:optimizeQuality; fill-rule:evenodd; clip-rule:evenodd"
viewBox="0 0 3557.89 1557.35"
 xmlns:xlink="http://www.w3.org/1999/xlink"
 xmlns:xodm="http://www.corel.com/coreldraw/odm/2003">
 <defs>
  <style type="text/css">
   <![CDATA[
    .fil3 {fill:none}
    .fil5 {fill:#FEFEFE;fill-rule:nonzero}
    .fil2 {fill:url(#id0)}
    .fil1 {fill:url(#id1)}
    .fil4 {fill:url(#id2)}
    .fil0 {fill:url(#id3)}
   ]]>
  </style>
  <linearGradient id="id0" gradientUnits="userSpaceOnUse" x1="209.7" y1="728.9" x2="1274.2" y2="728.9">
   <stop offset="0" style="stop-opacity:1; stop-color:#58B03C"/>
   <stop offset="0.380392" style="stop-opacity:1; stop-color:#169E46"/>
   <stop offset="1" style="stop-opacity:1; stop-color:#205D34"/>
  </linearGradient>
  <linearGradient id="id1" gradientUnits="userSpaceOnUse" xlink:href="#id0" x1="0.26" y1="729.72" x2="1273.68" y2="729.72">
  </linearGradient>
  <linearGradient id="id2" gradientUnits="userSpaceOnUse" xlink:href="#id0" x1="239.85" y1="1018.44" x2="1093.99" y2="1018.44">
  </linearGradient>
  <linearGradient id="id3" gradientUnits="userSpaceOnUse" xlink:href="#id0" x1="27.4" y1="1026.93" x2="1280.29" y2="1026.93">
  </linearGradient>
 </defs>
 <g id="Слой_x0020_1">
  <metadata id="CorelCorpID_0Corel-Layer"/>
  <path class="fil0" d="M35.78 1495.84l0 -0.02 -0.08 0c-0.57,-0.1 -1.11,-0.23 -1.63,-0.42l0 0 -0.02 0c-0.6,-0.22 -1.16,-0.5 -1.69,-0.86 -0.64,-0.44 -1.21,-0.99 -1.71,-1.68l0 -0.03 -0.02 0c-0.43,-0.61 -0.8,-1.32 -1.1,-2.16 -0.06,-0.18 -0.11,-0.36 -0.16,-0.54l0 -0.29 -0.07 0c-0.19,-0.9 -0.16,-1.75 0.04,-2.57l0.03 0 0 -0.1c0.67,-2.52 3,-4.69 5.55,-6.74l0 0 0 0c1.95,-1.56 4.04,-3.04 5.62,-4.55l4.62 -4.42 0.02 0 0 -0.02 8.95 -8.53 0.03 0 0 -0.03 0.41 -0.4 0.02 0 0 -0.01 8.06 -7.68 0.06 0 0 -0.05 0.39 -0.38 0.04 0 0 -0.03 0.41 -0.4 0.01 0 0 -0.01 8.08 -7.68 0.04 0 0 -0.04 0.41 -0.39 0.02 0 0 -0.02 8.08 -7.67 0.04 0 0 -0.04 0.41 -0.39 0.02 0 0 -0.02 8.53 -8.1 0.02 0 0 -0.02 8.54 -8.1 0.01 0 0 -0.01c28.79,-27.34 57.55,-54.71 86,-82.38 0.65,-0.64 1.31,-1.24 1.98,-1.82l0.07 0 0 -0.06 0.43 -0.36 0 0 0 -0.01c1.1,-0.93 2.22,-1.78 3.35,-2.56l0.07 0 0 -0.04c0.41,-0.28 0.81,-0.55 1.22,-0.81l0.06 0 0 -0.04c0.96,-0.61 1.93,-1.16 2.9,-1.67l0.09 0 0 -0.05 0.75 -0.38 0.11 0 0 -0.05 0.79 -0.38 0.06 0 0 -0.03c1.39,-0.64 2.81,-1.2 4.23,-1.68l0.05 0 0 -0.01c1.49,-0.5 3,-0.92 4.53,-1.27l0.17 0 0 -0.04c1.48,-0.33 2.99,-0.6 4.52,-0.82l0.18 0 0 -0.02c4.66,-0.65 9.51,-0.81 14.56,-0.8l589.6 0.08c161.11,0.02 290.4,-116.33 308.76,-269.92 9.1,-76.15 7.01,-152.71 5.65,-229.24l0 -0.63 -0.01 0c-0.16,-8.8 -0.3,-17.61 -0.42,-26.41l0 -4.36 -0.05 0c-0.25,-19.96 -0.33,-39.91 -0.03,-59.85l0.08 0 0 -5.16 0.08 -4.27c0.33,-15.22 -9.4,-17.24 -21.74,-17.2 -54.27,0.15 -108.54,0.04 -162.8,0.02 -51.34,-0.01 -102.79,-2.05 -153.96,0.71 -5.21,0.28 -10.22,0.25 -15.07,-0.07l0 -0.1 -1.43 0c-1.24,-0.1 -2.48,-0.21 -3.7,-0.35l0 -0.08 -0.66 0c-1.07,-0.12 -2.13,-0.26 -3.19,-0.42l0 -0.01 -0.03 0c-0.71,-0.1 -1.41,-0.21 -2.1,-0.33l0 -0.09 -0.56 0c-0.53,-0.09 -1.06,-0.19 -1.58,-0.29l0 -0.14 -0.73 0c-0.62,-0.12 -1.23,-0.25 -1.84,-0.38l0 -0.05 -0.24 0c-1.21,-0.26 -2.41,-0.54 -3.6,-0.85l0 0 -0.02 0c-1,-0.26 -1.99,-0.52 -2.98,-0.81l0 -0.05 -0.16 0 -1.12 -0.32 0 -0.1 -0.33 0 -0.95 -0.3 0 -0.13 -0.42 0 -1.29 -0.42 0 -0.01 -0.01 0c-1.58,-0.52 -3.14,-1.09 -4.69,-1.68l0 -0.03 -0.07 0 -0.79 -0.31 0 -0.12 -0.29 0 -0.99 -0.4 0 -0.02 -0.06 0 -0.79 -0.33 0 -0.1 -0.24 0c-0.63,-0.27 -1.27,-0.55 -1.9,-0.83l0 -0.03 -0.06 0c-2.28,-1.02 -4.54,-2.12 -6.78,-3.29l0 -0.13 -0.23 0 -0.62 -0.33 0 -0.09 -0.17 0 -0.69 -0.38 0 -0.05 -0.1 0 -0.75 -0.42 0 -0.01 -0.02 0c-1.43,-0.79 -2.85,-1.62 -4.26,-2.48l0 -0.08 -0.13 0c-0.67,-0.41 -1.34,-0.83 -2.01,-1.25l0 -0.03 -0.05 0 -1.23 -0.8 0 -0.06 -0.1 0 -1.18 -0.78 0 -0.07 -0.11 0c-1.83,-1.22 -3.64,-2.49 -5.45,-3.81l0 -0.04 -0.05 0c-0.55,-0.41 -1.1,-0.82 -1.66,-1.23l0 -0.05 -0.07 0c-0.54,-0.41 -1.09,-0.83 -1.64,-1.25l0 -0.04 -0.04 0c-0.88,-0.68 -1.76,-1.37 -2.64,-2.07 -36.82,-29.49 -74.46,-58.02 -111.87,-86.81l0 -0.02 -0.03 0 -5.53 -4.26 0 -0.02 -0.02 0 -5.53 -4.27 0 0 -0.01 0 -3.84 -2.97 0 -0.03 -0.03 0 -7.43 -5.76c-3.38,-2.61 -8.89,-4.5 -11.35,-7.9l0 -0.01 -0.01 0c-0.15,-0.21 -0.29,-0.43 -0.42,-0.65l0 -0.21 -0.11 0c-0.74,-1.41 -0.96,-3.08 -0.36,-5.13l0.05 0 0 -0.15c0.11,-0.36 0.25,-0.74 0.42,-1.13l0 0 0 -0.02 0.12 -0.26 0 0c0.09,-0.2 0.18,-0.39 0.28,-0.57l0.03 0 0 -0.06c0.25,-0.45 0.51,-0.86 0.8,-1.23l0.06 0 0 -0.07c0.36,-0.46 0.76,-0.86 1.19,-1.21l0.09 0 0 -0.07c0.38,-0.3 0.78,-0.56 1.2,-0.78l0.08 0 0 -0.05c0.27,-0.14 0.55,-0.27 0.84,-0.38l0.02 0 0 -0.01c1.24,-0.49 2.63,-0.74 4.08,-0.85l0.62 0 0 -0.03 0.7 -0.02 0.93 0 0.07 0 0.86 0.02 0 0.03 0.73 0c0.91,0.05 1.82,0.12 2.73,0.18 1.63,0.12 3.23,0.25 4.72,0.24 58.12,-0.15 116.25,-0.14 174.38,-0.13 15.21,0 30.41,0 45.61,0 150.34,-0.01 300.67,-0.05 451,0 4.31,0 8,0.01 11.15,0.13l0 0.01 0.33 0c2.12,0.09 4,0.22 5.65,0.43l0 0 0.03 0c1.61,0.2 3.02,0.48 4.25,0.85l0 0 0 0c0.78,0.24 1.49,0.52 2.13,0.84l0 0.02 0.04 0c3.23,1.64 4.78,4.47 5.52,9.32l0 0.08 0.01 0c0.62,4.11 0.67,9.67 0.67,17.17 0.03,93.73 0.31,187.46 0.3,281.19l-0.12 0 0 89.97c-0.06,21.45 -0.15,42.89 -0.26,64.33l-0.17 0 0 28.03 -0.13 17.98c-0.02,2.34 -0.07,4.67 -0.14,6.99l-0.16 0 0 4.41c-0.08,1.81 -0.18,3.62 -0.29,5.43l-0.14 0 0 2.1c-0.11,1.73 -0.25,3.44 -0.39,5.16l-0.03 0 0 0.37c-0.1,1.16 -0.21,2.32 -0.32,3.48l-0.11 0 0 1.09c-0.09,0.92 -0.19,1.84 -0.29,2.76l-0.14 0 0 1.27 -0.25 2.14 -0.18 0 0 1.45 -0.3 2.4 -0.12 0 0 0.9c-0.14,0.98 -0.27,1.97 -0.41,2.95l-0.02 0 0 0.12c-0.14,0.96 -0.28,1.92 -0.43,2.87l0 0 0 0.02 -0.33 2.12 -0.1 0 0 0.6 -0.32 1.96 -0.1 0 0 0.63 -0.34 1.94 -0.09 0 0 0.54 -0.29 1.6 -0.14 0 0 0.77 -0.33 1.79 -0.1 0 0 0.5 -0.31 1.64 -0.11 0 0 0.57 -0.4 1.99 -0.03 0 0 0.14 -0.41 2 -0.02 0 0 0.07c-0.26,1.26 -0.53,2.52 -0.81,3.78l-0.04 0 0 0.2 -0.34 1.51 -0.09 0 0 0.39 -0.3 1.31 -0.13 0 0 0.55 -0.37 1.59 -0.06 0 0 0.23 -0.35 1.48 -0.07 0 0 0.3 -0.35 1.41 -0.08 0 0 0.33 -0.34 1.38 -0.09 0 0 0.33 -0.35 1.38 -0.08 0 0 0.3 -0.36 1.41 -0.06 0 0 0.23 -0.39 1.48 -0.04 0 0 0.15 -0.42 1.56 -0.01 0 0 0.01c-0.27,1 -0.54,1.99 -0.82,2.98l-0.03 0 0 0.13c-0.27,0.95 -0.54,1.91 -0.82,2.87l-0.04 0 0 0.13 -0.33 1.15 -0.09 0 0 0.32 -0.41 1.39 -0.02 0 0 0.07 -0.36 1.21 -0.07 0 0 0.22 -0.32 1.06 -0.11 0 0 0.35 -0.28 0.93 -0.14 0 0 0.46 -0.39 1.25 -0.04 0 0 0.14 -0.36 1.15 -0.07 0 0 0.2 -0.34 1.08 -0.09 0 0 0.27c-1.06,3.34 -2.17,6.67 -3.32,9.99l-0.1 0 0 0.27 -0.35 1.01 -0.07 0 0 0.21 -0.38 1.07 -0.05 0 0 0.15 -0.41 1.13 -0.02 0 0 0.07 -0.74 2.07 -0.11 0 0 0.3 -0.36 0.98 -0.07 0 0 0.2 -0.4 1.09 -0.03 0 0 0.07 -0.76 2.06 -0.09 0 0 0.24 -0.4 1.05 -0.03 0 0 0.08c-0.69,1.83 -1.39,3.65 -2.1,5.47l-0.04 0 0 0.09 -0.81 2.05 -0.04 0 0 0.11 -0.81 2.03 -0.05 0 0 0.11 -0.82 2.02 -0.03 0 0 0.09 -0.32 0.77 -0.11 0 0 0.27 -0.41 1.01 -0.02 0 0 0.04 -0.34 0.82 -0.09 0 0 0.21 -0.8 1.92 -0.05 0 0 0.12 -0.85 2.02 -0.01 0 0 0.01 -0.36 0.84 -0.06 0 0 0.15 -0.86 1.99 0 0 0 0c-0.55,1.29 -1.11,2.57 -1.68,3.85l-0.03 0 0 0.07c-0.55,1.26 -1.12,2.52 -1.68,3.78l-0.03 0 0 0.05 -0.36 0.8 -0.06 0 0 0.14 -0.32 0.72 -0.11 0 0 0.23 -1.27 2.76 -0.01 0 0 0.04 -0.38 0.81 -0.05 0 0 0.11 -0.35 0.75 -0.08 0 0 0.17c-0.7,1.51 -1.41,3.02 -2.13,4.53l-0.01 0 0 0.01 -0.4 0.84 -0.02 0 0 0.06 -1.26 2.63c-3.05,6.29 -6.18,12.53 -9.42,18.69l-0.01 0 0 0.01c-0.82,1.57 -1.65,3.13 -2.49,4.69l-0.07 0 0 0.13 -0.39 0.72 -0.04 0 0 0.08 -0.42 0.78 -0.01 0 0 0.01c-0.54,0.99 -1.08,1.99 -1.63,2.98l-0.08 0 0 0.14 -0.39 0.71 -0.04 0 0 0.07c-0.7,1.26 -1.4,2.52 -2.11,3.78l-0.02 0 0 0.05c-1.12,1.98 -2.26,3.96 -3.4,5.94l-0.02 0 0 0.03 -1.23 2.1 -0.05 0 0 0.09 -1.22 2.05 -0.07 0 0 0.12 -1.21 2.02 -0.07 0 0 0.12 -1.22 2.02 -0.06 0 0 0.09 -1.25 2.04 -0.03 0 0 0.06c-1.41,2.27 -2.83,4.53 -4.27,6.78l-0.01 0 0 0.01 -0.81 1.27 -0.04 0 0 0.06 -0.8 1.23 -0.06 0 0 0.09 -0.77 1.19 -0.08 0 0 0.12 -0.77 1.16 -0.09 0 0 0.14 -0.76 1.14 -0.09 0 0 0.14 -0.76 1.14 -0.1 0 0 0.15 -0.77 1.14 -0.08 0 0 0.12 -0.79 1.16 -0.07 0 0 0.1 -0.81 1.18 -0.04 0 0 0.07 -0.84 1.21 -0.02 0 0 0.03c-0.98,1.42 -1.98,2.84 -2.98,4.25l-0.01 0 0 0.01 -1.21 1.7 -0.07 0 0 0.1 -0.86 1.18 0 0 0 0 -0.31 0.43 -0.11 0 0 0.16 -0.82 1.12 -0.04 0 0 0.05 -0.28 0.38 -0.15 0 0 0.2 -0.79 1.08 -0.06 0 0 0.08 -1.22 1.63 -0.06 0 0 0.09 -1.22 1.62 -0.07 0 0 0.08 -1.24 1.63 -0.04 0 0 0.05c-0.97,1.27 -1.96,2.54 -2.95,3.8l-0.04 0 0 0.05 -1.65 2.08 -0.06 0 0 0.08 -0.28 0.35 -0.15 0 0 0.18 -1.23 1.53 -0.05 0 0 0.06 -0.3 0.37 -0.13 0 0 0.16 -1.27 1.55 -0.01 0 0 0.01 -0.34 0.42 -0.09 0 0 0.1 -0.26 0.32 -0.16 0 0 0.2 -1.27 1.51 -0.02 0 0 0.03 -0.34 0.4 -0.08 0 0 0.11c-0.7,0.82 -1.39,1.64 -2.1,2.45l-0.04 0 0 0.06c-0.84,0.98 -1.69,1.96 -2.55,2.94l-0.02 0 0 0.02 -0.35 0.4 -0.07 0 0 0.09c-0.99,1.12 -1.98,2.23 -2.98,3.33l-0.02 0 0 0.02 -0.36 0.41 -0.06 0 0 0.07 -0.33 0.36 -0.1 0 0 0.11 -0.29 0.32 -0.14 0 0 0.14 -0.25 0.28 -0.18 0 0 0.19c-1.12,1.23 -2.25,2.45 -3.4,3.66l-0.02 0 0 0.02 -0.38 0.41 -0.04 0 0 0.05 -0.36 0.38 -0.07 0 0 0.07 -0.34 0.35 -0.09 0 0 0.09 -0.32 0.34 -0.11 0 0 0.11c-2.58,2.71 -5.22,5.38 -7.91,8.01l-0.21 0 0 0.2 -0.23 0.23 -0.19 0 0 0.18 -0.25 0.25 -0.18 0 0 0.17 -0.26 0.25 -0.17 0 0 0.17 -0.27 0.26 -0.16 0 0 0.15 -0.29 0.28 -0.13 0 0 0.13 -0.32 0.3 -0.11 0 0 0.11 -0.33 0.31 -0.1 0 0 0.1 -0.35 0.33 -0.08 0 0 0.07 -0.37 0.36 -0.05 0 0 0.05 -0.41 0.38 -0.02 0 0 0.02c-1.53,1.44 -3.07,2.87 -4.63,4.28l-0.92 0.83 -0.01 0 0 0c-1.1,1 -2.21,2 -3.33,2.99l-0.09 0 0 0.08 -0.39 0.35 -0.03 0 0 0.02c-0.96,0.85 -1.92,1.7 -2.88,2.54l-0.12 0 0 0.1 -0.38 0.33 -0.04 0 0 0.04c-1.14,0.99 -2.28,1.97 -3.42,2.95l0 0 0 0c-1.68,1.44 -3.36,2.86 -5.05,4.27l-0.08 0 0 0.07c-0.83,0.69 -1.67,1.38 -2.51,2.07l-0.06 0 0 0.05 -2.02 1.66 -0.11 0 0 0.09 -0.42 0.34 -0.01 0 0 0.01 -2.1 1.7 -0.04 0 0 0.03 -2.1 1.68 -0.04 0 0 0.03c-1.97,1.57 -3.96,3.13 -5.96,4.67l-0.02 0 0 0.02 -1.65 1.26 -0.06 0 0 0.05 -1.62 1.23 -0.09 0 0 0.07 -1.61 1.22 -0.1 0 0 0.07c-3.25,2.44 -6.52,4.84 -9.82,7.19l-0.01 0 0 0.01 -1.19 0.85 -0.09 0 0 0.07c-0.98,0.69 -1.96,1.38 -2.94,2.07l-0.06 0 0 0.03 -1.17 0.82 -0.11 0 0 0.08c-1.83,1.27 -3.67,2.52 -5.52,3.77l-0.03 0 0 0.02 -1.24 0.83 -0.05 0 0 0.03 -1.22 0.83 -0.06 0 0 0.03 -1.24 0.82 -0.04 0 0 0.03 -1.26 0.83 -0.02 0 0 0.01 -1.28 0.84 -0.01 0 0 0c-1.1,0.72 -2.2,1.43 -3.31,2.14l-0.1 0 0 0.07 -1.24 0.78 -0.05 0 0 0.03c-2.26,1.44 -4.53,2.85 -6.81,4.25l-0.03 0 0 0.02 -2.08 1.26 -0.05 0 0 0.03 -2.08 1.25 -0.06 0 0 0.04 -2.1 1.24 -0.04 0 0 0.03c-2.68,1.58 -5.38,3.15 -8.1,4.68l-0.02 0 0 0.01 -0.74 0.41 -0.11 0 0 0.07c-0.99,0.55 -1.97,1.1 -2.96,1.64l-0.04 0 0 0.03 -0.73 0.4 -0.12 0 0 0.07c-1.27,0.69 -2.53,1.38 -3.81,2.07l-0.04 0 0 0.02 -0.76 0.41 -0.09 0 0 0.05c-2.13,1.13 -4.27,2.26 -6.41,3.36l0 0 0 0.01 -0.84 0.42 -0.02 0 0 0.01 -0.82 0.42 -0.04 0 0 0.02 -0.79 0.41 -0.06 0 0 0.03 -0.78 0.39 -0.07 0 0 0.04 -0.77 0.39 -0.09 0 0 0.04 -0.77 0.39 -0.08 0 0 0.04 -0.78 0.39 -0.08 0 0 0.04 -0.78 0.39 -0.07 0 0 0.03 -0.79 0.39 -0.07 0 0 0.03 -0.8 0.4 -0.05 0 0 0.02 -0.83 0.41 -0.03 0 0 0.01 -0.85 0.41 0 0 0 0.01c-2.09,1.01 -4.18,2.01 -6.27,2.99l-0.15 0 0 0.06 -0.78 0.36 -0.07 0 0 0.04 -0.85 0.39 -0.01 0 0 0c-1.24,0.58 -2.49,1.15 -3.74,1.71l-0.1 0 0 0.05 -0.84 0.38 -0.02 0 0 0c-1.27,0.58 -2.56,1.15 -3.84,1.71l0 0 0 0c-0.98,0.43 -1.97,0.86 -2.95,1.28l-0.05 0 0 0.02c-0.98,0.42 -1.97,0.85 -2.95,1.26l-0.04 0 0 0.02 -2.01 0.84 -0.12 0 0 0.05 -1.94 0.8 -0.2 0 0 0.08 -0.85 0.35 -0.01 0 0 0 -2.09 0.86 -0.04 0 0 0.01 -2.11 0.84 -0.03 0 0 0.01 -2.13 0.85 -0.01 0 0 0c-1.1,0.43 -2.2,0.85 -3.3,1.28l-0.12 0 0 0.04c-1.09,0.42 -2.18,0.83 -3.28,1.24l-0.14 0 0 0.05c-1.11,0.42 -2.21,0.83 -3.33,1.23l-0.09 0 0 0.03 -1.08 0.4 -0.2 0 0 0.07c-1.13,0.41 -2.25,0.81 -3.38,1.21l-0.04 0 0 0.01c-3.74,1.33 -7.5,2.61 -11.29,3.84l-0.25 0 0 0.08 -1.08 0.35 -0.2 0 0 0.06 -1.12 0.36 -0.16 0 0 0.06 -1.18 0.37 -0.11 0 0 0.03 -1.26 0.4 -0.02 0 0 0.01c-2.8,0.87 -5.62,1.72 -8.44,2.55l-0.11 0 0 0.03c-0.94,0.28 -1.88,0.56 -2.83,0.83l-0.16 0 0 0.04 -2.87 0.81 -0.12 0 0 0.04 -2.98 0.82 -0.01 0 0 0c-2.69,0.73 -5.39,1.44 -8.1,2.13l-0.03 0 0 0.01 -1.66 0.42 -0.05 0 0 0.01 -1.66 0.42 -0.05 0 0 0.01c-2.97,0.74 -5.96,1.44 -8.96,2.13l-0.01 0 0 0c-1.27,0.29 -2.54,0.57 -3.81,0.85l-0.04 0 0 0.01 -1.94 0.42 -0.2 0 0 0.04 -1.8 0.39 -0.33 0 0 0.07c-1.27,0.26 -2.53,0.52 -3.8,0.78l-0.05 0 0 0.01 -2.09 0.42 -0.05 0 0 0.01 -2.13 0.42 0 0 0 0c-1.51,0.29 -3.02,0.57 -4.52,0.85l-0.19 0 0 0.04c-1.51,0.28 -3.04,0.55 -4.56,0.82l-0.14 0 0 0.02 -2.34 0.4 -0.22 0 0 0.04 -2.32 0.39 -0.25 0 0 0.04c-0.79,0.13 -1.59,0.26 -2.39,0.39l-0.17 0 0 0.03 -2.55 0.4c-5.91,0.92 -46.48,1.61 -106.77,2.13l-0.11 0 0 0c-41.6,0.36 -92.58,0.64 -148.18,0.86l-0.14 0c-47.9,0.18 -99.17,0.32 -150.77,0.43l-0.54 0 0 0c-215.68,0.42 -436.47,0.23 -436.47,0.23 -2.76,0.31 -5.6,0.62 -8.07,0.21z"/>
  <path class="fil1" d="M6.29 1458.67l0 -0.03 -0.16 0c-0.32,-0.07 -0.64,-0.17 -0.97,-0.29 -0.36,-0.14 -0.7,-0.3 -1.01,-0.46l0 -0.11 -0.21 0c-0.23,-0.13 -0.44,-0.26 -0.65,-0.4l0 -0.03 -0.04 0c-0.68,-0.47 -1.23,-1.01 -1.67,-1.61l0 -0.1 -0.06 0c-0.32,-0.45 -0.58,-0.94 -0.79,-1.46l0 -0.25 -0.1 0c-1.55,-4.27 0.25,-10.27 0.24,-14.91 -0.15,-217.38 -0.1,-434.75 -0.08,-652.13 0,-74.86 0.91,-149.73 -0.2,-224.58 -0.11,-7.89 -0.07,-15.73 0.12,-23.53l0.02 0 0 -1.01c0.08,-3.09 0.19,-6.17 0.32,-9.24l0.11 0 0 -2.55c0.1,-2.15 0.21,-4.29 0.33,-6.43l0.09 0 0 -1.61c0.23,-3.75 0.49,-7.49 0.79,-11.21l0.07 0 0 -0.85c0.1,-1.29 0.22,-2.57 0.33,-3.86l0.1 0 0 -1.13c0.1,-1.19 0.22,-2.38 0.34,-3.57l0.08 0 0 -0.89c0.13,-1.27 0.26,-2.54 0.39,-3.81l0.04 0 0 -0.36c0.26,-2.45 0.54,-4.89 0.83,-7.33l0.03 0 0 -0.22c0.11,-0.93 0.21,-1.85 0.33,-2.78l0.09 0 0 -0.71c0.12,-0.9 0.24,-1.8 0.36,-2.71l0.07 0 0 -0.58 0.33 -2.41 0.1 0 0 -0.74 0.32 -2.25 0.11 0 0 -0.76 0.39 -2.66 0.03 0 0 -0.24 0.42 -2.75 0.01 0 0 -0.06c0.26,-1.69 0.54,-3.38 0.82,-5.07l0.04 0 0 -0.24c0.12,-0.78 0.25,-1.55 0.38,-2.32l0.04 0 0 -0.26 0.33 -1.88 0.1 0 0 -0.56 0.35 -2.01 0.08 0 0 -0.43 0.31 -1.7 0.12 0 0 -0.62 0.36 -1.95 0.06 0 0 -0.33c0.12,-0.6 0.22,-1.21 0.34,-1.8l0.09 0 0 -0.47c0.14,-0.7 0.28,-1.4 0.42,-2.1l0.01 0 0 -0.05 0.41 -2.09 0.02 0 0 -0.06 0.42 -2.07 0 0 0 -0.03c0.27,-1.27 0.54,-2.55 0.81,-3.82l0.05 0 0 -0.24 0.41 -1.9 0.02 0 0 -0.07 0.36 -1.64 0.06 0 0 -0.28 0.32 -1.43 0.11 0 0 -0.49 0.37 -1.65 0.06 0 0 -0.23 0.34 -1.48 0.09 0 0 -0.34 0.32 -1.36 0.1 0 0 -0.47 0.4 -1.67 0.03 0 0 -0.12 0.39 -1.59 0.04 0 0 -0.14c0.54,-2.24 1.11,-4.47 1.69,-6.7l0.02 0 0 -0.08 0.42 -1.63 0 0 0 -0.03 0.33 -1.25 0.1 0 0 -0.37 0.37 -1.34 0.06 0 0 -0.24 0.4 -1.47 0.03 0 0 -0.1 0.32 -1.19 0.1 0 0 -0.39 0.37 -1.32 0.06 0 0 -0.2 0.3 -1.08 0.13 0 0 -0.44 0.36 -1.27 0.07 0 0 -0.24 0.41 -1.47 0.01 0 0 -0.03 0.37 -1.25 0.06 0 0 -0.2c0.69,-2.36 1.4,-4.72 2.12,-7.07l0.02 0 0 -0.04 0.38 -1.24 0.05 0 0 -0.15 0.34 -1.13 0.08 0 0 -0.26 0.33 -1.02 0.1 0 0 -0.31 0.31 -0.97 0.12 0 0 -0.37c0.28,-0.87 0.56,-1.75 0.84,-2.63l0.01 0 0 -0.03 0.42 -1.25 0.01 0 0 -0.04 0.41 -1.24 0.02 0 0 -0.05 0.41 -1.23 0.02 0 0 -0.05 0.41 -1.24 0.01 0 0 -0.05 0.42 -1.23 0.01 0 0 -0.03c0.82,-2.42 1.67,-4.83 2.53,-7.23l0.04 0 0 -0.11 0.42 -1.18 0 0 0 -0.01c0.26,-0.71 0.51,-1.42 0.76,-2.12l0.1 0 0 -0.25 0.38 -1.04 0.04 0 0 -0.11 0.75 -2.02 0.11 0 0 -0.29 0.37 -1 0.06 0 0 -0.15 0.42 -1.13 0 0 0.33 -0.85 0.1 0 0 -0.26 0.39 -1.03 0.04 0 0 -0.08 0.79 -2.05 0.07 0 0 -0.18c0.42,-1.08 0.85,-2.16 1.28,-3.24l0 0 0 -0.01 0.85 -2.13 0 0 0 -0.01c0.69,-1.71 1.39,-3.42 2.09,-5.12l0.05 0 0 -0.11 0.85 -2.03 0 0 0 -0.02 0.36 -0.83 0.07 0 0 -0.18 0.83 -1.96 0.03 0 0 -0.05 0.34 -0.8 0.08 0 0 -0.21 0.84 -1.93 0.02 0 0 -0.04 0.36 -0.81 0.07 0 0 -0.16 0.3 -0.7 0.12 0 0 -0.28c0.28,-0.62 0.54,-1.24 0.82,-1.86l0.04 0 0 -0.09 0.34 -0.76 0.09 0 0 -0.19c0.41,-0.94 0.84,-1.87 1.26,-2.8l0.02 0 0 -0.04c0.83,-1.85 1.68,-3.69 2.54,-5.52l0.02 0 0 -0.05 0.38 -0.81 0.05 0 0 -0.11 0.35 -0.74 0.08 0 0 -0.16 0.33 -0.7 0.1 0 0 -0.2 0.31 -0.65 0.11 0 0 -0.24c1.12,-2.35 2.26,-4.69 3.42,-7.03l0 0 0 -0.01 0.42 -0.84 0.01 0 0 -0.03 0.41 -0.83 0.02 0 0 -0.03 0.42 -0.82 0 0 0 -0.02 0.43 -0.84 0 0 0 0c1.37,-2.72 2.76,-5.42 4.18,-8.12l0.1 0 0 -0.19 0.35 -0.66 0.07 0 0 -0.15 0.38 -0.71 0.05 0 0 -0.09 0.41 -0.76 0.02 0 0 -0.04c0.52,-0.98 1.05,-1.97 1.58,-2.95l0.13 0 0 -0.25 0.33 -0.61 0.1 0 0 -0.17 0.37 -0.68 0.05 0 0 -0.1 0.42 -0.76 0.01 0 0 -0.01 1.17 -2.13 0.11 0 0 -0.21 0.35 -0.64 0.08 0 0 -0.14 0.41 -0.72 0.02 0 0 -0.04c1.67,-2.99 3.37,-5.96 5.1,-8.93l0.03 0 0 -0.05 1.23 -2.09 0.05 0 0 -0.09 1.21 -2.05 0.07 0 0 -0.11 1.21 -2.02 0.07 0 0 -0.13 1.23 -2.01 0.06 0 0 -0.1c0.41,-0.68 0.82,-1.36 1.24,-2.04l0.04 0 0 -0.07 1.28 -2.07 0 0 0 0c1.69,-2.71 3.39,-5.42 5.13,-8.12l0 0 0 0 0.83 -1.28 0.03 0 0 -0.04 0.81 -1.24 0.04 0 0 -0.07 0.79 -1.21 0.07 0 0 -0.1 0.77 -1.19 0.08 0 0 -0.12 0.77 -1.16 0.08 0 0 -0.13 0.78 -1.15 0.08 0 0 -0.12 0.77 -1.16 0.08 0 0 -0.12 0.78 -1.17 0.08 0 0 -0.11 0.79 -1.17 0.06 0 0 -0.09 0.82 -1.19 0.04 0 0 -0.06 0.84 -1.22 0.01 0 0 -0.03c0.98,-1.42 1.96,-2.83 2.95,-4.25l0.05 0 0 -0.06 0.85 -1.22 0 0 0 -0.01 1.2 -1.7 0.08 0 0 -0.11 0.84 -1.17 0.02 0 0 -0.03 0.29 -0.4 0.14 0 0 -0.19 0.77 -1.09 0.08 0 0 -0.11 0.84 -1.17 0.02 0 0 -0.03 0.29 -0.4 0.13 0 0 -0.18 0.81 -1.1 0.05 0 0 -0.07 1.2 -1.64 0.08 0 0 -0.12 1.17 -1.59 0.11 0 0 -0.15 0.85 -1.14 0.01 0 0 -0.01 1.26 -1.7 0.02 0 0 -0.02c0.85,-1.13 1.7,-2.26 2.56,-3.39l0 0 0 -0.01 1.63 -2.13 0.08 0 0 -0.11 1.23 -1.6 0.06 0 0 -0.07 1.28 -1.64 0 0 0 0 0.33 -0.43 0.1 0 0 -0.12 1.23 -1.59 0.05 0 0 -0.06 0.29 -0.37 0.14 0 0 -0.18 1.21 -1.53 0.07 0 0 -0.08 1.63 -2.05 0.08 0 0 -0.1 1.64 -2.04 0.07 0 0 -0.08 1.67 -2.06 0.04 0 0 -0.05c0.49,-0.61 0.98,-1.22 1.48,-1.83 0.78,-0.94 1.56,-1.88 2.35,-2.82l0.01 0 0 -0.02 0.34 -0.41 0.09 0 0 -0.11c0.56,-0.67 1.12,-1.35 1.69,-2.02l0.02 0 0 -0.03 0.34 -0.4 0.09 0 0 -0.11 0.27 -0.32 0.16 0 0 -0.18 1.66 -1.96 0.05 0 0 -0.05 0.31 -0.37 0.11 0 0 -0.13 0.26 -0.3 0.17 0 0 -0.2c0.55,-0.65 1.1,-1.3 1.66,-1.94l0.05 0 0 -0.06 0.32 -0.36 0.11 0 0 -0.13 0.26 -0.3 0.17 0 0 -0.19 1.69 -1.95 0.02 0 0 -0.01 0.36 -0.42 0.06 0 0 -0.07 0.31 -0.36 0.12 0 0 -0.13c0.84,-0.96 1.69,-1.91 2.53,-2.86l0.04 0 0 -0.04 0.34 -0.38 0.08 0 0 -0.09c1,-1.12 1.99,-2.23 2.99,-3.33l0 0 0 -0.01c1.56,-1.72 3.13,-3.43 4.7,-5.12l0.01 0 0 -0.01 0.39 -0.42 0.03 0 0 -0.03 0.37 -0.4 0.06 0 0 -0.06 0.35 -0.37 0.08 0 0 -0.09 0.32 -0.33 0.11 0 0 -0.12 0.28 -0.31 0.14 0 0 -0.15 0.27 -0.28 0.16 0 0 -0.17 0.24 -0.26 0.19 0 0 -0.2 0.21 -0.22 0.22 0 0 -0.24c1.41,-1.5 2.84,-2.98 4.27,-4.46l0 0 0 -0.01 0.41 -0.42 0.02 0 0 -0.02 0.39 -0.41 0.03 0 0 -0.04 0.38 -0.39 0.05 0 0 -0.05 0.37 -0.37 0.06 0 0 -0.07 0.36 -0.36 0.07 0 0 -0.07 0.35 -0.36 0.07 0 0 -0.08 0.35 -0.35 0.08 0 0 -0.08 0.34 -0.34 0.09 0 0 -0.1c1.95,-1.98 3.9,-3.94 5.87,-5.89l0.11 0 0 -0.11 0.32 -0.32 0.11 0 0 -0.11 0.32 -0.31 0.11 0 0 -0.11 0.32 -0.32 0.11 0 0 -0.1 0.33 -0.33 0.09 0 0 -0.09 0.35 -0.33 0.08 0 0 -0.09 0.36 -0.34 0.07 0 0 -0.07 0.37 -0.36 0.06 0 0 -0.05 0.38 -0.38 0.04 0 0 -0.04 0.4 -0.38 0.03 0 0 -0.03 0.41 -0.4 0.02 0 0 -0.02 0.42 -0.41 0.01 0 0 0c1.63,-1.58 3.27,-3.15 4.93,-4.7l0.2 0 0 -0.19 0.25 -0.24 0.17 0 0 -0.16 0.28 -0.27 0.15 0 0 -0.14 0.3 -0.28 0.13 0 0 -0.12 0.33 -0.31 0.1 0 0 -0.09 0.36 -0.34 0.06 0 0 -0.06 0.41 -0.37 0.02 0 0 -0.02c1.69,-1.57 3.39,-3.13 5.1,-4.68l0.03 0 0 -0.02c1.1,-1 2.19,-1.99 3.3,-2.97l0.12 0 0 -0.11 0.35 -0.32 0.08 0 0 -0.06 0.41 -0.37 0.01 0 0 -0.01c0.65,-0.57 1.29,-1.13 1.94,-1.7l0.2 0 0 -0.17 0.28 -0.25 0.15 0 0 -0.13 0.34 -0.3 0.09 0 0 -0.07 0.4 -0.36 0.02 0 0 -0.02 1.94 -1.69 0.2 0 0 -0.16 0.3 -0.26 0.13 0 0 -0.11 0.37 -0.32 0.05 0 0 -0.05 1.95 -1.66 0.19 0 0 -0.16 0.31 -0.27 0.12 0 0 -0.1 0.38 -0.33 0.05 0 0 -0.04c0.83,-0.7 1.67,-1.4 2.5,-2.09l0.06 0 0 -0.05c1.7,-1.42 3.41,-2.83 5.12,-4.23l0.01 0 0 -0.01 1.57 -1.27 0.14 0 0 -0.12 0.38 -0.31 0.05 0 0 -0.03 1.55 -1.25 0.16 0 0 -0.13 0.38 -0.3 0.05 0 0 -0.04 1.56 -1.24 0.14 0 0 -0.11 0.4 -0.32 0.03 0 0 -0.02 1.05 -0.83 0.24 0 0 -0.19 0.3 -0.24 0.12 0 0 -0.1 0.42 -0.33 0.01 0 0 0 1.1 -0.85 0.18 0 0 -0.14 0.37 -0.29 0.06 0 0 -0.04 1.05 -0.81 0.23 0 0 -0.18 0.32 -0.25 0.11 0 0 -0.08c0.52,-0.4 1.04,-0.81 1.56,-1.2l0.15 0 0 -0.12 0.41 -0.31 0.02 0 0 -0.01 1.69 -1.27 0.02 0 0 -0.02 1.68 -1.27 0.03 0 0 -0.02c1.52,-1.14 3.06,-2.27 4.59,-3.4l0.11 0 0 -0.07 1.65 -1.21 0.06 0 0 -0.04 1.12 -0.81 0.16 0 0 -0.12 1.04 -0.74 0.24 0 0 -0.17 0.36 -0.25 0.07 0 0 -0.06 1.12 -0.8 0.16 0 0 -0.11 1.04 -0.75 0.24 0 0 -0.17 0.36 -0.25 0.07 0 0 -0.05 1.16 -0.81 0.12 0 0 -0.08 1.11 -0.77 0.18 0 0 -0.12 1.05 -0.74 0.23 0 0 -0.15 0.39 -0.27 0.04 0 0 -0.03 1.19 -0.83 0.09 0 0 -0.06 1.18 -0.79 0.1 0 0 -0.07c2.51,-1.71 5.04,-3.4 7.58,-5.06l0.11 0 0 -0.08 1.18 -0.78 0.11 0 0 -0.07 1.21 -0.78 0.07 0 0 -0.05 1.27 -0.81 0.01 0 0 -0.01 0.65 -0.42 0.21 0 0 -0.13 1.13 -0.72 0.15 0 0 -0.1 1.18 -0.76 0.1 0 0 -0.06 0.58 -0.36 0.28 0 0 -0.17 0.41 -0.26 0.01 0 0 -0.01 0.68 -0.42 0.18 0 0 -0.11 1.19 -0.74 0.09 0 0 -0.06 1.28 -0.8 0 0 0 0 0.69 -0.42 0.17 0 0 -0.11 1.23 -0.75 0.05 0 0 -0.03 2.07 -1.25 0.07 0 0 -0.05c1.4,-0.84 2.8,-1.68 4.21,-2.52l0.06 0 0 -0.03 2.12 -1.25 0.02 0 0 -0.01 0.7 -0.42 0.15 0 0 -0.08 2.07 -1.2 0.07 0 0 -0.04 0.67 -0.39 0.19 0 0 -0.1 0.56 -0.32 0.29 0 0 -0.17 1.21 -0.69 0.07 0 0 -0.04 0.67 -0.39 0.19 0 0 -0.1 0.56 -0.32 0.29 0 0 -0.17 1.25 -0.69 0.04 0 0 -0.02 0.72 -0.41 0.13 0 0 -0.07 0.65 -0.35 0.21 0 0 -0.12c0.69,-0.39 1.39,-0.78 2.09,-1.17l0.04 0 0 -0.02 0.74 -0.4 0.12 0 0 -0.07 0.67 -0.36 0.18 0 0 -0.1c1,-0.54 1.99,-1.07 2.99,-1.61l0 0c3.26,-1.74 6.53,-3.45 9.82,-5.13l0.01 0 0 0 0.84 -0.43 0.02 0 0 -0.01 0.82 -0.41 0.04 0 0 -0.02 0.8 -0.41 0.05 0 0 -0.03 0.79 -0.4 0.07 0 0 -0.03 0.79 -0.4 0.06 0 0 -0.02 0.81 -0.4 0.04 0 0 -0.02 0.83 -0.41 0.03 0 0 -0.02 0.84 -0.41 0.01 0 0 -0.01 0.86 -0.42 0 0c2.96,-1.45 5.94,-2.87 8.93,-4.27l0.05 0 0 -0.02c1.21,-0.57 2.43,-1.13 3.65,-1.69l0.19 0 0 -0.09 0.74 -0.34 0.12 0 0 -0.05 0.82 -0.38 0.03 0 0 -0.01 1.88 -0.84 0.26 0 0 -0.12 0.7 -0.31 0.15 0 0 -0.07 0.81 -0.36 0.05 0 0 -0.02 0.9 -0.4 0.38 0 0 -0.17 0.59 -0.26 0.27 0 0 -0.12 0.71 -0.31 0.14 0 0 -0.06 0.85 -0.37 0.01 0 0 0 0.98 -0.42 0.3 0 0 -0.13 0.68 -0.3 0.17 0 0 -0.07 0.82 -0.36 0.04 0 0 -0.01 1.97 -0.84 0.17 0 0 -0.07c0.96,-0.41 1.93,-0.81 2.89,-1.21l0.1 0 0 -0.04c1.7,-0.71 3.41,-1.41 5.12,-2.1l0.01 0 0 0 2.1 -0.86 0.03 0 0 -0.01 1.04 -0.41 0.25 0 0 -0.1 0.84 -0.33 0.01 0 0 -0.01 1.09 -0.42 0.19 0 0 -0.08 0.9 -0.35 0.39 0 0 -0.15 0.7 -0.27 0.15 0 0 -0.06 0.95 -0.37 0.33 0 0 -0.13 0.78 -0.3 0.08 0 0 -0.03 1.06 -0.4 0.22 0 0 -0.08 0.91 -0.34 0.37 0 0 -0.14 0.76 -0.29 0.1 0 0 -0.04 1.03 -0.39 0.25 0 0 -0.09 2.06 -0.76 0.08 0 0 -0.03 1.1 -0.4 0.18 0 0 -0.07c3.54,-1.29 7.09,-2.55 10.66,-3.78l0.03 0 0 -0.01 1.24 -0.42 0.04 0 0 -0.01 1.23 -0.41 0.05 0 0 -0.02 1.22 -0.41 0.06 0 0 -0.02 1.2 -0.41 0.08 0 0 -0.02 1.21 -0.4 0.08 0 0 -0.03 1.23 -0.4 0.05 0 0 -0.02 1.27 -0.41 0.44 0 0 -0.14 0.88 -0.29 0.4 0 0 -0.13 0.92 -0.29 0.36 0 0 -0.12 0.98 -0.31 0.31 0 0 -0.1 1.06 -0.33 0.22 0 0 -0.07 1.15 -0.36 0.13 0 0 -0.04 1.24 -0.38 0.04 0 0 -0.02c1.39,-0.43 2.78,-0.85 4.17,-1.27l0.11 0 0 -0.03 2.75 -0.82 0.24 0 0 -0.07 1.19 -0.36 0.09 0 0 -0.02 1.41 -0.41 0.3 0 0 -0.08 1.19 -0.34 0.09 0 0 -0.03 1.39 -0.4 0.32 0 0 -0.09 1.17 -0.34 0.54 0 0 -0.15 1 -0.28 0.29 0 0 -0.07 1.27 -0.35 0.44 0 0 -0.12 1.12 -0.31 0.16 0 0 -0.05 1.39 -0.38 0.32 0 0 -0.08 1.28 -0.35 0 0 0 0 1.63 -0.42 0.08 0 0 -0.03c3.3,-0.87 6.61,-1.72 9.94,-2.54l0.32 0 0 -0.08 1.42 -0.35 0.29 0 0 -0.06 1.5 -0.36 0.21 0 0 -0.05 1.58 -0.38 0.56 0 0 -0.13 1.23 -0.3 0.48 0 0 -0.11 1.37 -0.31 0.33 0 0 -0.08 1.55 -0.35 0.16 0 0 -0.04 1.72 -0.39 0.42 0 0 -0.1 1.48 -0.33 0.23 0 0 -0.05c1.24,-0.27 2.48,-0.54 3.71,-0.8l0.14 0 0 -0.03c2.68,-0.58 5.37,-1.14 8.07,-1.68l0.48 0 0 -0.1 1.66 -0.33 0.47 0 0 -0.09 1.73 -0.34 0.41 0 0 -0.08 1.79 -0.34 0.35 0 0 -0.07 1.91 -0.36 0.65 0 0 -0.12 1.68 -0.31 0.46 0 0 -0.08 1.87 -0.35 0.27 0 0 -0.05 2.13 -0.37 0.43 0 0 -0.08 2.05 -0.35 0.09 0 0 -0.02c1.65,-0.28 3.31,-0.56 4.97,-0.84l0.16 0 0 -0.02 2.48 -0.4 0.08 0 0 -0.02c0.86,-0.13 1.71,-0.28 2.56,-0.41l0.44 0 0 -0.07c0.79,-0.12 1.59,-0.24 2.39,-0.36l0.6 0 0 -0.09 2.22 -0.34 0.77 0 0 -0.11 2.16 -0.31 0.83 0 0 -0.12 2.21 -0.31 0.78 0 0 -0.11 2.3 -0.32 0.27 0 0 -0.03c2.07,-0.28 4.15,-0.56 6.23,-0.82 1.2,-0.15 2.4,-0.29 3.59,-0.43l0.86 0 0 -0.1c1.01,-0.11 2.01,-0.22 3.01,-0.33l1.27 0 0 -0.13c1,-0.1 2,-0.2 3,-0.3l1.27 0 0 -0.12c1.18,-0.1 2.35,-0.2 3.53,-0.3l1.18 0 0 -0.1c3.65,-0.3 7.3,-0.55 10.95,-0.76l1.44 0 0 -0.08c2.35,-0.13 4.7,-0.24 7.05,-0.35l1.93 0 0 -0.08c3.61,-0.14 7.22,-0.25 10.82,-0.34l2 0 0 -0.05c13.4,-0.3 26.8,-0.28 40.23,-0.29 74.87,-0.06 149.75,-0.08 224.62,-0.09l81.68 0c115.72,0.01 231.43,0.07 347.15,0.15 1.7,0 3.43,-0.09 5.18,-0.18l0 0c1.68,-0.09 3.38,-0.17 5.13,-0.18l0.52 0c2.17,0.01 4.41,0.15 6.75,0.58l0 0.06 0.32 0c0.6,0.11 1.2,0.25 1.82,0.4l0 0.02 0.08 0c2.85,0.73 5.84,1.92 9.02,3.83l-4.37 3.01 -0.03 0 0 0.03c-2.27,1.56 -4.54,3.12 -6.81,4.67l-0.03 0 0 0.03c-2.71,1.85 -5.41,3.69 -8.12,5.53l0 0 0 0c-6.13,4.17 -12.26,8.29 -18.38,12.4l0 0 0 0 -1.27 0.85 -0.01 0 0 0.01c-43.92,29.45 -87.21,57.78 -127.1,90.14l-1.12 0.9 -0.01 0 0 0.01c-1.27,1.02 -2.55,2.01 -3.82,2.98l-0.03 0 0 0.02c-0.56,0.43 -1.11,0.85 -1.67,1.26l-0.04 0 0 0.03c-0.57,0.43 -1.14,0.84 -1.71,1.25l0 0 0 0.01c-1.41,1.02 -2.82,2.01 -4.24,2.99l-0.04 0 0 0.02 -1.21 0.83 -0.07 0 0 0.05 -1.21 0.81 -0.07 0 0 0.04 -1.23 0.81 -0.05 0 0 0.03c-1.8,1.17 -3.6,2.3 -5.42,3.39l-0.14 0 0 0.09c-0.67,0.4 -1.35,0.8 -2.02,1.19l-0.12 0 0 0.07c-0.7,0.41 -1.41,0.82 -2.11,1.21l-0.02 0 0 0.02c-1.56,0.88 -3.12,1.73 -4.69,2.55l-0.02 0 0 0.01 -0.79 0.42 -0.06 0 0 0.03 -0.78 0.39 -0.07 0 0 0.04 -0.76 0.39 -0.1 0 0 0.05c-1.12,0.57 -2.24,1.12 -3.37,1.66l-0.05 0 0 0.02 -0.85 0.41 0 0 0 0c-1.24,0.59 -2.48,1.15 -3.72,1.71l-0.13 0 0 0.06 -0.84 0.37 -0.02 0 0 0c-1.68,0.74 -3.36,1.45 -5.05,2.13l-0.08 0 0 0.03c-0.69,0.28 -1.39,0.56 -2.08,0.83l-0.05 0 0 0.02c-1.12,0.43 -2.23,0.85 -3.35,1.26l-0.07 0 0 0.03c-4.8,1.75 -9.64,3.3 -14.53,4.67l-0.01 0 0 0 -1.53 0.43 -0.17 0 0 0.05c-2.8,0.75 -5.6,1.44 -8.42,2.09l-0.13 0 0 0.03c-1.26,0.28 -2.53,0.56 -3.79,0.82l-0.06 0 0 0.01c-1.4,0.3 -2.81,0.58 -4.22,0.85l-0.06 0 0 0.01c-3.34,0.63 -6.71,1.19 -10.1,1.7l-0.15 0 0 0.02c-0.96,0.14 -1.92,0.27 -2.88,0.4l-0.12 0 0 0.02c-2.24,0.31 -4.49,0.58 -6.76,0.84l-0.07 0 0 0.01c-1.32,0.15 -2.65,0.28 -3.98,0.42l-0.3 0 0 0.03c-3.27,0.32 -6.55,0.59 -9.87,0.82l-0.39 0 0 0.03c-2.2,0.15 -4.41,0.28 -6.62,0.4l-0.22 0 0 0.01c-3.45,0.18 -6.92,0.31 -10.42,0.42l-0.69 0 0 0.02c-5.84,0.16 -11.75,0.23 -17.74,0.23l-417.61 0 -4.79 -0.31c-118.87,2.63 -214.06,54.34 -281.7,151.25 -44.63,63.93 -66.06,136.55 -69.51,212.93 -7.16,158.44 -6.14,316.97 -4.97,475.5l0 0.3 0 0c0.15,19.57 0.29,39.14 0.43,58.71l0 1.13 0 0c0.18,25.56 0.33,51.13 0.42,76.7l0 12.63 0.05 0c0.05,19.1 0.07,38.19 0.04,57.28l-0.09 0 0 31.94c-0.03,7.99 -0.08,15.98 -0.13,23.98 -0.02,2.51 -0.11,4.96 -0.26,7.34l-0.03 0 0 0.5c-0.1,1.42 -0.23,2.82 -0.38,4.2l-0.05 0 0 0.42c-0.12,1.01 -0.25,2.01 -0.4,3l-0.03 0 0 0.22c-0.12,0.79 -0.25,1.57 -0.39,2.35l-0.04 0 0 0.22c-0.11,0.64 -0.24,1.28 -0.37,1.91l-0.05 0 0 0.25c-0.14,0.64 -0.28,1.27 -0.43,1.89l0 0 0 0.01c-0.14,0.57 -0.28,1.14 -0.43,1.7l0 0 0 0.01c-0.38,1.44 -0.8,2.86 -1.27,4.27l-0.01 0 0 0.03c-0.63,1.88 -1.33,3.72 -2.12,5.52l-0.02 0 0 0.04 -0.36 0.82 -0.07 0 0 0.14 -0.33 0.71 -0.09 0 0 0.2 -0.32 0.66 -0.11 0 0 0.22c-0.53,1.08 -1.1,2.14 -1.7,3.2l-0.01 0 0 0.02c-0.4,0.71 -0.82,1.41 -1.26,2.11l-0.02 0 0 0.04c-0.26,0.42 -0.52,0.83 -0.79,1.25l-0.07 0 0 0.1c-0.26,0.39 -0.52,0.79 -0.79,1.18l-0.06 0 0 0.09c-0.67,0.98 -1.37,1.94 -2.11,2.9l-0.03 0 0 0.05c-0.54,0.7 -1.09,1.39 -1.67,2.09l-0.04 0 0 0.05 -0.31 0.37 -0.12 0 0 0.14c-0.68,0.82 -1.39,1.63 -2.13,2.43l0 0 0 0.01 -0.39 0.42 -0.04 0 0 0.04 -0.36 0.39 -0.07 0 0 0.07 -0.33 0.35 -0.1 0 0 0.1 -0.32 0.33 -0.1 0 0 0.11 -0.31 0.32 -0.12 0 0 0.12 -0.31 0.3 -0.12 0 0 0.13 -0.3 0.3 -0.13 0 0 0.12 -0.31 0.31 -0.11 0 0 0.11 -0.33 0.32 -0.1 0 0 0.1 -0.34 0.32 -0.09 0 0 0.09 -0.36 0.34 -0.07 0 0 0.06 -0.39 0.37 -0.03 0 0 0.03 -0.88 0.81c-33.46,30.33 -66.02,61.61 -98.71,92.77l-0.01 0 0 0.01 -8.51 8.11 -0.04 0 0 0.03 -0.41 0.4 -0.01 0 0 0.01 -8.09 7.68 -0.04 0 0 0.03 -0.41 0.4 -0.01 0 0 0.01c-2.7,2.56 -5.41,5.12 -8.12,7.68l0 0 0 0.01 -4.16 3.93c-2,1.88 -3.97,4.55 -6.09,6.75l-0.01 0 0 0.02 -0.4 0.41 -0.03 0 0 0.02c-1.65,1.66 -3.4,2.98 -5.31,3.4l-0.25 0 0 0.04c-0.69,0.13 -1.4,0.13 -2.13,-0.01z"/>
  <path class="fil2" d="M1015.19 200.04l-489.96 0c-85.87,1.7 -161.39,36.09 -219.6,99.6 -70.27,76.67 -95.98,171.31 -97.14,271.03 -2.58,223.07 -0.87,446.2 -0.7,669.3 0.01,6.75 -3.89,16.6 3.74,19.64 7.56,3.01 12.07,-6.49 16.8,-11.4 42.14,-43.94 83.23,-88.89 126.33,-131.9 14.53,-14.51 21.26,-28.55 21.18,-49.01 -0.73,-172.72 2.38,-345.52 -1.63,-518.16 -2.08,-89.22 67.7,-164.93 167.38,-164.93l732.61 0 -13.23 -16.67c-63.91,-49.32 -127.75,-98.73 -192.04,-147.57 -13.59,-10.33 -18.65,-19.61 -38.6,-19.53l-15.14 -0.4z"/>
  <path class="fil3" d="M212.74 1259.99l0 -0.11 -0.43 0c-0.25,-0.08 -0.51,-0.17 -0.78,-0.27 -0.68,-0.28 -1.27,-0.6 -1.78,-0.98l0 -0.04 -0.05 0c-0.49,-0.36 -0.89,-0.76 -1.23,-1.2l0 -0.08 -0.07 0c-3.2,-4.24 -0.6,-11.83 -0.61,-17.34 -0.07,-95.76 -0.43,-191.52 -0.61,-287.29l0 -13.38 -0.02 0c-0.06,-36.62 -0.1,-73.24 -0.07,-109.86l0.09 0 0 -63.27c0.07,-25.07 0.16,-50.14 0.3,-75.22l0.13 0 0 -21.61c0.08,-12.17 0.17,-24.35 0.27,-36.52l0.16 0 0 -18.31c0.12,-13.42 0.26,-26.83 0.41,-40.25l0.02 0 0 -1.33 0.02 -2.26c0.06,-4.94 0.18,-9.87 0.36,-14.79l0.04 0 0 -1.14c0.11,-2.76 0.23,-5.51 0.38,-8.26l0.05 0 0 -0.88c0.12,-2.13 0.25,-4.26 0.39,-6.39l0.04 0 0 -0.61c0.13,-1.94 0.27,-3.87 0.43,-5.8l0 0c0.12,-1.57 0.25,-3.14 0.39,-4.7l0.03 0 0 -0.4c0.12,-1.3 0.24,-2.59 0.36,-3.88l0.07 0 0 -0.71c0.13,-1.33 0.26,-2.66 0.41,-3.99l0.02 0 0 -0.21c0.26,-2.5 0.55,-4.99 0.85,-7.48l0 0 0 -0.03c0.12,-0.99 0.25,-1.98 0.37,-2.96l0.06 0 0 -0.44 0.39 -2.98 0.04 0 0 -0.27 0.37 -2.73 0.06 0 0 -0.37c0.38,-2.73 0.8,-5.46 1.23,-8.17l0.05 0 0 -0.28 0.37 -2.29 0.06 0 0 -0.31c0.12,-0.75 0.24,-1.5 0.37,-2.25l0.05 0 0 -0.29c0.13,-0.76 0.27,-1.52 0.41,-2.28l0.02 0 0 -0.13 0.36 -2.01 0.07 0 0 -0.37 0.41 -2.19 0.01 0 0 -0.08c0.4,-2.12 0.81,-4.23 1.24,-6.33l0.05 0 0 -0.21 0.4 -1.93 0.02 0 0 -0.11 0.34 -1.6 0.09 0 0 -0.43 0.38 -1.71 0.05 0 0 -0.23 0.42 -1.9 0.01 0 0 -0.04 0.38 -1.67 0.04 0 0 -0.21c0.28,-1.21 0.56,-2.43 0.85,-3.64l0.01 0 0 -0.02 0.41 -1.69 0.02 0 0 -0.07 0.4 -1.64 0.02 0 0 -0.11 0.4 -1.6 0.03 0 0 -0.1 0.41 -1.61 0.02 0 0 -0.07 0.42 -1.64 0.01 0 0 -0.02 0.33 -1.26 0.09 0 0 -0.35 0.37 -1.36 0.06 0 0 -0.24 0.4 -1.47 0.03 0 0 -0.1c0.81,-2.97 1.66,-5.93 2.54,-8.88l0.02 0 0 -0.06 0.37 -1.22 0.06 0 0 -0.18 0.33 -1.1 0.1 0 0 -0.31c0.27,-0.9 0.56,-1.79 0.84,-2.68l0.01 0 0 -0.05 0.39 -1.24 0.04 0 0 -0.11 0.37 -1.17 0.06 0 0 -0.17c0.81,-2.52 1.66,-5.02 2.52,-7.52l0.04 0 0 -0.12 0.41 -1.16 0.02 0 0 -0.06c0.39,-1.12 0.79,-2.25 1.2,-3.36l0.08 0 0 -0.24 0.39 -1.05 0.04 0 0 -0.11c0.4,-1.11 0.81,-2.21 1.22,-3.31l0.06 0 0 -0.15c0.95,-2.52 1.94,-5.04 2.94,-7.54l0.05 0 0 -0.12 0.83 -2.02 0.03 0 0 -0.07 0.32 -0.78 0.11 0 0 -0.26 0.42 -1.02 0 0 0 -0.02 0.36 -0.84 0.07 0 0 -0.18c0.28,-0.65 0.56,-1.3 0.84,-1.96l0.02 0 0 -0.04 0.34 -0.81 0.08 0 0 -0.19c0.28,-0.65 0.57,-1.3 0.85,-1.95l0.01 0 0 -0.01c0.69,-1.57 1.39,-3.13 2.1,-4.69l0.04 0 0 -0.08c0.83,-1.83 1.68,-3.66 2.55,-5.48l0.01 0 0 -0.02 0.39 -0.83 0.04 0 0 -0.08 0.38 -0.78 0.04 0 0 -0.09 0.38 -0.76 0.05 0 0 -0.12 0.36 -0.74 0.07 0 0 -0.13 0.35 -0.72 0.08 0 0 -0.16 0.34 -0.7 0.08 0 0 -0.16c0.97,-1.95 1.96,-3.89 2.97,-5.82l0.03 0 0 -0.05 0.42 -0.8 0 0 0 -0.02c0.68,-1.28 1.36,-2.56 2.05,-3.83l0.09 0 0 -0.18 0.37 -0.68 0.06 0 0 -0.11 0.4 -0.74 0.03 0 0 -0.04c0.54,-0.99 1.08,-1.97 1.63,-2.95l0.08 0 0 -0.14 0.4 -0.72 0.02 0 0 -0.04c1.37,-2.42 2.77,-4.83 4.2,-7.23l0.08 0 0 -0.13c0.4,-0.67 0.81,-1.33 1.21,-2l0.07 0 0 -0.12c0.41,-0.67 0.81,-1.35 1.23,-2.02l0.05 0 0 -0.09c0.25,-0.4 0.5,-0.79 0.75,-1.19l0.11 0 0 -0.17 0.43 -0.69 0.8 -1.28 0.05 0 0 -0.08c1.25,-1.98 2.53,-3.94 3.82,-5.9l0.03 0 0 -0.04 0.83 -1.25 0.02 0 0 -0.04 0.83 -1.24 0.03 0 0 -0.03 0.85 -1.25 0 0 0 -0.01 1.17 -1.7 0.11 0 0 -0.17 0.78 -1.11 0.08 0 0 -0.12 0.82 -1.16 0.03 0 0 -0.06c0.39,-0.55 0.78,-1.1 1.17,-1.65l0.12 0 0 -0.17 0.81 -1.12 0.04 0 0 -0.06c1.12,-1.55 2.25,-3.1 3.4,-4.64l0.02 0 0 -0.03c0.42,-0.56 0.83,-1.12 1.25,-1.68l0.03 0 0 -0.04c0.42,-0.56 0.86,-1.11 1.28,-1.67l0 0 0 0 0.33 -0.43 0.1 0 0 -0.13 1.21 -1.58 0.07 0 0 -0.09c0.42,-0.54 0.85,-1.08 1.27,-1.61l0.02 0 0 -0.02 0.32 -0.41 0.1 0 0 -0.13c0.42,-0.53 0.83,-1.06 1.25,-1.58l0.04 0 0 -0.05c0.56,-0.7 1.13,-1.39 1.69,-2.09l0.02 0 0 -0.02c1.39,-1.71 2.79,-3.41 4.22,-5.11l0.05 0 0 -0.06 0.32 -0.37 0.11 0 0 -0.13c0.69,-0.81 1.38,-1.62 2.08,-2.43l0.06 0 0 -0.06 0.31 -0.37 0.11 0 0 -0.13c0.71,-0.82 1.42,-1.62 2.14,-2.43l0 0 0 -0.01 0.37 -0.42 0.06 0 0 -0.06 0.32 -0.37 0.11 0 0 -0.12c0.98,-1.1 1.97,-2.2 2.97,-3.3l0.02 0 0 -0.02 0.56 -0.61c1.79,-1.96 3.59,-3.88 5.42,-5.78l0 0 0 0 0.41 -0.43 0.02 0 0 -0.02 0.4 -0.4 0.03 0 0 -0.04 0.38 -0.39 0.04 0 0 -0.04 0.38 -0.39 0.05 0 0 -0.05 0.36 -0.38 0.07 0 0 -0.07 0.35 -0.35 0.08 0 0 -0.09 0.33 -0.34 0.09 0 0 -0.09c1.54,-1.56 3.09,-3.09 4.64,-4.61l0.07 0 0 -0.06 0.37 -0.37 0.05 0 0 -0.05 0.39 -0.38 0.04 0 0 -0.04 0.4 -0.39 0.03 0 0 -0.02 0.42 -0.4 0.01 0 0 -0.01c1.95,-1.88 3.93,-3.73 5.92,-5.55l0.06 0 0 -0.06 0.41 -0.37 0.02 0 0 -0.02c1.25,-1.14 2.52,-2.28 3.79,-3.4l0.05 0 0 -0.05 0.43 -0.37 0 0 0 -0.01c0.82,-0.71 1.64,-1.42 2.46,-2.13l0.11 0 0 -0.09 0.39 -0.34 0.03 0 0 -0.03c0.83,-0.71 1.66,-1.41 2.49,-2.11l0.08 0 0 -0.06c2.23,-1.87 4.47,-3.7 6.74,-5.49l0.1 0 0 -0.08c0.69,-0.55 1.39,-1.09 2.08,-1.63l0.05 0 0 -0.04 1.62 -1.24 0.09 0 0 -0.08c2.25,-1.72 4.52,-3.4 6.8,-5.05l0.04 0 0 -0.03c0.98,-0.71 1.97,-1.42 2.96,-2.11l0.04 0 0 -0.03 1.17 -0.83 0.11 0 0 -0.07 1.13 -0.78 0.15 0 0 -0.1c0.99,-0.69 1.99,-1.37 2.99,-2.04l0 0 0 0 1.28 -0.85 0 0 0 0c1.53,-1.01 3.06,-2.01 4.6,-2.99l0.11 0 0 -0.07 1.24 -0.79 0.04 0 0 -0.02c0.67,-0.42 1.34,-0.85 2.01,-1.26l0.13 0 0 -0.08 1.27 -0.78 0.01 0 0 0c0.7,-0.43 1.4,-0.86 2.1,-1.28l0.03 0 0 -0.02 2.13 -1.26 0.01 0 0 -0.01c0.98,-0.57 1.96,-1.14 2.94,-1.7l0.05 0 0 -0.03c0.99,-0.57 1.99,-1.13 2.98,-1.68l0.02 0 0 -0.01 0.74 -0.42 0.11 0 0 -0.06 0.67 -0.37 0.19 0 0 -0.1c0.98,-0.54 1.97,-1.07 2.97,-1.61l0.02 0 0 -0.01 0.79 -0.41 0.06 0 0 -0.04c2.76,-1.45 5.54,-2.87 8.34,-4.24l0.21 0 0 -0.1 0.66 -0.33 0.2 0 0 -0.09 0.69 -0.33 0.16 0 0 -0.08 0.74 -0.35 0.12 0 0 -0.06 0.78 -0.37 0.07 0 0 -0.03 0.84 -0.4 0.02 0 0 -0.01c1.55,-0.72 3.1,-1.43 4.66,-2.12l0.04 0 0 -0.02c0.96,-0.42 1.91,-0.85 2.88,-1.26l0.11 0 0 -0.05c0.96,-0.42 1.92,-0.83 2.89,-1.24l0.1 0 0 -0.04 1.96 -0.81 0.18 0 0 -0.08c2.08,-0.85 4.18,-1.68 6.28,-2.49l0.13 0 0 -0.05 2.12 -0.8 0.02 0 0 -0.01 1.14 -0.42 0.14 0 0 -0.05 1.02 -0.38 0.26 0 0 -0.09c0.71,-0.26 1.42,-0.51 2.12,-0.76l0.02 0 0 -0.01 1.19 -0.42 0.09 0 0 -0.03 1.15 -0.4 0.14 0 0 -0.04c1.65,-0.57 3.31,-1.13 4.97,-1.67l0.15 0 0 -0.04 1.17 -0.38 0.12 0 0 -0.04 1.25 -0.39 0.03 0 0 -0.01c0.91,-0.29 1.82,-0.57 2.73,-0.85l0.26 0 0 -0.07 1.18 -0.35 0.1 0 0 -0.03c0.94,-0.28 1.89,-0.56 2.83,-0.83l0.17 0 0 -0.04c3.11,-0.89 6.24,-1.73 9.39,-2.52l0.01 0 0 -0.01c4.37,-1.09 8.78,-2.08 13.22,-2.98l0.03 0 0 -0.01m2.09 -0.42l0.47 0 0 -0.09 1.79 -0.34 0.35 0 0 -0.06 1.97 -0.37 0.17 0 0 -0.03c2.5,-0.44 5.01,-0.86 7.53,-1.25l0.16 0 0 -0.02c0.9,-0.14 1.8,-0.28 2.7,-0.41l0.29 0 0 -0.04c0.94,-0.13 1.88,-0.26 2.81,-0.38l0.19 0 0 -0.03c2.25,-0.3 4.52,-0.58 6.8,-0.83l0.04 0 0 0c1.34,-0.15 2.7,-0.29 4.05,-0.43l0.65 0 0 -0.06c1.35,-0.13 2.7,-0.25 4.05,-0.36l0.65 0 0 -0.06c1.69,-0.14 3.4,-0.26 5.1,-0.37l0.03 0 0 0c2.67,-0.18 5.36,-0.32 8.06,-0.43l1.77 0 0 -0.06c1.72,-0.07 3.44,-0.12 5.16,-0.15l489.96 0 15.14 0.4c1.54,-0.01 3,0.04 4.38,0.14l0 0.1 1.11 0c0.95,0.09 1.86,0.21 2.74,0.35l0 0.08 0.42 0c0.58,0.1 1.16,0.21 1.71,0.34l0 0.08 0.39 0c1.86,0.44 3.57,1 5.17,1.67l0 0.04 0.11 0c1.15,0.49 2.25,1.04 3.31,1.63l0 0.08 0.15 0c0.24,0.14 0.47,0.27 0.7,0.41l0 0.02 0.03 0c2.99,1.79 5.69,3.97 8.52,6.4l0 0.01 0.02 0c2.96,2.53 6.07,5.31 9.84,8.18l5.53 4.2 0 0.02 0.02 0 7.25 5.51 0 0.04 0.05 0 1.66 1.27 0 0.02 0.02 0 1.69 1.28 0 0 0 0 3.84 2.93 0 0.06 0.08 0 1.63 1.24 0 0.04 0.06 0 1.65 1.27 0 0.02 0.03 0 2.11 1.61 0 0.1 0.13 0 1.58 1.2 0 0.08 0.1 0 1.61 1.23 0 0.05 0.07 0 1.64 1.26 0 0.02 0.03 0 1.68 1.28 0 0.01 0 0 0.43 0.32 0 0.1 0.13 0 1.58 1.2 0 0.09 0.1 0 1.61 1.22 0 0.06 0.07 0 1.64 1.25 0 0.03 0.04 0 1.66 1.27 0 0.01 0.01 0 0.42 0.32 0 0.11 0.14 0 1.57 1.2 0 0.08 0.11 0 1.6 1.23 0 0.05 0.07 0 1.64 1.26 0 0.03 0.04 0 1.67 1.28 0 0 0.01 0 0.42 0.32 0 0.11 0.13 0 1.58 1.2 0 0.08 0.1 0 1.61 1.23 0 0.05 0.06 0 1.65 1.26 0 0.02 0.03 0 2.1 1.62 0 0.09 0.13 0 1.59 1.22 0 0.07 0.08 0 1.63 1.24 0 0.04 0.04 0 1.66 1.27 0 0.01 0.01 0 0.42 0.32 0 0.11 0.14 0 1.57 1.2 0 0.08 0.1 0 1.61 1.23 0 0.05 0.06 0 1.65 1.27 0 0.01 0.03 0 2.11 1.63 0 0.08 0.11 0 1.6 1.23 0 0.06 0.07 0 1.64 1.25 0 0.03 0.03 0 3.82 2.93 0 0.06 0.08 0 1.62 1.25 0 0.03 0.05 0 1.66 1.28 3.85 2.96 0 0.04 0.05 0 1.66 1.28 0 0 0.01 0 5.55 4.27 0 0 0 0 5.56 4.28 0 0 0 0 20.51 15.8 0 0.01 0.02 0 5.54 4.28 0 0 0 0 9.4 7.25 0 0.02 0.02 0 5.54 4.27 0 0 0 0 9.4 7.25 0 0.02 0.02 0 9.39 7.24 0 0.02 0.02 0 5.53 4.27 0 0.01 0.01 0 9.4 7.25 0 0.01 0.01 0 22.36 17.26 13.23 16.67 -732.61 0c-99.68,0 -169.46,75.71 -167.38,164.93l0.1 4.72 0 2.45 0.06 0c0.13,5.98 0.25,11.96 0.37,17.95l0 11.97 0.22 0 0.21 12.25 0 18.1 0.26 0c0.06,4.17 0.11,8.34 0.16,12.51l0 17.41 0.2 0c0.09,9.34 0.17,18.68 0.23,28.01l0 1.91 0.02 0c0.46,67.95 0.23,135.92 -0.01,203.89l-0.01 0 0 2.87c-0.22,61.38 -0.44,122.75 -0.18,184.12 0.01,2.14 -0.06,4.21 -0.2,6.21l-0.05 0 0 0.6c-0.09,1.25 -0.22,2.47 -0.38,3.68l-0.04 0 0 0.33c-0.12,0.9 -0.26,1.78 -0.42,2.66l-0.01 0 0 0.06c-0.13,0.7 -0.26,1.39 -0.41,2.08l-0.02 0 0 0.08c-0.12,0.54 -0.24,1.09 -0.38,1.63l-0.05 0 0 0.2c-0.12,0.51 -0.25,1.01 -0.39,1.51l-0.03 0 0 0.11c-0.48,1.71 -1.04,3.38 -1.67,5.01l-0.04 0 0 0.12c-0.27,0.68 -0.54,1.35 -0.83,2.02l-0.03 0 0 0.06c-0.74,1.72 -1.58,3.41 -2.5,5.07l-0.06 0 0 0.11 -0.43 0.75 0 0 0 0c-0.66,1.15 -1.37,2.29 -2.12,3.41l-0.02 0 0 0.03c-1.04,1.58 -2.18,3.13 -3.39,4.68l-0.03 0 0 0.03c-1.68,2.14 -3.53,4.26 -5.54,6.38l-0.01 0 0 0.01 -0.4 0.42 -0.03 0 0 0.02 -0.38 0.4 -0.05 0 0 0.05c-0.41,0.43 -0.84,0.86 -1.27,1.29 -34.09,34.02 -66.93,69.25 -100.02,104.24l-0.01 0 0 0.02 -7.68 8.1 -0.01 0 0 0.02 -0.4 0.41 -0.03 0 0 0.04 -0.37 0.39 -0.06 0 0 0.06c-2.42,2.55 -4.83,5.09 -7.25,7.63l-0.02 0 0 0.01 -0.39 0.42 -0.03 0 0 0.03 -0.38 0.4 -0.05 0 0 0.05c-2.7,2.84 -5.41,5.67 -8.12,8.5l0 0 0 0 -1.51 1.58c-1.88,1.95 -3.73,4.63 -5.75,6.96l-0.01 0 0 0.02c-0.81,0.93 -1.64,1.8 -2.51,2.55l-0.05 0 0 0.04c-0.56,0.47 -1.13,0.89 -1.71,1.24 -0.27,0.16 -0.53,0.3 -0.8,0.43l-0.06 0 0 0.03c-0.34,0.15 -0.68,0.29 -1.03,0.4l-0.25 0 0 0.07c-1.07,0.28 -2.21,0.32 -3.42,0.04"/>
  <path class="fil4" d="M247.36 1293.23l0 -0.01 -0.16 0c-0.68,-0.09 -1.35,-0.22 -1.97,-0.42l0 -0.01 -0.04 0c-2.07,-0.66 -3.77,-2.03 -4.78,-4.62 -0.14,-0.38 -0.25,-0.74 -0.31,-1.1l0 -0.27 -0.05 0c-0.08,-0.59 -0.07,-1.16 0.04,-1.7l0.01 0 0 -0.05c0.91,-4.59 7.88,-7.63 11.14,-11.66l1.61 -1.97 0.07 0 0 -0.09c0.56,-0.69 1.12,-1.37 1.69,-2.05l0.02 0 0 -0.02 0.34 -0.41 0.09 0 0 -0.1 1.7 -2.04 0.01 0 0 0 0.35 -0.42 0.07 0 0 -0.09 0.3 -0.34 0.13 0 0 -0.16 1.69 -1.98 0.02 0 0 -0.02 0.35 -0.4 0.08 0 0 -0.09 0.29 -0.34 0.14 0 0 -0.16c0.69,-0.8 1.39,-1.61 2.1,-2.41l0.03 0 0 -0.04 0.34 -0.38 0.09 0 0 -0.1c0.85,-0.97 1.71,-1.94 2.57,-2.9 1.4,-1.57 2.82,-3.14 4.25,-4.7l0.02 0 0 -0.02 0.37 -0.41 0.06 0 0 -0.05 0.34 -0.37 0.08 0 0 -0.1 0.31 -0.33 0.12 0 0 -0.13c1.41,-1.53 2.83,-3.06 4.26,-4.57l0.02 0 0 -0.02 0.38 -0.41 0.04 0 0 -0.04 0.37 -0.39 0.06 0 0 -0.07 0.34 -0.35 0.09 0 0 -0.1c2.96,-3.13 5.95,-6.23 8.97,-9.31l0 0 0 0 0.42 -0.43 0.01 0 0 -0.01 0.41 -0.41 0.02 0 0 -0.03 0.4 -0.4 0.03 0 0 -0.03 0.39 -0.4 0.03 0 0 -0.04 0.39 -0.38 0.04 0 0 -0.05 0.38 -0.38 0.05 0 0 -0.05 0.37 -0.38 0.06 0 0 -0.06 0.36 -0.37 0.06 0 0 -0.06 0.36 -0.36 0.07 0 0 -0.07 0.36 -0.36 0.07 0 0 -0.07 0.35 -0.36 0.08 0 0 -0.07 0.35 -0.36 0.07 0 0 -0.08c3.54,-3.55 7.1,-7.08 10.67,-10.6l0.02 0 0 -0.02 0.41 -0.41 0.02 0 0 -0.02 0.42 -0.41 0.01 0 0 -0.01 0.42 -0.42 0 0 0 0c24.53,-24.13 49.6,-47.76 71.33,-74.43 0.58,-0.72 1.17,-1.41 1.76,-2.08l0.39 -0.43 0.04 0 0 -0.04 0.35 -0.38 0.08 0 0 -0.09 0.32 -0.34 0.11 0 0 -0.12 0.3 -0.31 0.12 0 0 -0.13c0.83,-0.85 1.66,-1.66 2.51,-2.43l0.06 0 0 -0.06 0.41 -0.37 0.02 0 0 -0.01c0.66,-0.59 1.33,-1.16 2,-1.7l0.13 0 0 -0.1 0.41 -0.33 0.02 0 0 -0.01c0.56,-0.44 1.13,-0.86 1.69,-1.27l0.02 0 0 -0.01c0.4,-0.29 0.81,-0.57 1.21,-0.84l0.07 0 0 -0.05c0.42,-0.28 0.83,-0.55 1.25,-0.81l0.04 0 0 -0.02c0.69,-0.44 1.4,-0.86 2.12,-1.26l0.01 0 0 -0.01c0.52,-0.29 1.05,-0.57 1.58,-0.85l0.13 0 0 -0.07 0.72 -0.35 0.14 0 0 -0.07 0.74 -0.36 0.11 0 0 -0.05 0.83 -0.38 0.03 0 0 -0.01c3.2,-1.43 6.56,-2.54 10.08,-3.41l0.18 0 0 -0.04c0.55,-0.14 1.1,-0.26 1.66,-0.39l0.05 0 0 -0.01c0.68,-0.14 1.37,-0.28 2.06,-0.41l0.07 0 0 -0.02c0.79,-0.15 1.58,-0.28 2.38,-0.41l0.19 0 0 -0.03c0.93,-0.14 1.87,-0.28 2.83,-0.4l0.16 0 0 -0.02c1.26,-0.15 2.53,-0.29 3.83,-0.4l0.02 0 0 -0.01c2.15,-0.19 4.35,-0.32 6.61,-0.42l350.88 -0.6c16.8,-0.8 33.63,-1.65 50.36,-3.28 36.77,-3.6 66.62,-32.6 68.38,-70.29 1.62,-34.29 0.9,-68.67 0.79,-103.04l0 -15.33c0.01,-2.98 0.03,-5.97 0.06,-8.95 0.19,-18.9 -12.98,-17.57 -25.69,-17.57 -91.64,0.01 -183.28,0.01 -274.92,0.02 -7.34,0 -14.68,0.24 -21.99,-0.13 -1.12,-0.06 -2.32,0.02 -3.55,0.09 -2.42,0.15 -4.9,0.29 -6.89,-0.56l0 -0.07 -0.16 0c-0.24,-0.11 -0.47,-0.24 -0.69,-0.38l0 -0.04 -0.07 0c-0.44,-0.3 -0.85,-0.67 -1.21,-1.12l0 -0.17 -0.13 0c-0.27,-0.36 -0.52,-0.78 -0.73,-1.26l0 -0.02 -0.01 0c-0.06,-0.15 -0.13,-0.3 -0.18,-0.46 -0.1,-0.25 -0.17,-0.49 -0.24,-0.73l0 -0.09 -0.02 0c-0.54,-2.17 0.1,-3.98 1.28,-5.56l0.03 0 0 -0.03c1.64,-2.17 4.32,-3.92 6.37,-5.58 8.48,-6.9 17.06,-13.7 25.68,-20.46l0 0 0 -0.01c37.1,-29.11 74.9,-57.51 108.8,-89.87l0 0c0.72,-0.68 1.44,-1.36 2.17,-2.02l0.17 0 0 -0.16 0.29 -0.27 0.14 0 0 -0.12 0.34 -0.31 0.08 0 0 -0.07 0.4 -0.35 0.03 0 0 -0.03c0.48,-0.43 0.95,-0.84 1.43,-1.26l0.28 0 0 -0.24 0.21 -0.18 0.22 0 0 -0.19 0.29 -0.24 0.14 0 0 -0.12 0.36 -0.31 0.06 0 0 -0.05c0.5,-0.41 1,-0.82 1.49,-1.23l0.22 0 0 -0.18 0.31 -0.25 0.12 0 0 -0.09 0.42 -0.34 0.01 0 0 0c1.1,-0.88 2.21,-1.74 3.33,-2.56l0.09 0 0 -0.07 1.07 -0.78 0.21 0 0 -0.16 0.38 -0.27 0.05 0 0 -0.03 0.56 -0.4 0.29 0 0 -0.21 0.32 -0.22 0.11 0 0 -0.08 0.51 -0.34 0.34 0 0 -0.24 0.28 -0.19 0.15 0 0 -0.1 1.14 -0.76 0.14 0 0 -0.09 1.18 -0.76 0.11 0 0 -0.07c0.41,-0.27 0.83,-0.53 1.25,-0.79l0.03 0 0 -0.02c1.68,-1.04 3.38,-2.03 5.08,-2.97l0.05 0 0 -0.02 0.74 -0.41 0.11 0 0 -0.06 0.69 -0.36 0.17 0 0 -0.09 0.65 -0.34 0.2 0 0 -0.11 0.63 -0.32 0.23 0 0 -0.11 0.62 -0.32 0.23 0 0 -0.11 0.64 -0.31 0.22 0 0 -0.11 0.66 -0.32 0.19 0 0 -0.09 0.73 -0.34 0.13 0 0 -0.06 0.8 -0.37 0.05 0 0 -0.02c0.96,-0.43 1.92,-0.86 2.88,-1.26l0.11 0 0 -0.05 0.92 -0.38 0.37 0 0 -0.14 0.7 -0.28 0.15 0 0 -0.06 0.94 -0.37 0.34 0 0 -0.13 0.78 -0.3 0.51 0 0 -0.18 0.66 -0.24 0.19 0 0 -0.08 1.01 -0.35 0.27 0 0 -0.1 0.98 -0.33 0.31 0 0 -0.1c1.24,-0.42 2.48,-0.81 3.73,-1.18l0.11 0 0 -0.03 1.36 -0.4 0.35 0 0 -0.1 1.2 -0.33 0.51 0 0 -0.13 1.11 -0.3 0.6 0 0 -0.15 1.11 -0.27 0.6 0 0 -0.14 1.23 -0.29 0.05 0 0 -0.01c1.33,-0.3 2.66,-0.58 3.99,-0.85l0.29 0 0 -0.05c0.66,-0.13 1.33,-0.25 2,-0.37l0.56 0 0 -0.1c0.64,-0.11 1.29,-0.22 1.93,-0.33l0.64 0 0 -0.1c0.72,-0.11 1.44,-0.22 2.17,-0.33l0.39 0 0 -0.05c0.93,-0.14 1.87,-0.26 2.81,-0.37l0.19 0 0 -0.03c1.19,-0.14 2.39,-0.28 3.6,-0.4l0.67 0 0 -0.07c1.36,-0.13 2.73,-0.25 4.11,-0.36l1.02 0 0 -0.07c2.01,-0.15 4.04,-0.27 6.08,-0.36l1.18 0 0 -0.05c3.68,-0.14 7.42,-0.21 11.2,-0.21 2.66,0 5.34,0.04 8.05,0.1 86.47,1.84 173.01,1.09 259.51,0.09 1.16,-0.01 2.28,-0.01 3.36,0.01l0 0.06 2 0c1.56,0.07 3.03,0.18 4.41,0.34l0 0.09 0.7 0c1.43,0.19 2.76,0.44 4,0.77l0 0.09 0.33 0c0.47,0.12 0.93,0.27 1.38,0.42l0 0 0.02 0c1.24,0.43 2.37,0.95 3.4,1.56l0 0.15 0.25 0c0.21,0.13 0.41,0.27 0.6,0.4l0 0.03 0.04 0c0.94,0.66 1.78,1.42 2.53,2.29l0 0.27 0.22 0 0.21 0.26 0 0.17 0.12 0 0.3 0.42 0 0.01 0.01 0c0.47,0.68 0.9,1.42 1.27,2.23l0 0.33 0.16 0c0.09,0.21 0.18,0.43 0.27,0.65l0 0.21 0.09 0c0.29,0.75 0.54,1.55 0.77,2.4l0 0.16 0.04 0c0.14,0.56 0.27,1.13 0.38,1.73l0 0.41 0.08 0c0.14,0.78 0.26,1.59 0.35,2.44l0 0.13 0.02 0c0.26,2.38 0.35,5.06 0.29,8.07 -1.22,61.11 0.52,122.32 -0.31,183.42l0 0 0 0.12c-0.06,4.66 -0.14,9.33 -0.23,13.98l-0.2 0 0 8.39c-0.04,1.91 -0.1,3.82 -0.15,5.72l-0.27 0 0 8.76c-0.06,1.78 -0.13,3.56 -0.2,5.35l-0.23 0 0 5.89c-0.11,2.59 -0.23,5.19 -0.35,7.78l-0.08 0 0 1.6 -0.13 2.7c-0.07,1.42 -0.17,2.83 -0.26,4.25l-0.04 0 0 0.55c-0.11,1.82 -0.23,3.63 -0.38,5.44l-0.04 0 0 0.57c-0.25,3.11 -0.53,6.19 -0.85,9.26l-0.01 0 0 0.07c-0.13,1.26 -0.25,2.52 -0.39,3.77l-0.03 0 0 0.25c-0.13,1.07 -0.27,2.12 -0.4,3.17l-0.03 0 0 0.29c-0.38,3.06 -0.8,6.1 -1.25,9.12l-0.03 0 0 0.21c-0.12,0.79 -0.24,1.57 -0.36,2.35l-0.07 0 0 0.43c-0.64,4.03 -1.36,8.02 -2.13,11.97l-0.01 0 0 0.05c-0.14,0.7 -0.26,1.39 -0.4,2.09l-0.03 0 0 0.11c-0.66,3.27 -1.38,6.5 -2.13,9.72l0 0 0 0.02 -0.4 1.69 -0.03 0 0 0.12c-0.13,0.53 -0.25,1.06 -0.38,1.59l-0.05 0 0 0.22 -0.37 1.49 -0.06 0 0 0.22c-0.12,0.5 -0.25,0.99 -0.38,1.49l-0.04 0 0 0.16 -0.41 1.55 -0.02 0 0 0.1c-0.14,0.53 -0.28,1.07 -0.42,1.61l-0.01 0 0 0.03c-0.53,2 -1.09,3.98 -1.66,5.95l-0.05 0 0 0.16c-0.27,0.95 -0.54,1.89 -0.82,2.83l-0.03 0 0 0.1c-0.94,3.13 -1.94,6.23 -2.96,9.31l-0.03 0 0 0.09 -0.4 1.19 -0.03 0 0 0.09c-0.14,0.39 -0.26,0.79 -0.4,1.19l-0.03 0 0 0.09 -0.41 1.19 -0.02 0 0 0.05c-1.71,4.91 -3.55,9.74 -5.49,14.49l-0.06 0 0 0.15c-0.27,0.67 -0.55,1.32 -0.82,1.98l-0.04 0 0 0.08c-0.28,0.69 -0.56,1.38 -0.85,2.06l0 0 0 0.01c-0.55,1.29 -1.13,2.56 -1.69,3.84l-0.02 0 0 0.04c-0.57,1.27 -1.13,2.55 -1.71,3.8l0 0 -0.41 0.86 -0.02 0 0 0.05 -0.38 0.8 -0.05 0 0 0.11c-2.03,4.31 -4.15,8.55 -6.37,12.72l-0.04 0 0 0.07 -0.42 0.78 -0.01 0 0 0.02c-1.23,2.3 -2.49,4.57 -3.78,6.82l-0.06 0 0 0.11 -0.43 0.75 0 0 0 0.01c-0.42,0.71 -0.84,1.41 -1.26,2.12l-0.02 0 0 0.04c-0.42,0.7 -0.84,1.4 -1.26,2.1l-0.03 0 0 0.04c-1.38,2.29 -2.79,4.56 -4.23,6.8l-0.04 0 0 0.06 -0.79 1.22 -0.07 0 0 0.1c-0.26,0.4 -0.52,0.79 -0.79,1.18l-0.06 0 0 0.1c-1.12,1.69 -2.26,3.37 -3.41,5.03l-0.01 0 0 0.02c-0.69,0.99 -1.39,1.99 -2.1,2.97l-0.04 0 0 0.06c-0.39,0.55 -0.79,1.11 -1.19,1.65l-0.09 0 0 0.13c-0.7,0.96 -1.42,1.91 -2.13,2.87l-0.01 0 0 0c-1.95,2.6 -3.94,5.17 -5.98,7.69l0 0 0 0.01 -0.35 0.42 -0.08 0 0 0.09c-0.56,0.69 -1.12,1.37 -1.69,2.05l-0.02 0 0 0.02c-0.7,0.85 -1.41,1.7 -2.12,2.54l-0.02 0 0 0.02c-0.97,1.14 -1.96,2.27 -2.96,3.4l-0.03 0 0 0.03 -0.34 0.4 -0.09 0 0 0.1c-1.12,1.26 -2.26,2.5 -3.41,3.74l0 0 0 0.01c-4.38,4.73 -8.92,9.29 -13.62,13.67l-0.06 0 0 0.06 -0.4 0.37 -0.03 0 0 0.03c-1.39,1.28 -2.8,2.56 -4.22,3.82l-0.05 0 0 0.04c-1.95,1.73 -3.92,3.42 -5.91,5.08l-0.08 0 0 0.07c-0.84,0.69 -1.68,1.39 -2.52,2.07l-0.04 0 0 0.03c-0.7,0.57 -1.4,1.12 -2.1,1.68l-0.04 0 0 0.03c-1.26,1 -2.53,1.99 -3.81,2.96l-0.04 0 0 0.03 -1.65 1.26 -0.06 0 0 0.04c-0.55,0.41 -1.09,0.83 -1.64,1.24l-0.07 0 0 0.05c-5.91,4.36 -12.04,8.47 -18.35,12.34l-0.03 0 0 0.02c-0.69,0.42 -1.38,0.85 -2.08,1.27l-0.05 0 0 0.03c-0.7,0.42 -1.39,0.84 -2.09,1.25l-0.05 0 0 0.03c-3.5,2.06 -7.06,4.05 -10.67,5.95l-0.02 0 0 0.01 -0.8 0.42 -0.05 0 0 0.03 -0.79 0.4 -0.07 0 0 0.03 -0.76 0.4 -0.09 0 0 0.04c-2.24,1.15 -4.51,2.28 -6.8,3.38l-0.04 0 0 0.02 -0.85 0.4 -0.01 0 0 0.01c-1.52,0.72 -3.05,1.43 -4.6,2.13l-0.1 0 0 0.05 -0.85 0.38 0 0 0 0c-1.95,0.88 -3.92,1.73 -5.9,2.56l-0.09 0 0 0.04c-0.99,0.41 -1.97,0.84 -2.96,1.25l-0.03 0 0 0.01c-2.53,1.03 -5.09,2.01 -7.67,2.98l-0.02 0 0 0c-1.55,0.58 -3.11,1.15 -4.67,1.71l-0.03 0 0 0.01 -1.19 0.41 -0.1 0 0 0.04 -1.17 0.39 -0.11 0 0 0.04 -1.15 0.39 -0.13 0 0 0.04c-1.68,0.57 -3.37,1.13 -5.07,1.67l-0.06 0 0 0.02c-1.35,0.42 -2.7,0.85 -4.06,1.26l-0.22 0 0 0.07 -1.2 0.36 -0.08 0 0 0.02c-0.96,0.29 -1.94,0.56 -2.91,0.83l-0.08 0 0 0.02c-5.47,1.56 -11.02,2.99 -16.67,4.26l0 0 0 0c-6.62,1.49 -13.37,2.76 -20.22,3.84l-0.3 0 0 0.05 -2.47 0.38 -0.09 0 0 0.01c-0.98,0.15 -1.96,0.28 -2.93,0.42l-0.06 0 0 0.01c-2.17,0.3 -4.35,0.58 -6.54,0.84l-0.3 0 0 0.04c-1.1,0.13 -2.19,0.27 -3.29,0.39l-0.56 0 0 0.06c-1.26,0.14 -2.53,0.25 -3.79,0.37l-0.06 0 0 0.01c-1.54,0.14 -3.08,0.29 -4.63,0.42l-0.07 0 0 0c-1.86,0.16 -3.74,0.3 -5.62,0.42l-0.79 0 0 0.06c-7.51,0.48 -15.13,0.73 -22.86,0.74 -24.13,0.03 -48.26,0.05 -72.38,0.06l-60.31 0 -4.02 0c-40.21,-0.01 -80.42,-0.03 -120.63,-0.03l0 -0.11c-94.58,0 -189.16,0.06 -283.73,-0.16 -1.63,0 -3.44,0.21 -5.28,0.43 -2.52,0.28 -5.1,0.57 -7.41,0.31z"/>
  <path class="fil5" d="M1396.99 727.2c0,-125.92 104.01,-226.17 231.19,-226.17 53.25,0 104,18.17 142.85,48.88 16.29,11.9 18.8,35.08 6.89,50.74 -11.9,15.03 -35.09,18.17 -50.75,5.64 -26.94,-20.68 -61.4,-33.83 -98.99,-33.83 -45.11,0 -84.58,16.91 -112.77,45.73 -29.45,28.2 -47,66.42 -47,109.01 0,41.36 17.55,79.58 47,107.77 28.19,28.82 67.66,45.74 112.77,45.74 31.33,0 60.78,-9.4 85.83,-23.81l0 -85.83 -89.59 0c-19.42,0 -35.71,-16.3 -35.71,-35.71 0,-20.05 16.29,-35.09 35.71,-35.09l124.68 0c20.05,0 36.34,15.04 36.34,35.09l0 138.46c0,4.39 -1.25,6.89 -1.88,10.65 -0.63,1.25 -0.63,1.87 -1.25,3.13l0 0.63c-1.89,5.63 -5.64,10.65 -11.91,15.03 -39.47,30.7 -88.97,48.87 -142.22,48.87 -127.18,0 -231.19,-99.62 -231.19,-224.93z"/>
  <path class="fil5" d="M1863.76 917.68l0 -369.66c0,-18.79 15.04,-34.46 34.47,-34.46 19.42,0 35.08,15.67 35.08,34.46l0 334.57 169.79 0c18.16,0 34.46,15.66 34.46,35.09 0,18.79 -16.3,34.45 -34.46,34.45l-204.87 0c-19.43,0 -34.47,-15.66 -34.47,-34.45z"/>
  <path class="fil5" d="M2454.57 726.58c0,-42.6 -16.91,-82.07 -42.6,-109.64 -26.31,-28.19 -61.4,-44.49 -98.99,-44.49 -40.1,0 -75.18,16.3 -101.49,44.49 -26.32,27.57 -42.61,67.04 -42.61,109.64 0,42.61 16.29,82.08 42.61,109.02 26.31,28.19 61.39,45.11 101.49,45.11 37.59,0 72.68,-16.92 98.99,-45.11 25.69,-26.94 42.6,-66.41 42.6,-109.02zm8.15 -158.51c38.84,41.36 63.28,96.49 63.28,158.51 0,62.03 -24.44,117.79 -63.28,158.52 -36.96,40.71 -92.1,67.03 -149.74,67.03 -60.14,0 -115.28,-26.32 -153.5,-67.03 -38.84,-40.73 -62.02,-96.49 -62.02,-158.52 0,-62.02 23.18,-117.15 62.02,-158.51 38.22,-41.34 93.36,-67.04 153.5,-67.04 57.64,0 112.78,25.7 149.74,67.04z"/>
  <path class="fil5" d="M2650.68 882.59l78.32 0c35.71,-0.63 64.53,-28.82 64.53,-65.16 0,-35.71 -28.82,-63.9 -64.53,-64.54l-78.32 0 0 129.7zm0 -199.23l53.88 0c27.57,0 49.51,-23.18 49.51,-50.75 0,-27.58 -21.94,-49.5 -49.51,-49.5l-53.88 0 0 100.25zm-69.54 234.32l0 -369.66c0,-19.42 15.67,-34.45 34.46,-34.45l88.96 0c65.79,0 119.05,53.25 119.05,119.04 0,26.93 -8.78,51.37 -23.81,71.42 37.59,23.81 63.28,65.79 63.28,113.4 0,74.55 -60.15,134.7 -134.08,134.7l-110.9 0c-0.62,0 -0.62,-0.62 -0.62,-0.62 -1.26,0 -1.26,0.62 -1.88,0.62 -18.79,0 -34.46,-15.66 -34.46,-34.45z"/>
  <path class="fil5" d="M3114.32 779.83l-50.75 -134.7 -50.75 134.7 101.5 0zm25.7 68.93l-152.26 0 -30.69 81.45c-5.64,13.78 -18.8,21.92 -32.58,21.92 -4.39,0 -8.15,-0.62 -11.91,-1.87 -18.17,-6.9 -26.94,-26.95 -20.67,-45.12l138.46 -369.02c5.63,-13.78 19.42,-22.55 33.2,-21.93 14.41,-0.62 27.57,8.15 33.21,21.93l138.48 369.02c6.24,18.17 -2.53,38.22 -20.69,45.12 -3.12,1.25 -7.52,1.87 -11.93,1.87 -13.76,0 -26.93,-8.14 -31.93,-21.92l-30.69 -81.45z"/>
  <path class="fil5" d="M3284.11 917.68l0 -369.66c0,-18.79 15.05,-34.46 34.45,-34.46 19.45,0 35.1,15.67 35.1,34.46l0 334.57 169.78 0c18.16,0 34.45,15.66 34.45,35.09 0,18.79 -16.29,34.45 -34.45,34.45l-204.88 0c-19.4,0 -34.45,-15.66 -34.45,-34.45z"/>
  <path class="fil5" d="M1647.61 1274.16c0,-68.29 -51.38,-122.17 -114.66,-122.17 -62.65,0 -114.02,53.88 -114.02,122.17 0,68.92 51.37,123.42 114.02,123.42 63.28,0 114.66,-54.5 114.66,-123.42zm30.07 130.31c0,79.58 -64.53,144.11 -144.73,144.11 -22.55,0 -43.86,-5.64 -63.9,-14.42 -6.27,-4.38 -10.03,-13.15 -6.27,-20.04 3.76,-8.14 12.53,-11.28 20.05,-6.89 15.66,7.52 31.32,11.27 50.12,11.27 63.91,0 114.66,-50.74 114.66,-114.03l0 -37.58c-25.69,36.96 -67.68,60.15 -114.66,60.15 -80.19,0 -144.1,-68.3 -144.1,-152.88 0,-82.7 63.91,-152.25 144.1,-152.25 46.98,0 88.97,23.81 114.66,60.15l0 -45.11c0,-8.15 6.88,-15.04 15.66,-15.04 7.52,0 14.41,6.89 14.41,15.04l0 267.52z"/>
  <path class="fil5" d="M1760.38 1137.58c0,-8.78 6.89,-15.04 15.66,-15.04 7.52,0 14.41,6.26 14.41,15.04l0 67.66c1.25,-2.51 2.51,-5.01 4.39,-7.52 23.18,-36.33 63.9,-75.18 122.8,-75.18 8.14,0 15.03,6.26 15.03,15.04 0,8.14 -6.89,15.04 -15.03,15.04 -40.1,0 -67.67,22.55 -88.97,50.11 -20.67,27.57 -32.58,58.9 -36.97,71.43 -1.25,2.51 -1.25,3.76 -1.25,5.02l0 134.7c0,8.77 -6.89,15.03 -14.41,15.03 -8.77,0 -15.66,-6.26 -15.66,-15.03l0 -276.3z"/>
  <path class="fil5" d="M2103.72 1398.84c62.65,0 115.28,-55.13 115.28,-123.43 0,-68.29 -52.63,-124.05 -115.28,-124.05 -62.65,0 -115.29,55.76 -115.29,124.05 0,68.3 52.64,123.43 115.29,123.43zm0 -276.93c80.82,0 145.35,70.18 145.35,153.5 0,83.33 -64.53,153.5 -145.35,153.5 -80.2,0 -145.36,-70.17 -145.36,-153.5 0,-83.32 65.16,-153.5 145.36,-153.5z"/>
  <path class="fil5" d="M2320.51 1136.32c0,-8.77 6.89,-15.03 15.04,-15.03 8.14,0 15.03,6.26 15.03,15.03l0 167.29c0,52.62 41.98,94.6 93.98,95.23 52.63,-0.63 95.23,-42.61 95.23,-95.23l0 -167.29c0,-8.77 7.52,-15.03 15.04,-15.03 8.77,0 15.66,6.26 15.66,15.03l0 167.29c0,68.92 -55.76,125.3 -125.93,125.3 -68.92,0 -124.05,-56.38 -124.05,-125.3l0 -167.29z"/>
  <path class="fil5" d="M2678.88 1274.16c0,67.66 53.26,122.17 116.54,122.8 65.15,-0.63 117.78,-55.14 117.78,-122.8 0,-67.66 -52.63,-121.55 -117.78,-121.55 -62.03,0 -114.03,51.38 -116.54,116.53l0 5.02zm-30.7 6.27l0 -143.48c0,-8.15 6.89,-15.04 15.04,-15.04 8.77,0 15.66,6.89 15.66,15.04l0 44.49c26.32,-35.72 68.92,-59.53 116.54,-59.53 82.7,0 148.48,68.29 148.48,152.25 0,83.32 -65.78,152.88 -148.48,152.88 -47.62,0 -90.22,-23.82 -116.54,-60.15l0 175.42c0,8.15 -6.89,15.04 -15.66,15.04 -8.15,0 -15.04,-6.89 -15.04,-15.04l0 -261.88z"/>
 </g>
</svg>
