<?xml version="1.0" encoding="UTF-8"?>
<!DOCTYPE svg PUBLIC "-//W3C//DTD SVG 1.1//EN" "http://www.w3.org/Graphics/SVG/1.1/DTD/svg11.dtd">
<!-- Creator: CorelDRAW 2019 (64-Bit) -->
<svg xmlns="http://www.w3.org/2000/svg" xml:space="preserve" width="783px" height="172px" version="1.1" style="shape-rendering:geometricPrecision; text-rendering:geometricPrecision; image-rendering:optimizeQuality; fill-rule:evenodd; clip-rule:evenodd"
viewBox="0 0 598.41 131.42"
 xmlns:xlink="http://www.w3.org/1999/xlink"
 xmlns:xodm="http://www.corel.com/coreldraw/odm/2003">
 <defs>
  <style type="text/css">
   <![CDATA[
    .fil0 {fill:#B3B3B3}
    .fil1 {fill:#6B9543;fill-rule:nonzero}
   ]]>
  </style>
 </defs>
 <rect class="fil0" y="-417.14" width="783" height="783"/>
 <g id="Слой_x0020_1">
  <metadata id="CorelCorpID_0Corel-Layer"/>
  <path class="fil1" d="M118.4 36.1l-1.42 0.81 1.33 2.57 -1.39 0.79c-1.22,-0.37 -2.11,-1.1 -2.98,-2.62 -1.18,-2.08 -0.66,-4.27 1.39,-5.43 2.07,-1.19 4.16,-0.56 5.37,1.57 0.93,1.61 0.98,2.83 0.44,4.19l1.57 0.92c0.91,-1.9 0.84,-3.82 -0.38,-5.97 -1.7,-2.99 -4.9,-4.21 -7.99,-2.45 -3.08,1.76 -3.69,5.11 -1.97,8.13 0.89,1.56 1.88,2.37 3.13,2.88l-0.73 0.76 0.63 1.12 5.39 -3.08 -2.39 -4.19z"/>
  <polygon id="1" class="fil1" points="126.91,42.42 116.39,45.37 119.05,54.89 120.81,54.39 118.68,46.82 127.46,44.36 "/>
  <path id="2" class="fil1" d="M124.95 57.41c2.51,-0.2 4.13,1.47 4.31,3.76 0.19,2.3 -1.14,4.21 -3.64,4.42 -2.5,0.2 -4.13,-1.47 -4.31,-3.78 -0.19,-2.28 1.14,-4.2 3.64,-4.4zm0.83 10.17c3.45,-0.28 5.49,-3.19 5.22,-6.55 -0.28,-3.37 -2.76,-5.91 -6.21,-5.63 -3.45,0.28 -5.49,3.19 -5.22,6.55 0.28,3.37 2.76,5.9 6.21,5.63z"/>
  <path id="3" class="fil1" d="M130.86 71.86l-10.75 -1.95 -1.34 7.34c-0.39,2.12 0.85,3.84 2.66,4.16 1.28,0.24 2.34,-0.21 3,-1.18 0.32,0.71 0.93,1.12 1.8,1.28 1.69,0.3 3.03,-0.84 3.38,-2.78l1.25 -6.87zm-2.15 1.66l-0.87 4.77c-0.2,1.12 -0.87,1.36 -1.53,1.24 -0.62,-0.11 -1.15,-0.65 -1.01,-1.41l0.92 -5.05 2.49 0.45zm-4.22 -0.77l-1 5.49c-0.16,0.89 -0.82,1.41 -1.73,1.25 -0.84,-0.16 -1.39,-0.86 -1.19,-1.99l0.96 -5.28 2.96 0.53z"/>
  <path id="4" class="fil1" d="M123.79 91l-0.52 1.13 -6.08 -0.27 2.47 -5.35 4.13 4.49zm2.14 -0.36l-7.92 -8.92 -0.91 1.96 1.25 1.4 -3.11 6.77 -1.88 -0.04 -0.88 1.93 11.87 0.35 1.58 -3.45z"/>
  <polygon id="5" class="fil1" points="120.17,101.98 111.6,95.2 105.47,102.95 106.89,104.08 111.78,97.91 118.92,103.56 "/>
  <path id="6" class="fil1" d="M97.67 117.17l-0.87 -1.39 -2.5 1.45 -0.86 -1.36c0.32,-1.23 1,-2.15 2.49,-3.09 2.02,-1.28 4.23,-0.85 5.49,1.14 1.27,2.02 0.74,4.14 -1.33,5.44 -1.57,1 -2.79,1.11 -4.17,0.63l-0.85 1.61c1.95,0.82 3.86,0.67 5.95,-0.65 2.91,-1.84 3.99,-5.08 2.09,-8.09 -1.89,-3 -5.27,-3.46 -8.21,-1.6 -1.52,0.96 -2.28,1.98 -2.74,3.25l-0.79 -0.69 -1.09 0.68 3.32 5.25 4.07 -2.58z"/>
  <path id="7" class="fil1" d="M91.81 125.84l-3.43 -10.38 -1.91 0.64 0.79 2.4 -4.48 1.48 -2.11 -1.96 -2.08 0.68 2.58 2.33c-1.09,1.05 -1.55,2.56 -1,4.21 0.79,2.42 3.16,3.41 5.54,2.62l6.1 -2.02zm-2.49 -1.11l-4.11 1.36c-1.42,0.47 -2.69,-0.07 -3.15,-1.48 -0.46,-1.39 0.25,-2.54 1.67,-3.01l4.11 -1.36 1.48 4.49z"/>
  <path id="8" class="fil1" d="M75.1 125.15c0.2,2.5 -1.47,4.13 -3.76,4.31 -2.3,0.19 -4.21,-1.14 -4.41,-3.64 -0.21,-2.51 1.46,-4.13 3.77,-4.32 2.29,-0.18 4.2,1.15 4.4,3.65zm-10.17 0.83c0.29,3.44 3.19,5.49 6.56,5.22 3.37,-0.28 5.9,-2.76 5.62,-6.21 -0.28,-3.45 -3.18,-5.49 -6.55,-5.22 -3.37,0.28 -5.9,2.76 -5.63,6.21z"/>
  <path id="9" class="fil1" d="M60.76 131.25l1 -5.48c0.65,-3.56 -1.11,-5.93 -4.45,-6.54 -3.35,-0.61 -5.83,0.99 -6.47,4.55l-1.01 5.48 1.97 0.36 1 -5.5c0.42,-2.3 1.78,-3.58 4.19,-3.14 2.41,0.44 3.21,2.11 2.79,4.41l-1 5.5 1.98 0.36z"/>
  <path id="10" class="fil1" d="M45.87 128.31l3.94 -10.19 -1.88 -0.73 -0.91 2.36 -4.11 -1.59c-2.34,-0.9 -4.74,-0.08 -5.66,2.29 -0.91,2.38 0.29,4.65 2.63,5.55l5.99 2.31zm-1.22 -2.44l-4.04 -1.55c-1.39,-0.55 -2.03,-1.77 -1.49,-3.15 0.52,-1.36 1.8,-1.8 3.2,-1.26l4.04 1.56 -1.71 4.4z"/>
  <path id="11" class="fil1" d="M11.93 94.13l1.43 -0.81 -1.33 -2.56 1.39 -0.79c1.22,0.37 2.11,1.09 2.98,2.62 1.18,2.08 0.66,4.26 -1.39,5.43 -2.07,1.19 -4.16,0.56 -5.37,-1.57 -0.93,-1.62 -0.98,-2.84 -0.44,-4.19l-1.57 -0.92c-0.91,1.9 -0.84,3.82 0.38,5.97 1.7,2.98 4.9,4.21 7.99,2.45 3.08,-1.76 3.69,-5.11 1.97,-8.13 -0.89,-1.57 -1.88,-2.37 -3.13,-2.88l0.73 -0.76 -0.63 -1.12 -5.39 3.08 2.38 4.18z"/>
  <polygon id="12" class="fil1" points="3.79,87.62 14.31,84.67 11.64,75.15 9.89,75.65 12.01,83.22 3.24,85.68 "/>
  <path id="13" class="fil1" d="M5.9 72.35c-2.51,0.09 -4.05,-1.66 -4.12,-3.96 -0.07,-2.31 1.35,-4.15 3.86,-4.23 2.51,-0.08 4.05,1.67 4.12,3.98 0.08,2.29 -1.35,4.13 -3.86,4.21zm-0.33 -10.19c-3.45,0.11 -5.64,2.91 -5.53,6.29 0.11,3.38 2.47,6.03 5.93,5.92 3.45,-0.11 5.64,-2.91 5.53,-6.29 -0.11,-3.38 -2.47,-6.03 -5.93,-5.92z"/>
  <path id="14" class="fil1" d="M0.51 58.18l10.75 1.95 1.34 -7.34c0.39,-2.13 -0.85,-3.84 -2.66,-4.17 -1.28,-0.23 -2.35,0.22 -3.01,1.18 -0.31,-0.7 -0.92,-1.11 -1.8,-1.27 -1.69,-0.31 -3.02,0.84 -3.37,2.78l-1.25 6.87zm2.15 -1.66l0.86 -4.77c0.21,-1.12 0.88,-1.36 1.54,-1.24 0.62,0.11 1.14,0.65 1.01,1.4l-0.92 5.06 -2.49 -0.45zm4.21 0.77l1.01 -5.49c0.16,-0.89 0.82,-1.42 1.73,-1.25 0.83,0.16 1.39,0.86 1.18,1.98l-0.96 5.29 -2.96 -0.53z"/>
  <path id="15" class="fil1" d="M7.9 39.23l0.52 -1.13 6.07 0.28 -2.46 5.35 -4.13 -4.5zm-2.15 0.36l7.93 8.92 0.9 -1.96 -1.25 -1.4 3.12 -6.76 1.87 0.04 0.89 -1.93 -11.87 -0.35 -1.59 3.44z"/>
  <polygon id="16" class="fil1" points="11.91,28.45 20.48,35.24 26.61,27.49 25.19,26.36 20.3,32.53 13.16,26.87 "/>
  <path id="17" class="fil1" d="M34.56 13.66l0.88 1.39 2.5 -1.45 0.86 1.36c-0.32,1.23 -1.01,2.15 -2.49,3.09 -2.02,1.28 -4.24,0.85 -5.49,-1.14 -1.28,-2.02 -0.74,-4.14 1.33,-5.44 1.57,-1 2.78,-1.11 4.17,-0.63l0.85 -1.61c-1.95,-0.82 -3.86,-0.67 -5.95,0.65 -2.91,1.84 -3.99,5.09 -2.09,8.1 1.89,2.99 5.27,3.45 8.21,1.59 1.52,-0.96 2.28,-1.97 2.74,-3.25l0.79 0.7 1.08 -0.69 -3.31 -5.24 -4.08 2.57z"/>
  <path id="18" class="fil1" d="M40.58 5.19l3.43 10.37 1.92 -0.63 -0.8 -2.4 4.49 -1.48 2.11 1.96 2.08 -0.68 -2.58 -2.33c1.09,-1.05 1.55,-2.56 1,-4.21 -0.8,-2.42 -3.16,-3.41 -5.55,-2.62l-6.1 2.02zm2.49 1.11l4.11 -1.36c1.43,-0.47 2.69,0.07 3.16,1.48 0.46,1.39 -0.25,2.54 -1.67,3.01l-4.11 1.35 -1.49 -4.48z"/>
  <path id="19" class="fil1" d="M57.41 6.27c-0.2,-2.5 1.47,-4.12 3.76,-4.31 2.3,-0.18 4.21,1.15 4.42,3.65 0.2,2.5 -1.47,4.12 -3.78,4.31 -2.28,0.19 -4.19,-1.15 -4.4,-3.65zm10.17 -0.82c-0.28,-3.45 -3.18,-5.5 -6.55,-5.22 -3.37,0.27 -5.91,2.76 -5.63,6.21 0.28,3.44 3.19,5.49 6.56,5.21 3.37,-0.27 5.9,-2.76 5.62,-6.2z"/>
  <path id="20" class="fil1" d="M71.99 0.57l-1 5.48c-0.65,3.56 1.11,5.93 4.45,6.54 3.35,0.61 5.83,-0.99 6.48,-4.55l1 -5.48 -1.97 -0.36 -1 5.5c-0.42,2.3 -1.78,3.58 -4.19,3.14 -2.41,-0.44 -3.21,-2.12 -2.79,-4.41l1 -5.5 -1.98 -0.36z"/>
  <path id="21" class="fil1" d="M87.45 3.83l-4.57 9.93 1.83 0.84 1.06 -2.29 4 1.84c2.28,1.05 4.72,0.39 5.78,-1.93 1.07,-2.31 0.01,-4.65 -2.27,-5.7l-5.83 -2.69zm1.06 2.52l3.93 1.81c1.37,0.63 1.92,1.88 1.3,3.23 -0.61,1.33 -1.91,1.69 -3.27,1.06l-3.93 -1.81 1.97 -4.29z"/>
  <path class="fil1" d="M177.08 70.06l0 -4.74 17.13 0 0 14.99c-2.63,2.09 -5.34,3.68 -8.14,4.73 -2.8,1.06 -5.67,1.58 -8.61,1.58 -3.97,0 -7.58,-0.84 -10.83,-2.55 -3.24,-1.69 -5.7,-4.16 -7.35,-7.37 -1.66,-3.23 -2.48,-6.82 -2.48,-10.79 0,-3.94 0.81,-7.61 2.46,-11.03 1.65,-3.41 4.02,-5.94 7.11,-7.59 3.09,-1.66 6.65,-2.49 10.68,-2.49 2.92,0 5.56,0.47 7.93,1.42 2.36,0.95 4.22,2.27 5.56,3.96 1.34,1.69 2.36,3.91 3.06,6.63l-4.83 1.32c-0.62,-2.05 -1.37,-3.67 -2.27,-4.86 -0.9,-1.18 -2.18,-2.12 -3.86,-2.83 -1.66,-0.7 -3.52,-1.06 -5.56,-1.06 -2.44,0 -4.55,0.38 -6.34,1.12 -1.78,0.74 -3.22,1.72 -4.32,2.95 -1.09,1.21 -1.94,2.55 -2.54,4 -1.03,2.52 -1.55,5.23 -1.55,8.16 0,3.62 0.63,6.64 1.86,9.08 1.24,2.43 3.05,4.24 5.42,5.41 2.37,1.18 4.88,1.78 7.55,1.78 2.32,0 4.58,-0.46 6.78,-1.35 2.21,-0.91 3.87,-1.86 5.01,-2.88l0 -7.59 -11.87 0z"/>
  <polygon id="1" class="fil1" points="201.89,85.95 201.89,45.48 207.26,45.48 207.26,81.2 227.15,81.2 227.15,85.95 "/>
  <path id="2" class="fil1" d="M231.91 66.25c0,-6.71 1.81,-11.96 5.41,-15.76 3.61,-3.8 8.26,-5.69 13.97,-5.69 3.74,0 7.11,0.9 10.11,2.68 3,1.78 5.28,4.26 6.86,7.46 1.57,3.18 2.36,6.8 2.36,10.84 0,4.1 -0.83,7.77 -2.48,11 -1.66,3.24 -4.01,5.69 -7.04,7.35 -3.04,1.66 -6.32,2.49 -9.84,2.49 -3.81,0 -7.21,-0.92 -10.22,-2.76 -2.99,-1.83 -5.27,-4.34 -6.81,-7.52 -1.55,-3.18 -2.32,-6.54 -2.32,-10.09zm5.54 0.09c0,4.87 1.31,8.71 3.92,11.5 2.62,2.8 5.91,4.21 9.87,4.21 4.03,0 7.33,-1.42 9.94,-4.24 2.6,-2.83 3.9,-6.84 3.9,-12.04 0,-3.29 -0.55,-6.16 -1.66,-8.61 -1.12,-2.45 -2.74,-4.35 -4.88,-5.7 -2.15,-1.35 -4.55,-2.03 -7.22,-2.03 -3.79,0 -7.04,1.31 -9.78,3.9 -2.73,2.6 -4.09,6.94 -4.09,13.01z"/>
  <path id="3" class="fil1" d="M277.28 85.95l0 -40.47 15.19 0c3.09,0 5.56,0.4 7.44,1.22 1.86,0.82 3.32,2.09 4.38,3.79 1.06,1.7 1.59,3.48 1.59,5.34 0,1.72 -0.47,3.35 -1.4,4.88 -0.94,1.53 -2.35,2.76 -4.24,3.7 2.45,0.72 4.33,1.94 5.64,3.68 1.32,1.72 1.98,3.76 1.98,6.12 0,1.9 -0.41,3.66 -1.21,5.29 -0.8,1.63 -1.79,2.88 -2.96,3.77 -1.18,0.88 -2.66,1.54 -4.43,2 -1.78,0.45 -3.96,0.68 -6.54,0.68l-15.44 0zm5.37 -23.46l8.75 0c2.38,0 4.08,-0.16 5.11,-0.47 1.36,-0.41 2.39,-1.08 3.08,-2.03 0.69,-0.94 1.03,-2.11 1.03,-3.54 0,-1.34 -0.32,-2.53 -0.97,-3.55 -0.64,-1.03 -1.56,-1.73 -2.76,-2.11 -1.19,-0.38 -3.25,-0.56 -6.15,-0.56l-8.09 0 0 12.26zm0 18.71l10.08 0c1.73,0 2.95,-0.07 3.65,-0.2 1.23,-0.22 2.27,-0.58 3.09,-1.1 0.83,-0.52 1.51,-1.27 2.05,-2.26 0.54,-0.99 0.8,-2.13 0.8,-3.42 0,-1.52 -0.39,-2.83 -1.17,-3.95 -0.77,-1.12 -1.84,-1.9 -3.22,-2.35 -1.37,-0.46 -3.34,-0.68 -5.92,-0.68l-9.36 0 0 13.96z"/>
  <path id="4" class="fil1" d="M310.77 85.95l15.52 -40.47 5.89 0 16.48 40.47 -6.1 0 -4.68 -12.27 -17.04 0 -4.39 12.27 -5.68 0zm11.64 -16.62l13.79 0 -4.22 -11.22c-1.27,-3.41 -2.23,-6.23 -2.9,-8.45 -0.55,2.64 -1.3,5.23 -2.23,7.79l-4.44 11.88z"/>
  <polygon id="5" class="fil1" points="352.68,85.95 352.68,45.48 358.05,45.48 358.05,81.2 377.94,81.2 377.94,85.95 "/>
  <path id="6" class="fil1" d="M416.87 70.06l0 -4.74 17.13 0 0 14.99c-2.63,2.09 -5.34,3.68 -8.14,4.73 -2.8,1.06 -5.67,1.58 -8.61,1.58 -3.98,0 -7.58,-0.84 -10.83,-2.55 -3.24,-1.69 -5.7,-4.16 -7.35,-7.37 -1.66,-3.23 -2.49,-6.82 -2.49,-10.79 0,-3.94 0.82,-7.61 2.47,-11.03 1.65,-3.41 4.01,-5.94 7.1,-7.59 3.09,-1.66 6.65,-2.49 10.68,-2.49 2.93,0 5.57,0.47 7.94,1.42 2.36,0.95 4.22,2.27 5.55,3.96 1.35,1.69 2.37,3.91 3.07,6.63l-4.84 1.32c-0.61,-2.05 -1.36,-3.67 -2.26,-4.86 -0.9,-1.18 -2.18,-2.12 -3.86,-2.83 -1.67,-0.7 -3.52,-1.06 -5.57,-1.06 -2.44,0 -4.55,0.38 -6.34,1.12 -1.78,0.74 -3.21,1.72 -4.31,2.95 -1.09,1.21 -1.94,2.55 -2.54,4 -1.03,2.52 -1.55,5.23 -1.55,8.16 0,3.62 0.62,6.64 1.86,9.08 1.24,2.43 3.05,4.24 5.41,5.41 2.38,1.18 4.89,1.78 7.56,1.78 2.31,0 4.58,-0.46 6.78,-1.35 2.2,-0.91 3.87,-1.86 5.01,-2.88l0 -7.59 -11.87 0z"/>
  <path id="7" class="fil1" d="M442.01 85.95l0 -40.47 17.94 0c3.61,0 6.35,0.37 8.22,1.09 1.88,0.73 3.37,2.01 4.5,3.84 1.12,1.84 1.67,3.88 1.67,6.1 0,2.87 -0.93,5.29 -2.79,7.26 -1.85,1.97 -4.72,3.21 -8.6,3.75 1.43,0.68 2.5,1.36 3.23,2.02 1.57,1.43 3.05,3.23 4.43,5.38l7 11.03 -6.69 0 -5.35 -8.43c-1.55,-2.44 -2.84,-4.29 -3.85,-5.58 -1.02,-1.29 -1.92,-2.19 -2.72,-2.71 -0.79,-0.5 -1.61,-0.86 -2.44,-1.07 -0.61,-0.12 -1.59,-0.19 -2.98,-0.19l-6.2 0 0 17.98 -5.37 0zm5.37 -22.61l11.5 0c2.44,0 4.35,-0.26 5.72,-0.76 1.38,-0.5 2.42,-1.31 3.13,-2.44 0.71,-1.11 1.07,-2.31 1.07,-3.62 0,-1.91 -0.68,-3.5 -2.07,-4.73 -1.38,-1.23 -3.57,-1.85 -6.56,-1.85l-12.79 0 0 13.4z"/>
  <path id="8" class="fil1" d="M481.08 66.25c0,-6.71 1.81,-11.96 5.41,-15.76 3.61,-3.8 8.26,-5.69 13.97,-5.69 3.74,0 7.1,0.9 10.11,2.68 3,1.78 5.28,4.26 6.86,7.46 1.57,3.18 2.36,6.8 2.36,10.84 0,4.1 -0.83,7.77 -2.48,11 -1.66,3.24 -4.01,5.69 -7.04,7.35 -3.04,1.66 -6.32,2.49 -9.84,2.49 -3.81,0 -7.21,-0.92 -10.22,-2.76 -2.99,-1.83 -5.27,-4.34 -6.82,-7.52 -1.54,-3.18 -2.31,-6.54 -2.31,-10.09zm5.54 0.09c0,4.87 1.3,8.71 3.92,11.5 2.62,2.8 5.91,4.21 9.87,4.21 4.03,0 7.33,-1.42 9.94,-4.24 2.6,-2.83 3.9,-6.84 3.9,-12.04 0,-3.29 -0.55,-6.16 -1.66,-8.61 -1.12,-2.45 -2.75,-4.35 -4.88,-5.7 -2.15,-1.35 -4.55,-2.03 -7.22,-2.03 -3.79,0 -7.05,1.31 -9.78,3.9 -2.73,2.6 -4.09,6.94 -4.09,13.01z"/>
  <path id="9" class="fil1" d="M553.18 45.48l5.37 0 0 23.37c0,4.07 -0.46,7.3 -1.37,9.69 -0.92,2.39 -2.58,4.33 -4.98,5.83 -2.4,1.5 -5.53,2.25 -9.43,2.25 -3.78,0 -6.88,-0.65 -9.28,-1.96 -2.41,-1.3 -4.13,-3.19 -5.15,-5.67 -1.03,-2.47 -1.55,-5.86 -1.55,-10.14l0 -23.37 5.37 0 0 23.36c0,3.51 0.33,6.11 0.98,7.77 0.65,1.67 1.76,2.96 3.35,3.85 1.59,0.91 3.53,1.36 5.81,1.36 3.92,0 6.72,-0.89 8.39,-2.68 1.67,-1.79 2.49,-5.21 2.49,-10.3l0 -23.36z"/>
  <path id="10" class="fil1" d="M567.49 85.95l0 -40.47 15.28 0c2.69,0 4.74,0.13 6.16,0.38 1.99,0.33 3.66,0.97 5,1.89 1.35,0.93 2.43,2.23 3.25,3.9 0.82,1.67 1.23,3.5 1.23,5.51 0,3.43 -1.09,6.34 -3.29,8.71 -2.18,2.39 -6.15,3.57 -11.88,3.57l-10.38 0 0 16.51 -5.37 0zm5.37 -21.26l10.46 0c3.46,0 5.91,-0.64 7.37,-1.93 1.45,-1.29 2.18,-3.1 2.18,-5.44 0,-1.69 -0.42,-3.14 -1.28,-4.34 -0.86,-1.21 -1.99,-2.01 -3.38,-2.4 -0.91,-0.23 -2.57,-0.35 -5,-0.35l-10.35 0 0 14.46z"/>
 </g>
</svg>
